<?xml version="1.0" encoding="UTF-8" standalone="no"?>
<!-- Created with Inkscape (http://www.inkscape.org/) -->

<svg
   width="185.91557mm"
   height="53.622841mm"
   viewBox="0 0 185.91557 53.622841"
   version="1.1"
   id="svg1"
   sodipodi:docname="darkshapes_splash_grey.svg"
   inkscape:version="1.4.2 (ebf0e940, 2025-05-08)"
   inkscape:export-filename="../SDBXtext.png"
   inkscape:export-xdpi="140.33919"
   inkscape:export-ydpi="140.33919"
   xmlns:inkscape="http://www.inkscape.org/namespaces/inkscape"
   xmlns:sodipodi="http://sodipodi.sourceforge.net/DTD/sodipodi-0.dtd"
   xmlns="http://www.w3.org/2000/svg"
   xmlns:svg="http://www.w3.org/2000/svg">
  <sodipodi:namedview
     id="namedview1"
     pagecolor="#505050"
     bordercolor="#eeeeee"
     borderopacity="1"
     inkscape:showpageshadow="0"
     inkscape:pageopacity="0"
     inkscape:pagecheckerboard="0"
     inkscape:deskcolor="#505050"
     inkscape:document-units="mm"
     inkscape:zoom="0.48487124"
     inkscape:cx="255.738"
     inkscape:cy="162.92985"
     inkscape:window-width="1440"
     inkscape:window-height="847"
     inkscape:window-x="478"
     inkscape:window-y="347"
     inkscape:window-maximized="0"
     inkscape:current-layer="layer2"
     showguides="true" />
  <defs
     id="defs1" />
  <g
     inkscape:groupmode="layer"
     id="layer3"
     inkscape:label="bg"
     style="display:none"
     transform="translate(-11.577372,-34.723389)">
    <rect
       style="opacity:1;fill:#3f4245;fill-opacity:1;stroke:none;stroke-width:0.960482;stroke-linecap:round"
       id="rect1-6"
       width="195.1541"
       height="74.372017"
       x="7.5036435"
       y="24.348677"
       rx="14.299511"
       ry="21.711849"
       inkscape:export-filename="sdbx4kv3.png"
       inkscape:export-xdpi="600"
       inkscape:export-ydpi="600" />
  </g>
  <g
     inkscape:groupmode="layer"
     id="layer4"
     inkscape:label="shadowbox"
     transform="translate(-11.577372,-34.723389)" />
  <g
     inkscape:groupmode="layer"
     id="layer2"
     inkscape:label="Layer 2"
     transform="translate(-11.577372,-34.723389)">
    <rect
       style="fill:#191c1e;fill-opacity:1;stroke-width:0.815281;paint-order:markers fill stroke"
       id="rect1"
       width="188.56168"
       height="94.304047"
       x="10.25432"
       y="14.382786"
       rx="11.764839"
       ry="14.443328"
       inkscape:export-filename="../png/darkshapes/darkshapes_splash_grey.png"
       inkscape:export-xdpi="172.38"
       inkscape:export-ydpi="172.38" />
    <g
       id="g10"
       transform="matrix(1.8100829,0,0,1.8100829,-253.18421,-625.86676)"
       style="display:inline;fill:#e0dcdf;fill-opacity:1"
       inkscape:export-filename="../darkshapes_logo06d.png"
       inkscape:export-xdpi="116"
       inkscape:export-ydpi="116">
      <g
         id="g5"
         style="display:inline;fill:#e0dcdf;fill-opacity:1">
        <path
           d="m 238.00001,368.21665 -41.28017,6.98407 c 0.2823,0.27145 0.57521,0.51165 0.84853,0.68161 0.51838,0.32237 0.86156,0.52707 2.00659,0.66352 h 38.46742 v -8.39018 c 0,0 -0.0562,0.009 -0.0424,0.061 z"
           style="display:inline;opacity:1;fill:#e0dcdf;fill-opacity:1;stroke-width:5.16257;paint-order:markers fill stroke"
           id="path5"
           sodipodi:nodetypes="cccccccc" />
        <path
           d="m 197.92187,364.21431 c -0.32393,0.0888 -0.56584,0.18957 -0.75396,0.31729 -2.26782,1.53969 -3.12511,6.04475 -1.71566,9.01495 0.1741,0.36689 0.47266,0.78749 0.81855,1.18288 l 41.75611,-9.3493 c -0.003,-0.33303 -0.004,-0.90464 -0.007,-1.16582 z"
           style="display:inline;opacity:1;fill:#e0dcdf;fill-opacity:1;stroke-width:5.16257;paint-order:markers fill stroke"
           id="path3" />
      </g>
      <path
         id="path9"
         style="display:inline;fill:#e0dcdf;fill-opacity:1;stroke:none;stroke-width:5.16257;paint-order:markers fill stroke"
         d="m 166.438,360.77007 c -0.11378,-10e-6 -0.22417,0.009 -0.33331,0.0233 l -0.82424,0.50798 -0.0176,0.0119 -1.96887,1.27848 -1.1467,0.92191 -0.28939,0.24804 c 4.17632,3.51121 8.47799,6.85927 9.01443,7.03678 0.54863,0.18154 0.77353,0.43895 1.23765,0.5116 0.63606,0.0996 1.57512,-0.51298 2.28049,-0.30748 0.3615,0.10546 0.51946,-0.0824 0.87694,0 -1.86152,0.67025 -1.58654,2.14438 -4.12843,2.91817 -0.23472,-0.34062 -0.13705,-0.3487 -0.32246,-0.72967 -0.1925,-0.39568 -0.0736,-0.88677 0.0599,-1.43144 -0.97271,-1.17087 -4.89144,-4.37508 -9.27385,-7.77937 l -0.60255,0.51625 -2.12959,2.49856 -1.31981,1.97197 c -0.11682,0.19946 -0.21818,0.36028 -0.34107,0.57309 l 5.2e-4,8.28012 c 3.01747,0.45445 6.05722,0.87537 7.66103,1.14049 0.58751,0.097 1.12151,-0.37617 1.98437,-1.11621 0.64549,-0.55359 0.60476,-0.50065 1.34411,-1.25522 0.15343,-0.1566 -0.13457,0.4753 -0.21394,0.7922 -0.54349,2.16928 -0.43362,3.77411 -0.009,4.81108 -0.55429,-0.0664 -2.07959,-2.75486 -2.67063,-2.80396 -0.64647,-0.0537 -4.37685,-0.64528 -8.09563,-1.19993 l 5.1e-4,13.4183 c 9.83133,-6.99876 10.93083,-8.44866 10.96161,-8.57364 0.21708,0.59242 0.20743,0.88236 1.04179,1.91823 -3.56598,1.36263 -7.96701,4.12115 -12.0034,6.83163 v 6.97166 h 13.39092 c 0.98149,-2.67158 1.87477,-5.37892 2.39158,-8.12663 0.0298,-0.15869 0.19357,-1.05078 0.30903,-1.85674 0.0755,-0.52732 -0.53035,-1.29018 -0.54726,-1.5136 -0.10275,-0.27671 0.086,-0.6291 0.3576,-1.0051 0.91592,-0.82033 0.51265,-2.34508 1.92702,-2.49081 1.81582,-0.38315 4.13264,3.57993 3.622,4.40697 -0.1967,0.31858 -0.0715,0.10513 -0.40256,0.51935 -0.1341,0.16779 -0.26082,0.37798 -0.44648,0.42271 -0.92948,0.22393 -1.23533,0.46742 -1.47485,0.63459 -0.17851,0.12459 -0.33866,0.27288 -0.50126,0.41806 -2.29749,2.05147 -3.68005,5.23201 -4.69274,8.5912 h 10.1291 l 0.84077,-0.0295 -2.60139,-9.73584 c 1.09796,-0.18823 2.01361,-1.00794 2.81379,-1.49397 -1.17877,0.88493 -1.82917,1.50957 -1.48002,3.00499 l 1.9296,8.20001 c 3.24338,-0.30861 6.05204,-1.93979 8.44496,-4.03437 -2.44186,-2.75872 -5.31476,-5.70923 -8.02225,-7.93389 -0.75915,-0.62379 -1.92162,-1.12727 -2.70371,-1.69808 -1.00791,0.0159 -1.71507,-0.60407 -1.73891,-0.96377 -0.17608,-0.85023 1.30899,-3.13613 2.67787,-2.27531 0.3728,0.23443 1.00618,0.55275 0.9369,1.31671 -0.0242,0.26688 0.31592,0.70833 0.40617,1.02371 0.4286,0.56277 0.74099,1.0528 1.06609,1.53479 0.32511,0.48194 0.663,0.95596 1.01182,1.42214 0.3488,0.4662 0.70783,0.92438 1.07694,1.37459 0.36908,0.45019 0.7478,0.89254 1.13378,1.32653 0.38594,0.43402 0.77893,0.85978 1.17822,1.27745 0.3993,0.41766 0.80489,0.82743 1.2144,1.22834 0.5666,0.55468 1.36782,1.44426 2.04949,2.01022 0.64695,-0.73746 1.54878,-2.09553 2.28358,-3.60908 0.9033,-1.86066 0.97417,-1.93813 0.9741,-1.99575 V 395.23 h 38.46742 c 1.14504,-0.13645 1.48821,-0.34116 2.00659,-0.66353 0.78635,-0.489 1.73861,-1.54018 2.11615,-2.33577 1.40945,-2.97021 0.55216,-7.47527 -1.71565,-9.01496 -0.18812,-0.12772 -0.43003,-0.22846 -0.75396,-0.31729 H 194.7874 l -0.0244,-2.4e-4 -0.004,-7.35383 -9.23406,1.79575 -1.42627,0.2775 c -1.25436,0.22895 -1.64717,0.36298 -2.31924,0.59893 -0.23254,0.0816 -0.42917,0.67767 -0.64596,0.755 -1.17711,0.41985 -1.95924,-1.29544 -1.65726,-2.00867 0.12898,-0.30456 0.34093,-0.76311 1.25315,-0.63355 0.69659,0.72747 2.73704,0.51001 3.20032,0.45579 0.47833,-0.0559 0.93531,-0.11109 1.37305,-0.16537 4.41398,-0.54776 6.89621,-1.02755 9.45627,-1.57716 l -0.002,-4.32429 c -1.20515,-2.87922 -2.8967,-5.45202 -5.18004,-7.22901 -1.88541,2.70525 -3.77263,5.40268 -5.27669,8.29406 -0.40396,0.78701 -1.00711,1.55337 -0.74827,2.45619 l 0.093,0.54673 -0.25373,0.39998 h -1.67277 c -1.83562,-0.29874 -2.17701,-0.98742 -2.6417,-1.97353 -0.19347,-0.36646 -0.23885,-0.39825 0.12092,-0.59324 0.1573,-0.0843 0.35499,-0.18836 0.56018,-0.29094 1.62919,-0.81448 1.34647,-0.24552 2.25929,-0.8139 0.19391,-0.12074 0.41957,-0.28704 0.72192,-0.524 0.21452,-0.16812 0.42544,-0.34434 0.63304,-0.52762 2.23332,-1.97182 4.06065,-4.77654 5.51956,-7.47344 -1.54714,-1.04125 -3.34462,-1.73254 -5.425,-1.93529 -0.84527,-0.0733 -2.04589,-0.12055 -3.60029,-0.15916 l -0.60307,7.45278 c -0.1243,0.91703 0.0646,1.75521 0.42323,2.58175 l 0.30696,0.70848 c -1.25772,-0.69534 -2.15919,-0.91073 -4.11293,-0.81028 0.009,-0.08 0.86396,-0.16302 1.56942,-0.76585 0.0978,-0.0836 0.1852,-0.15904 0.25269,-0.23616 0.27542,-0.31467 0.45104,-0.66847 0.5762,-1.04283 0.13213,-0.39516 0.50731,-1.80447 1.29501,-7.89616 -2.06328,-0.0474 -4.80846,-0.0796 -8.74934,-0.11679 -1.48846,0.005 -2.92145,0.002 -4.38681,0 z"
         sodipodi:nodetypes="cccccccsccccccccccccccsccsccccccccccccssssccccccccccccsscccsccccccccscsccccccccccccccccccccccssscccccccccccccc" />
      <path
         d="m 238.02691,365.38013 c 0.002,0.17168 0.002,0.40909 0.003,0.60099 l 0.008,-0.60358 z"
         style="display:inline;opacity:1;fill:#e0dcdf;fill-opacity:1;stroke-width:0.600001;paint-order:markers fill stroke"
         id="path4" />
    </g>
  </g>
</svg>
