<?xml version="1.0" encoding="UTF-8" standalone="no"?>
<!-- Created with Inkscape (http://www.inkscape.org/) -->

<svg
   width="84.531631mm"
   height="84.531921mm"
   viewBox="0 0 84.531631 84.531921"
   version="1.1"
   id="svg1"
   xmlns:xlink="http://www.w3.org/1999/xlink"
   xmlns="http://www.w3.org/2000/svg"
   xmlns:svg="http://www.w3.org/2000/svg">
  <defs
     id="defs1">
    <pattern
       xlink:href="#pattern105-1-5"
       preserveAspectRatio="xMidYMid"
       id="pattern107-9-7"
       patternTransform="matrix(2.2,0,0,2.2,466.25149,271.55008)" />
    <pattern
       xlink:href="#pattern78-4-0"
       preserveAspectRatio="xMidYMid"
       id="pattern105-1-5"
       patternTransform="matrix(2.2,0,0,2.2,466.25702,141.35541)" />
    <pattern
       xlink:href="#pattern21-1-8-6"
       preserveAspectRatio="xMidYMid"
       id="pattern78-4-0"
       patternTransform="matrix(2.2,0,0,2.2,349.5,182.25)"
       x="-2"
       y="0" />
    <pattern
       patternUnits="userSpaceOnUse"
       width="40"
       height="40"
       patternTransform="translate(349.5,182.25)"
       preserveAspectRatio="xMidYMid"
       id="pattern21-1-8-6"
       style="fill:#575757">
      <path
         id="path19-0-8-4"
         style="stroke-width:4.8561;stroke-linecap:square;paint-order:stroke markers fill;stop-color:#000000"
         d="M 10,0 C 4.47715,0 0,4.47715 0,10 V 20 H 10 C 15.52285,20 20,15.52285 20,10 20,4.47715 15.52285,0 10,0 Z M 30,0 C 24.47715,0 20,4.47715 20,10 V 20 H 30 C 35.52285,20 40,15.52285 40,10 40,4.47715 35.52285,0 30,0 Z M 10,40 c 5.52285,0 10,-4.47715 10,-10 V 20 H 10 C 4.47715,20 0,24.47715 0,30 0,35.52285 4.47715,40 10,40 Z m 20,0 c 5.52285,0 10,-4.47715 10,-10 V 20 H 30 c -5.52285,0 -10,4.47715 -10,10 0,5.52285 4.47715,10 10,10 z" />
    </pattern>
  </defs>
  <g
     id="layer1"
     transform="translate(-156.22387,-426.7838)">
    <rect
       style="opacity:0.00100002;fill:none;fill-opacity:1;stroke:#000000;stroke-width:0.0001;stroke-dasharray:none;paint-order:markers fill stroke"
       id="rect6"
       width="84.53154"
       height="84.531837"
       x="156.22391"
       y="426.78384"
       rx="0"
       ry="0" />
  </g>
  <g
     id="layer2"
     style="display:inline"
     transform="translate(-156.22387,-426.7838)">
    <g
       id="g10"
       transform="translate(0.86371743,89.287283)"
       style="display:inline">
      <g
         id="g5"
         style="display:inline;fill:#101010;fill-opacity:1" />
      <path
         d="m 166.43751,361.05425 c -1.17182,3.2e-4 -4.88611,1.88936 -8.88679,7.9127 0,0 -0.21818,0.36028 -0.34107,0.57309 l 10e-4,29.21475 h 24.06209 c 2.91019,0.0607 5.29977,-0.95791 6.72414,-1.76578 1.14812,-0.65119 2.2224,-1.44651 3.22358,-2.32286 0,0 0.28382,-0.34368 0.2868,-0.35656 0.64695,-0.73746 1.54878,-2.09554 2.28358,-3.60909 0.9033,-1.86066 0.97417,-1.93812 0.9741,-1.99574 v 6.52518 h 38.46742 c 5.93238,-0.70694 5.91113,-9.63524 2.40709,-12.01425 -0.18812,-0.12772 -0.43003,-0.22846 -0.75396,-0.31729 h -40.09833 -0.0243 c 0.0174,-3.87797 0.0332,-7.75595 0.051,-11.63392 0.22452,1.91571 1.18215,4.6739 4.76146,5.28133 h 38.46742 c -0.002,-4.11052 0.0118,-8.22112 -0.0227,-12.33154 H 197.9219 c -1.88837,0.51766 -3.26684,3.43924 -3.16053,6.37067 -0.14151,-0.32499 -0.30476,-0.65325 -0.48525,-0.98186 -1.39977,-2.54861 -3.80933,-5.10603 -4.69945,-6.11383 0,0 -0.67385,-0.5055 -0.68523,-0.49972 -1.54714,-1.04125 -3.34461,-1.73253 -5.42499,-1.93528 -0.84524,-0.0733 -15.56215,0.002 -17.02842,0 z"
         style="display:inline;fill:#575757;fill-opacity:1;stroke-width:5.16257;paint-order:markers fill stroke"
         id="path5" />
      <path
         d="m 238.02691,365.38013 c 0.002,0.17168 0.002,0.40909 0.003,0.60099 l 0.008,-0.60358 z"
         style="display:inline;opacity:1;fill:none;stroke-width:0.600001;paint-order:markers fill stroke"
         id="path4" />
    </g>
  </g>
  <g
     id="layer3"
     style="display:none">
    <path
       d="m 188.68831,452.38403 c -0.76863,-0.51526 -1.60857,-0.96607 -2.5523,-1.34566 -1.4119,-0.56789 -2.26835,-0.77538 -6.46627,-0.88832 l -0.37207,4.59714 c -0.15508,1.14411 0.0802,2.18978 0.52761,3.22099 l 0.38292,0.88367 c -1.56915,-0.86751 -2.69343,-1.13612 -5.13095,-1.01079 0.0106,-0.0999 1.07736,-0.20286 1.9575,-0.95498 0.12198,-0.10427 0.23104,-0.19888 0.31523,-0.29508 0.34362,-0.39261 0.56318,-0.83415 0.71934,-1.30121 0.1223,-0.36579 0.43048,-1.60836 0.96583,-5.15472 -2.06412,-0.0475 -4.78567,-0.08 -8.73228,-0.11731 l -11.66131,-0.11007 c 4.8542,4.03942 9.56173,7.69028 10.18543,7.89668 0.68448,0.22649 0.96556,0.54756 1.54461,0.6382 0.79354,0.12428 1.96527,-0.63984 2.8453,-0.38344 0.451,0.13153 0.648,-0.10286 1.09399,0 -2.3225,0.83623 -1.97929,2.6752 -5.15059,3.64061 -0.29286,-0.42498 -0.17123,-0.43474 -0.40256,-0.91003 -0.24016,-0.49366 -0.0915,-1.10639 0.0749,-1.78593 -1.15577,-1.39123 -5.6499,-5.08765 -10.79004,-9.10177 l -1.35495,-0.0129 v 17.3979 c 1.88229,0.27392 3.55001,0.5185 4.65243,0.70073 0.73297,0.12109 1.39925,-0.46939 2.47581,-1.39268 0.80532,-0.69068 0.75448,-0.62488 1.6769,-1.56631 0.19143,-0.19537 -0.16815,0.5932 -0.26716,0.98857 -0.67807,2.70645 -0.54088,4.70849 -0.0103,6.00222 -0.69154,-0.0829 -2.59469,-3.43672 -3.3321,-3.49798 -0.50025,-0.0416 -2.6507,-0.36723 -5.19554,-0.75551 v 1.25626 11.20345 c 7.77852,-5.72261 8.73897,-7.02491 8.77155,-7.15719 0.27083,0.73911 0.25921,1.10128 1.30018,2.39365 -3.03042,1.15798 -6.54625,3.12389 -10.07173,5.32836 v 7.36493 l 13.38729,-0.14625 c 0.55853,-1.80901 1.054,-3.62894 1.3994,-5.4653 0.0372,-0.19798 0.24093,-1.3106 0.38499,-2.31614 0.0942,-0.6579 -0.66155,-1.60947 -0.68265,-1.88825 -0.12817,-0.34523 0.10713,-0.78509 0.44597,-1.25419 1.1427,-1.02346 0.63992,-2.92601 2.40451,-3.10782 2.26543,-0.47803 5.15619,4.46706 4.5191,5.49889 -0.2454,0.39748 -0.0898,0.13074 -0.50281,0.6475 -0.16729,0.20934 -0.32544,0.4713 -0.55707,0.5271 -1.15963,0.27938 -1.54085,0.58364 -1.83968,0.7922 -0.22272,0.15544 -0.42295,0.34028 -0.62581,0.52142 -1.76042,1.57191 -3.09109,3.67603 -4.15013,6.03477 4.99395,-0.0551 8.3175,-0.10674 10.67222,-0.25425 l -1.9358,-7.24503 c 1.36984,-0.23485 2.51208,-1.2581 3.51038,-1.86449 -1.47064,1.10406 -2.28252,1.88395 -1.84692,3.74964 l 1.25315,5.28547 c 3.6972,-0.31814 4.7439,-0.99723 6.95979,-2.67115 0.47004,-0.35509 0.87233,-0.72936 1.25212,-1.12293 -2.0934,-2.21754 -4.25351,-4.32038 -6.53242,-6.19291 -0.94714,-0.77825 -2.39716,-1.40656 -3.37292,-2.11873 -1.25748,0.0198 -2.13964,-0.75323 -2.16938,-1.20199 -0.21968,-1.06076 1.63305,-3.91308 3.34088,-2.83911 0.46512,0.29249 1.25535,0.68965 1.16892,1.6428 -0.0303,0.33298 0.39384,0.88397 0.50643,1.27744 0.53473,0.70215 0.92454,1.31328 1.33015,1.91461 0.4056,0.60131 0.82728,1.19243 1.26246,1.77405 0.43518,0.58164 0.8836,1.15345 1.3441,1.71514 0.46048,0.56167 0.93285,1.11375 1.41439,1.6552 0.48151,0.54149 0.97202,1.07261 1.47019,1.5937 0.16231,0.16977 0.32966,0.33157 0.49351,0.49919 0.675,-0.75821 1.26227,-1.63289 1.87069,-2.82566 l 1.39113,-2.72749 v -8.99325 -4.47311 l -7.14582,1.38958 -1.78025,0.34572 c -1.56497,0.28564 -2.05487,0.45339 -2.89337,0.74776 -0.29011,0.10179 -0.53516,0.84506 -0.80563,0.94154 -1.46859,0.52382 -2.44483,-1.61596 -2.06809,-2.50579 0.16093,-0.37998 0.42561,-0.95178 1.56373,-0.79013 0.86907,0.90759 3.4145,0.63608 3.99252,0.56844 0.59678,-0.0697 1.16692,-0.13848 1.71307,-0.20619 3.11378,-0.38643 5.4077,-0.74334 7.42384,-1.10381 v -3.90674 l -1.30846,-2.65825 c -0.94927,-1.92825 -2.12002,-3.41549 -3.62303,-4.57233 -1.34777,2.01898 -2.63019,4.06922 -3.74189,6.20633 -0.50403,0.98189 -1.25622,1.93856 -0.93328,3.06493 l 0.11524,0.68162 -0.31575,0.49919 h -2.08772 c -2.29016,-0.3727 -2.71565,-1.23158 -3.29541,-2.46186 -0.24137,-0.4572 -0.29794,-0.49674 0.1509,-0.74001 0.19625,-0.10516 0.44267,-0.23531 0.69866,-0.36329 2.03265,-1.01618 1.67959,-0.30632 2.81843,-1.01544 0.24191,-0.15066 0.52402,-0.35808 0.90124,-0.65371 0.26764,-0.20975 0.53062,-0.4297 0.78962,-0.65835 1.58517,-1.39957 2.99777,-3.14537 4.26589,-5.00176 z"
       style="display:none;fill:url(#pattern107-9-7);stroke-width:1.38378;paint-order:markers fill stroke"
       id="path1"
       transform="translate(-156.22387,-426.78379)" />
  </g>
</svg>
