<?xml version="1.0" encoding="UTF-8" standalone="no"?>
<!-- Created with Inkscape (http://www.inkscape.org/) -->

<svg
   width="84.531631mm"
   height="84.531921mm"
   viewBox="0 0 84.531631 84.531921"
   version="1.1"
   id="svg1"
   inkscape:version="1.3.2 (091e20e, 2023-11-25)"
   sodipodi:docname="darkshapes_logo08.svg"
   inkscape:export-filename="../../logos &amp; type/darkshapes_logo07f.png"
   inkscape:export-xdpi="116"
   inkscape:export-ydpi="116"
   xmlns:inkscape="http://www.inkscape.org/namespaces/inkscape"
   xmlns:sodipodi="http://sodipodi.sourceforge.net/DTD/sodipodi-0.dtd"
   xmlns:xlink="http://www.w3.org/1999/xlink"
   xmlns="http://www.w3.org/2000/svg"
   xmlns:svg="http://www.w3.org/2000/svg">
  <sodipodi:namedview
     id="namedview1"
     pagecolor="#505050"
     bordercolor="#eeeeee"
     borderopacity="1"
     inkscape:showpageshadow="0"
     inkscape:pageopacity="0"
     inkscape:pagecheckerboard="0"
     inkscape:deskcolor="#505050"
     inkscape:document-units="mm"
     inkscape:zoom="1.2913303"
     inkscape:cx="165.72058"
     inkscape:cy="104.54335"
     inkscape:window-width="1264"
     inkscape:window-height="332"
     inkscape:window-x="67"
     inkscape:window-y="1724"
     inkscape:window-maximized="0"
     inkscape:current-layer="layer1"
     showguides="true"
     showgrid="false" />
  <defs
     id="defs1">
    <pattern
       inkscape:collect="always"
       xlink:href="#pattern105-1-5"
       preserveAspectRatio="xMidYMid"
       id="pattern107-9-7"
       patternTransform="matrix(2.2,0,0,2.2,466.25149,271.55008)" />
    <pattern
       inkscape:collect="always"
       xlink:href="#pattern78-4-0"
       preserveAspectRatio="xMidYMid"
       id="pattern105-1-5"
       patternTransform="matrix(2.2,0,0,2.2,466.25702,141.35541)" />
    <pattern
       inkscape:collect="always"
       xlink:href="#pattern21-1-8-6"
       preserveAspectRatio="xMidYMid"
       id="pattern78-4-0"
       patternTransform="matrix(2.2,0,0,2.2,349.5,182.25)"
       x="-2"
       y="0" />
    <pattern
       patternUnits="userSpaceOnUse"
       width="40"
       height="40"
       patternTransform="translate(349.5,182.25)"
       preserveAspectRatio="xMidYMid"
       id="pattern21-1-8-6"
       style="fill:#575757"
       inkscape:label="Abstract fill 3"
       inkscape:collect="always"
       inkscape:isstock="true">
      <path
         id="path19-0-8-4"
         style="stroke-width:4.8561;stroke-linecap:square;paint-order:stroke markers fill;stop-color:#000000"
         d="M 10,0 C 4.47715,0 0,4.47715 0,10 V 20 H 10 C 15.52285,20 20,15.52285 20,10 20,4.47715 15.52285,0 10,0 Z M 30,0 C 24.47715,0 20,4.47715 20,10 V 20 H 30 C 35.52285,20 40,15.52285 40,10 40,4.47715 35.52285,0 30,0 Z M 10,40 c 5.52285,0 10,-4.47715 10,-10 V 20 H 10 C 4.47715,20 0,24.47715 0,30 0,35.52285 4.47715,40 10,40 Z m 20,0 c 5.52285,0 10,-4.47715 10,-10 V 20 H 30 c -5.52285,0 -10,4.47715 -10,10 0,5.52285 4.47715,10 10,10 z" />
    </pattern>
  </defs>
  <g
     inkscape:label="Layer 1"
     inkscape:groupmode="layer"
     id="layer1"
     transform="translate(-156.22387,-426.7838)">
    <rect
       style="opacity:1;fill:#191c1e;fill-opacity:1;stroke:none;stroke-width:0.0001;stroke-dasharray:none;paint-order:markers fill stroke"
       id="rect6"
       width="84.53154"
       height="84.531837"
       x="156.22391"
       y="426.78384"
       rx="0"
       ry="0"
       inkscape:export-filename="../darkshapes_logo06c.png"
       inkscape:export-xdpi="116"
       inkscape:export-ydpi="116"
       inkscape:label="rect104" />
  </g>
  <g
     inkscape:groupmode="layer"
     id="layer2"
     inkscape:label="Layer 2"
     style="display:inline"
     transform="translate(-156.22387,-426.7838)">
    <g
       id="g10"
       transform="translate(0.86371743,89.287283)"
       style="display:inline;fill:#e0dcdf;fill-opacity:1"
       inkscape:export-filename="../darkshapes_logo06d.png"
       inkscape:export-xdpi="116"
       inkscape:export-ydpi="116">
      <g
         id="g5"
         style="display:inline;fill:#e0dcdf;fill-opacity:1">
        <path
           d="m 238.00001,368.21665 -41.28017,6.98407 c 0.2823,0.27145 0.57521,0.51165 0.84853,0.68161 0.51838,0.32237 0.86156,0.52707 2.00659,0.66352 h 38.46742 v -8.39018 c 0,0 -0.0562,0.009 -0.0424,0.061 z"
           style="display:inline;opacity:1;fill:#e0dcdf;stroke-width:5.16257;paint-order:markers fill stroke;fill-opacity:1"
           id="path5"
           sodipodi:nodetypes="cccccccc" />
        <path
           d="m 197.92187,364.21431 c -0.32393,0.0888 -0.56584,0.18957 -0.75396,0.31729 -2.26782,1.53969 -3.12511,6.04475 -1.71566,9.01495 0.1741,0.36689 0.47266,0.78749 0.81855,1.18288 l 41.75611,-9.3493 c -0.003,-0.33303 -0.004,-0.90464 -0.007,-1.16582 z"
           style="display:inline;opacity:1;fill:#e0dcdf;stroke-width:5.16257;paint-order:markers fill stroke;fill-opacity:1"
           id="path3" />
      </g>
      <path
         id="path9"
         style="display:inline;fill:#e0dcdf;fill-opacity:1;stroke:none;stroke-width:5.16257;paint-order:markers fill stroke"
         d="m 166.438,360.77007 c -0.11378,-10e-6 -0.22417,0.009 -0.33331,0.0233 l -0.82424,0.50798 -0.0176,0.0119 -1.96887,1.27848 -1.1467,0.92191 -0.28939,0.24804 c 4.17632,3.51121 8.47799,6.85927 9.01443,7.03678 0.54863,0.18154 0.77353,0.43895 1.23765,0.5116 0.63606,0.0996 1.57512,-0.51298 2.28049,-0.30748 0.3615,0.10546 0.51946,-0.0824 0.87694,0 -1.86152,0.67025 -1.58654,2.14438 -4.12843,2.91817 -0.23472,-0.34062 -0.13705,-0.3487 -0.32246,-0.72967 -0.1925,-0.39568 -0.0736,-0.88677 0.0599,-1.43144 -0.97271,-1.17087 -4.89144,-4.37508 -9.27385,-7.77937 l -0.60255,0.51625 -2.12959,2.49856 -1.31981,1.97197 c -0.11682,0.19946 -0.21818,0.36028 -0.34107,0.57309 l 5.2e-4,8.28012 c 3.01747,0.45445 6.05722,0.87537 7.66103,1.14049 0.58751,0.097 1.12151,-0.37617 1.98437,-1.11621 0.64549,-0.55359 0.60476,-0.50065 1.34411,-1.25522 0.15343,-0.1566 -0.13457,0.4753 -0.21394,0.7922 -0.54349,2.16928 -0.43362,3.77411 -0.009,4.81108 -0.55429,-0.0664 -2.07959,-2.75486 -2.67063,-2.80396 -0.64647,-0.0537 -4.37685,-0.64528 -8.09563,-1.19993 l 5.1e-4,13.4183 c 9.83133,-6.99876 10.93083,-8.44866 10.96161,-8.57364 0.21708,0.59242 0.20743,0.88236 1.04179,1.91823 -3.56598,1.36263 -7.96701,4.12115 -12.0034,6.83163 v 6.97166 h 13.39092 c 0.98149,-2.67158 1.87477,-5.37892 2.39158,-8.12663 0.0298,-0.15869 0.19357,-1.05078 0.30903,-1.85674 0.0755,-0.52732 -0.53035,-1.29018 -0.54726,-1.5136 -0.10275,-0.27671 0.086,-0.6291 0.3576,-1.0051 0.91592,-0.82033 0.51265,-2.34508 1.92702,-2.49081 1.81582,-0.38315 4.13264,3.57993 3.622,4.40697 -0.1967,0.31858 -0.0715,0.10513 -0.40256,0.51935 -0.1341,0.16779 -0.26082,0.37798 -0.44648,0.42271 -0.92948,0.22393 -1.23533,0.46742 -1.47485,0.63459 -0.17851,0.12459 -0.33866,0.27288 -0.50126,0.41806 -2.29749,2.05147 -3.68005,5.23201 -4.69274,8.5912 h 10.1291 l 0.84077,-0.0295 -2.60139,-9.73584 c 1.09796,-0.18823 2.01361,-1.00794 2.81379,-1.49397 -1.17877,0.88493 -1.82917,1.50957 -1.48002,3.00499 l 1.9296,8.20001 c 3.24338,-0.30861 6.05204,-1.93979 8.44496,-4.03437 -2.44186,-2.75872 -5.31476,-5.70923 -8.02225,-7.93389 -0.75915,-0.62379 -1.92162,-1.12727 -2.70371,-1.69808 -1.00791,0.0159 -1.71507,-0.60407 -1.73891,-0.96377 -0.17608,-0.85023 1.30899,-3.13613 2.67787,-2.27531 0.3728,0.23443 1.00618,0.55275 0.9369,1.31671 -0.0242,0.26688 0.31592,0.70833 0.40617,1.02371 0.4286,0.56277 0.74099,1.0528 1.06609,1.53479 0.32511,0.48194 0.663,0.95596 1.01182,1.42214 0.3488,0.4662 0.70783,0.92438 1.07694,1.37459 0.36908,0.45019 0.7478,0.89254 1.13378,1.32653 0.38594,0.43402 0.77893,0.85978 1.17822,1.27745 0.3993,0.41766 0.80489,0.82743 1.2144,1.22834 0.5666,0.55468 1.36782,1.44426 2.04949,2.01022 0.64695,-0.73746 1.54878,-2.09553 2.28358,-3.60908 0.9033,-1.86066 0.97417,-1.93813 0.9741,-1.99575 V 395.23 h 38.46742 c 1.14504,-0.13645 1.48821,-0.34116 2.00659,-0.66353 0.78635,-0.489 1.73861,-1.54018 2.11615,-2.33577 1.40945,-2.97021 0.55216,-7.47527 -1.71565,-9.01496 -0.18812,-0.12772 -0.43003,-0.22846 -0.75396,-0.31729 H 194.7874 l -0.0244,-2.4e-4 -0.004,-7.35383 -9.23406,1.79575 -1.42627,0.2775 c -1.25436,0.22895 -1.64717,0.36298 -2.31924,0.59893 -0.23254,0.0816 -0.42917,0.67767 -0.64596,0.755 -1.17711,0.41985 -1.95924,-1.29544 -1.65726,-2.00867 0.12898,-0.30456 0.34093,-0.76311 1.25315,-0.63355 0.69659,0.72747 2.73704,0.51001 3.20032,0.45579 0.47833,-0.0559 0.93531,-0.11109 1.37305,-0.16537 4.41398,-0.54776 6.89621,-1.02755 9.45627,-1.57716 l -0.002,-4.32429 c -1.20515,-2.87922 -2.8967,-5.45202 -5.18004,-7.22901 -1.88541,2.70525 -3.77263,5.40268 -5.27669,8.29406 -0.40396,0.78701 -1.00711,1.55337 -0.74827,2.45619 l 0.093,0.54673 -0.25373,0.39998 h -1.67277 c -1.83562,-0.29874 -2.17701,-0.98742 -2.6417,-1.97353 -0.19347,-0.36646 -0.23885,-0.39825 0.12092,-0.59324 0.1573,-0.0843 0.35499,-0.18836 0.56018,-0.29094 1.62919,-0.81448 1.34647,-0.24552 2.25929,-0.8139 0.19391,-0.12074 0.41957,-0.28704 0.72192,-0.524 0.21452,-0.16812 0.42544,-0.34434 0.63304,-0.52762 2.23332,-1.97182 4.06065,-4.77654 5.51956,-7.47344 -1.54714,-1.04125 -3.34462,-1.73254 -5.425,-1.93529 -0.84527,-0.0733 -2.04589,-0.12055 -3.60029,-0.15916 l -0.60307,7.45278 c -0.1243,0.91703 0.0646,1.75521 0.42323,2.58175 l 0.30696,0.70848 c -1.25772,-0.69534 -2.15919,-0.91073 -4.11293,-0.81028 0.009,-0.08 0.86396,-0.16302 1.56942,-0.76585 0.0978,-0.0836 0.1852,-0.15904 0.25269,-0.23616 0.27542,-0.31467 0.45104,-0.66847 0.5762,-1.04283 0.13213,-0.39516 0.50731,-1.80447 1.29501,-7.89616 -2.06328,-0.0474 -4.80846,-0.0796 -8.74934,-0.11679 -1.48846,0.005 -2.92145,0.002 -4.38681,0 z"
         sodipodi:nodetypes="cccccccsccccccccccccccsccsccccccccccccssssccccccccccccsscccsccccccccscsccccccccccccccccccccccssscccccccccccccc" />
      <path
         d="m 238.02691,365.38013 c 0.002,0.17168 0.002,0.40909 0.003,0.60099 l 0.008,-0.60358 z"
         style="display:inline;opacity:1;fill:#e0dcdf;stroke-width:0.600001;paint-order:markers fill stroke;fill-opacity:1"
         id="path4" />
    </g>
  </g>
  <g
     inkscape:groupmode="layer"
     id="layer3"
     inkscape:label="Layer 3"
     style="display:none">
    <g
       id="g2"
       style="display:none"
       transform="translate(-156.7404,-337.52396)">
      <path
         d="m 238.0412,368.30103 -42.05893,6.67608 c 0.33441,0.51094 0.72967,0.94286 1.18442,1.25161 0.18812,0.12771 0.43003,0.22846 0.75396,0.31729 h 40.09833 c 0.008,-0.88298 0.0222,-2.16045 0.0222,-3.94136 z"
         style="display:none;fill:#575757;fill-opacity:1;stroke-width:5.16257;paint-order:markers fill stroke"
         id="path6" />
      <path
         d="m 199.57378,364.21446 c -1.14504,0.13645 -1.48822,0.34116 -2.0066,0.66353 -0.78635,0.489 -1.73861,1.54017 -2.11615,2.33577 -0.85677,1.80551 -0.87245,4.17439 -0.2453,6.10222 0.11259,0.34611 0.62663,1.18563 0.77951,1.49749 l 16.53713,-3.97357 25.51886,-5.40019 v -1.22525 z"
         style="display:none;fill:#575757;fill-opacity:1;stroke-width:5.16257;paint-order:markers fill stroke"
         id="path7"
         sodipodi:nodetypes="cccsccccc" />
    </g>
    <path
       d="m 188.68831,452.38403 c -0.76863,-0.51526 -1.60857,-0.96607 -2.5523,-1.34566 -1.4119,-0.56789 -2.26835,-0.77538 -6.46627,-0.88832 l -0.37207,4.59714 c -0.15508,1.14411 0.0802,2.18978 0.52761,3.22099 l 0.38292,0.88367 c -1.56915,-0.86751 -2.69343,-1.13612 -5.13095,-1.01079 0.0106,-0.0999 1.07736,-0.20286 1.9575,-0.95498 0.12198,-0.10427 0.23104,-0.19888 0.31523,-0.29508 0.34362,-0.39261 0.56318,-0.83415 0.71934,-1.30121 0.1223,-0.36579 0.43048,-1.60836 0.96583,-5.15472 -2.06412,-0.0475 -4.78567,-0.08 -8.73228,-0.11731 l -11.66131,-0.11007 c 4.8542,4.03942 9.56173,7.69028 10.18543,7.89668 0.68448,0.22649 0.96556,0.54756 1.54461,0.6382 0.79354,0.12428 1.96527,-0.63984 2.8453,-0.38344 0.451,0.13153 0.648,-0.10286 1.09399,0 -2.3225,0.83623 -1.97929,2.6752 -5.15059,3.64061 -0.29286,-0.42498 -0.17123,-0.43474 -0.40256,-0.91003 -0.24016,-0.49366 -0.0915,-1.10639 0.0749,-1.78593 -1.15577,-1.39123 -5.6499,-5.08765 -10.79004,-9.10177 l -1.35495,-0.0129 v 17.3979 c 1.88229,0.27392 3.55001,0.5185 4.65243,0.70073 0.73297,0.12109 1.39925,-0.46939 2.47581,-1.39268 0.80532,-0.69068 0.75448,-0.62488 1.6769,-1.56631 0.19143,-0.19537 -0.16815,0.5932 -0.26716,0.98857 -0.67807,2.70645 -0.54088,4.70849 -0.0103,6.00222 -0.69154,-0.0829 -2.59469,-3.43672 -3.3321,-3.49798 -0.50025,-0.0416 -2.6507,-0.36723 -5.19554,-0.75551 v 1.25626 11.20345 c 7.77852,-5.72261 8.73897,-7.02491 8.77155,-7.15719 0.27083,0.73911 0.25921,1.10128 1.30018,2.39365 -3.03042,1.15798 -6.54625,3.12389 -10.07173,5.32836 v 7.36493 l 13.38729,-0.14625 c 0.55853,-1.80901 1.054,-3.62894 1.3994,-5.4653 0.0372,-0.19798 0.24093,-1.3106 0.38499,-2.31614 0.0942,-0.6579 -0.66155,-1.60947 -0.68265,-1.88825 -0.12817,-0.34523 0.10713,-0.78509 0.44597,-1.25419 1.1427,-1.02346 0.63992,-2.92601 2.40451,-3.10782 2.26543,-0.47803 5.15619,4.46706 4.5191,5.49889 -0.2454,0.39748 -0.0898,0.13074 -0.50281,0.6475 -0.16729,0.20934 -0.32544,0.4713 -0.55707,0.5271 -1.15963,0.27938 -1.54085,0.58364 -1.83968,0.7922 -0.22272,0.15544 -0.42295,0.34028 -0.62581,0.52142 -1.76042,1.57191 -3.09109,3.67603 -4.15013,6.03477 4.99395,-0.0551 8.3175,-0.10674 10.67222,-0.25425 l -1.9358,-7.24503 c 1.36984,-0.23485 2.51208,-1.2581 3.51038,-1.86449 -1.47064,1.10406 -2.28252,1.88395 -1.84692,3.74964 l 1.25315,5.28547 c 3.6972,-0.31814 4.7439,-0.99723 6.95979,-2.67115 0.47004,-0.35509 0.87233,-0.72936 1.25212,-1.12293 -2.0934,-2.21754 -4.25351,-4.32038 -6.53242,-6.19291 -0.94714,-0.77825 -2.39716,-1.40656 -3.37292,-2.11873 -1.25748,0.0198 -2.13964,-0.75323 -2.16938,-1.20199 -0.21968,-1.06076 1.63305,-3.91308 3.34088,-2.83911 0.46512,0.29249 1.25535,0.68965 1.16892,1.6428 -0.0303,0.33298 0.39384,0.88397 0.50643,1.27744 0.53473,0.70215 0.92454,1.31328 1.33015,1.91461 0.4056,0.60131 0.82728,1.19243 1.26246,1.77405 0.43518,0.58164 0.8836,1.15345 1.3441,1.71514 0.46048,0.56167 0.93285,1.11375 1.41439,1.6552 0.48151,0.54149 0.97202,1.07261 1.47019,1.5937 0.16231,0.16977 0.32966,0.33157 0.49351,0.49919 0.675,-0.75821 1.26227,-1.63289 1.87069,-2.82566 l 1.39113,-2.72749 v -8.99325 -4.47311 l -7.14582,1.38958 -1.78025,0.34572 c -1.56497,0.28564 -2.05487,0.45339 -2.89337,0.74776 -0.29011,0.10179 -0.53516,0.84506 -0.80563,0.94154 -1.46859,0.52382 -2.44483,-1.61596 -2.06809,-2.50579 0.16093,-0.37998 0.42561,-0.95178 1.56373,-0.79013 0.86907,0.90759 3.4145,0.63608 3.99252,0.56844 0.59678,-0.0697 1.16692,-0.13848 1.71307,-0.20619 3.11378,-0.38643 5.4077,-0.74334 7.42384,-1.10381 v -3.90674 l -1.30846,-2.65825 c -0.94927,-1.92825 -2.12002,-3.41549 -3.62303,-4.57233 -1.34777,2.01898 -2.63019,4.06922 -3.74189,6.20633 -0.50403,0.98189 -1.25622,1.93856 -0.93328,3.06493 l 0.11524,0.68162 -0.31575,0.49919 h -2.08772 c -2.29016,-0.3727 -2.71565,-1.23158 -3.29541,-2.46186 -0.24137,-0.4572 -0.29794,-0.49674 0.1509,-0.74001 0.19625,-0.10516 0.44267,-0.23531 0.69866,-0.36329 2.03265,-1.01618 1.67959,-0.30632 2.81843,-1.01544 0.24191,-0.15066 0.52402,-0.35808 0.90124,-0.65371 0.26764,-0.20975 0.53062,-0.4297 0.78962,-0.65835 1.58517,-1.39957 2.99777,-3.14537 4.26589,-5.00176 z"
       style="display:none;fill:url(#pattern107-9-7);stroke-width:1.38378;paint-order:markers fill stroke"
       id="path1"
       inkscape:label="path1"
       transform="translate(-156.22387,-426.78379)" />
  </g>
</svg>
