<?xml version="1.0" encoding="UTF-8" standalone="no"?>
<!-- Created with Inkscape (http://www.inkscape.org/) -->

<svg
   width="210mm"
   height="297mm"
   viewBox="0 0 210 297"
   version="1.1"
   id="svg1"
   inkscape:version="1.4.2 (ebf0e940, 2025-05-08)"
   sodipodi:docname="mir_seal.svg"
   xml:space="preserve"
   inkscape:export-filename="mir0c21c.png"
   inkscape:export-xdpi="300"
   inkscape:export-ydpi="300"
   xmlns:inkscape="http://www.inkscape.org/namespaces/inkscape"
   xmlns:sodipodi="http://sodipodi.sourceforge.net/DTD/sodipodi-0.dtd"
   xmlns="http://www.w3.org/2000/svg"
   xmlns:svg="http://www.w3.org/2000/svg"><sodipodi:namedview
     id="namedview1"
     pagecolor="#505050"
     bordercolor="#eeeeee"
     borderopacity="1"
     inkscape:showpageshadow="0"
     inkscape:pageopacity="0"
     inkscape:pagecheckerboard="0"
     inkscape:deskcolor="#505050"
     inkscape:document-units="mm"
     inkscape:zoom="0.8279002"
     inkscape:cx="352.69952"
     inkscape:cy="835.84954"
     inkscape:window-width="1728"
     inkscape:window-height="1051"
     inkscape:window-x="0"
     inkscape:window-y="758"
     inkscape:window-maximized="1"
     inkscape:current-layer="g7"
     showguides="true"
     inkscape:export-bgcolor="#ffffff00"
     showgrid="false" /><defs
     id="defs1"><rect
       x="566.70022"
       y="988.94744"
       width="163.89859"
       height="95.839008"
       id="rect6" /><rect
       x="4910.2099"
       y="2007.8612"
       width="620.87952"
       height="39.98885"
       id="rect8043" /><rect
       x="308.0219"
       y="409.09159"
       width="169.05108"
       height="142.58045"
       id="rect1180" /><rect
       x="1336.4575"
       y="1049.7528"
       width="145.59927"
       height="106.05379"
       id="rect460" /><rect
       x="308.0219"
       y="409.09159"
       width="169.05108"
       height="142.58045"
       id="rect1187" /><rect
       x="308.0219"
       y="409.09159"
       width="169.05108"
       height="142.58045"
       id="rect1189" /><rect
       x="308.0219"
       y="409.09159"
       width="169.05108"
       height="142.58045"
       id="rect1191" /><rect
       x="308.0219"
       y="409.09159"
       width="169.05108"
       height="142.58045"
       id="rect1193" /><rect
       x="308.0219"
       y="409.09159"
       width="169.05108"
       height="142.58045"
       id="rect1195" /><rect
       x="308.0219"
       y="409.09159"
       width="169.05108"
       height="142.58045"
       id="rect8077" /><rect
       x="308.0219"
       y="409.09159"
       width="169.05108"
       height="142.58045"
       id="rect8093" /><rect
       x="308.0219"
       y="409.09159"
       width="169.05108"
       height="142.58045"
       id="rect8095" /><rect
       x="308.0219"
       y="409.09159"
       width="169.05108"
       height="142.58045"
       id="rect8097" /></defs><g
     inkscape:label="Layer 1"
     inkscape:groupmode="layer"
     id="layer1"><g
       id="g746"
       transform="translate(-5.7170272,4.8847065)"
       inkscape:export-filename="../mir/g746.png"
       inkscape:export-xdpi="300"
       inkscape:export-ydpi="300" /></g><g
     inkscape:groupmode="layer"
     id="layer7"
     inkscape:label="Layer 7" /><g
     inkscape:groupmode="layer"
     id="layer4"
     inkscape:label="Layer 4" /><g
     inkscape:groupmode="layer"
     id="layer3"
     inkscape:label="Layer 3" /><g
     inkscape:groupmode="layer"
     id="layer2"
     inkscape:label="Layer 2"><rect
       style="fill:none;fill-opacity:1;stroke:#ffffff;stroke-width:1.13217;stroke-dasharray:none;stroke-opacity:0.00785343;paint-order:markers stroke fill"
       id="rect746"
       width="199.20844"
       height="200.01871"
       x="6.5573263"
       y="1.3406432"
       inkscape:export-filename="/Users/unauthorized/Documents/GitHub/exdysa/rect746c2ac.png"
       inkscape:export-xdpi="300"
       inkscape:export-ydpi="300" /><text
       xml:space="preserve"
       style="font-style:normal;font-variant:normal;font-weight:normal;font-stretch:normal;font-size:7.05556px;font-family:'Hiragino Sans GB';-inkscape-font-specification:'Hiragino Sans GB, @wght=400';font-variant-ligatures:normal;font-variant-caps:normal;font-variant-numeric:normal;font-variant-east-asian:normal;font-variation-settings:'wght' 400;text-align:start;letter-spacing:0.926042px;writing-mode:lr-tb;direction:ltr;text-anchor:start;fill:#ffffff;fill-opacity:1;stroke:#ffffff;stroke-width:0.0649999;stroke-opacity:1;paint-order:markers stroke fill"
       x="1486.2654"
       y="518.43878"
       id="text8020"><tspan
         sodipodi:role="line"
         id="tspan8020"
         style="stroke-width:0.065" /></text><text
       xml:space="preserve"
       transform="scale(0.26458333)"
       id="text8043"
       style="font-style:normal;font-variant:normal;font-weight:normal;font-stretch:normal;font-size:26.6667px;font-family:'Hiragino Sans GB';-inkscape-font-specification:'Hiragino Sans GB, @wght=400';font-variant-ligatures:normal;font-variant-caps:normal;font-variant-numeric:normal;font-variant-east-asian:normal;font-variation-settings:'wght' 400;text-align:start;letter-spacing:3.5px;writing-mode:lr-tb;direction:ltr;white-space:pre;shape-inside:url(#rect8043);display:inline;fill:#ffffff;fill-opacity:1;stroke:#ffffff;stroke-width:0.245669;stroke-opacity:1;paint-order:markers stroke fill" /></g><g
     inkscape:groupmode="layer"
     id="layer5"
     inkscape:label="Layer 5" /><g
     inkscape:groupmode="layer"
     id="layer6"
     inkscape:label="Layer 6"><g
       id="g1063"
       transform="translate(-147.19704,-138.95891)"><text
         xml:space="preserve"
         style="font-style:normal;font-variant:normal;font-weight:normal;font-stretch:normal;font-size:6.63753px;font-family:Doto;-inkscape-font-specification:'Doto, @wght=303';font-variant-ligatures:normal;font-variant-caps:normal;font-variant-numeric:normal;font-variant-east-asian:normal;font-variation-settings:'wght' 303;text-align:start;letter-spacing:1.45194px;writing-mode:lr-tb;direction:ltr;text-anchor:start;fill:#ffffff;fill-opacity:1;stroke:#ffffff;stroke-width:0.496673;stroke-dasharray:none;stroke-opacity:1;paint-order:markers stroke fill"
         x="190.3501"
         y="228.43642"
         id="text24"
         inkscape:export-filename="/Users/unauthorized/text463-01c.png"
         inkscape:export-xdpi="300"
         inkscape:export-ydpi="300"><tspan
           sodipodi:role="line"
           id="tspan24"
           style="font-style:normal;font-variant:normal;font-weight:normal;font-stretch:normal;font-size:6.63753px;font-family:Doto;-inkscape-font-specification:'Doto, @wght=303';font-variant-ligatures:normal;font-variant-caps:normal;font-variant-numeric:normal;font-variant-east-asian:normal;font-variation-settings:'wght' 303;fill:#ffffff;fill-opacity:1;stroke:#ffffff;stroke-width:0.496673;stroke-dasharray:none;stroke-opacity:1"
           x="190.3501"
           y="228.43642">MIR </tspan></text><rect
         style="fill:#ffffff;fill-opacity:1;stroke:#ffffff;stroke-width:0.0646148;stroke-opacity:1;paint-order:markers stroke fill"
         id="rect829"
         width="4.8665147"
         height="4.8665147"
         x="189.79469"
         y="212.35345" /><rect
         style="fill:#ffffff;fill-opacity:1;stroke:#ffffff;stroke-width:0.0646148;stroke-opacity:1;paint-order:markers stroke fill"
         id="rect830"
         width="4.8665147"
         height="4.8665147"
         x="189.79469"
         y="206.92004" /><rect
         style="fill:#ffffff;fill-opacity:1;stroke:#ffffff;stroke-width:0.0646148;stroke-opacity:1;paint-order:markers stroke fill"
         id="rect838"
         width="4.8665147"
         height="4.8665147"
         x="200.53279"
         y="212.35345" /><rect
         style="fill:#ffffff;fill-opacity:1;stroke:#ffffff;stroke-width:0.0646148;stroke-opacity:1;paint-order:markers stroke fill"
         id="rect951"
         width="4.8665147"
         height="4.8665147"
         x="221.57961"
         y="228.6537" /><rect
         style="fill:#ffffff;fill-opacity:1;stroke:#ffffff;stroke-width:0.0646148;stroke-opacity:1;paint-order:markers stroke fill"
         id="rect956"
         width="4.8665147"
         height="4.8665147"
         x="210.98463"
         y="206.92004" /><rect
         style="fill:#ffffff;fill-opacity:1;stroke:#ffffff;stroke-width:0.0646148;stroke-opacity:1;paint-order:markers stroke fill"
         id="rect957"
         width="4.8665147"
         height="4.8665147"
         x="205.68715"
         y="206.92004" /><rect
         style="fill:#ffffff;fill-opacity:1;stroke:#ffffff;stroke-width:0.0646148;stroke-opacity:1;paint-order:markers stroke fill"
         id="rect959"
         width="4.8665147"
         height="4.8665147"
         x="200.53279"
         y="196.05322" /><rect
         style="fill:#ffffff;fill-opacity:1;stroke:#ffffff;stroke-width:0.0646148;stroke-opacity:1;paint-order:markers stroke fill"
         id="rect971"
         width="4.8665147"
         height="4.8665147"
         x="195.09218"
         y="206.92004" /><rect
         style="fill:#ffffff;fill-opacity:1;stroke:#ffffff;stroke-width:0.0646148;stroke-opacity:1;paint-order:markers stroke fill"
         id="rect990"
         width="4.8665147"
         height="4.8665147"
         x="189.79469"
         y="217.78688" /><rect
         style="fill:#ffffff;fill-opacity:1;stroke:#ffffff;stroke-width:0.0646148;stroke-opacity:1;paint-order:markers stroke fill"
         id="rect993"
         width="4.8665147"
         height="4.8665147"
         x="216.28212"
         y="212.35345" /><rect
         style="fill:#ffffff;fill-opacity:1;stroke:#ffffff;stroke-width:0.0646148;stroke-opacity:1;paint-order:markers stroke fill"
         id="rect996"
         width="4.8665147"
         height="4.8665147"
         x="189.79469"
         y="229.80779" /><rect
         style="fill:#ffffff;fill-opacity:1;stroke:#ffffff;stroke-width:0.0646148;stroke-opacity:1;paint-order:markers stroke fill"
         id="rect1006"
         width="4.8665147"
         height="4.8665147"
         x="216.28212"
         y="223.22029" /><rect
         style="fill:#ffffff;fill-opacity:1;stroke:#ffffff;stroke-width:0.0646148;stroke-opacity:1;paint-order:markers stroke fill"
         id="rect1035"
         width="4.8665147"
         height="4.8665147"
         x="210.98463"
         y="217.78688" /><rect
         style="fill:#ffffff;fill-opacity:1;stroke:#ffffff;stroke-width:0.0646148;stroke-opacity:1;paint-order:markers stroke fill"
         id="rect1037"
         width="4.8665147"
         height="4.8665147"
         x="200.53279"
         y="217.78688" /><rect
         style="fill:#ffffff;fill-opacity:1;stroke:#ffffff;stroke-width:0.0646148;stroke-opacity:1;paint-order:markers stroke fill"
         id="rect1038"
         width="4.8665147"
         height="4.8665147"
         x="216.28212"
         y="206.92004" /><rect
         style="fill:#ffffff;fill-opacity:1;stroke:#ffffff;stroke-width:0.0646148;stroke-opacity:1;paint-order:markers stroke fill"
         id="rect1039"
         width="4.8665147"
         height="4.8665147"
         x="210.98463"
         y="201.48663" /><rect
         style="fill:#ffffff;fill-opacity:1;stroke:#ffffff;stroke-width:0.0646148;stroke-opacity:1;paint-order:markers stroke fill"
         id="rect1060"
         width="4.8665147"
         height="4.8665147"
         x="189.79469"
         y="201.48663" /></g><path
       d="m 113.93653,62.756958 v 0.2558 0.29093 0.11731 0.13849 0.11731 0.29094 0.1173 0.13849 0.11731 0.29094 0.1173 0.13901 0.11524 0.29249 0.11731 0.13901 0.11523 0.29249 0.11524 0.14108 0.11524 0.293 0.11472 0.13901 0.11731 0.29094 0.2558 h 0.25374 0.293 0.2558 v -0.2558 -0.29094 -0.11731 -0.13901 -0.11472 -0.293 -0.11524 -0.14108 -0.11524 -0.29249 -0.11523 -0.13901 -0.11731 -0.29249 -0.11524 h 0.11524 0.293 0.11524 v 0.11524 0.29249 0.25632 h 0.2558 0.29301 0.25373 v -0.25632 -0.29249 -0.11524 h 0.1173 0.29094 0.11731 v 0.11524 0.29249 0.11731 0.13901 0.11523 0.29249 0.11524 0.14108 0.11524 0.293 0.11472 0.13901 0.11731 0.29094 0.2558 h 0.25579 0.29094 0.25632 v -0.2558 -0.29094 -0.11731 -0.13901 -0.11472 -0.293 -0.11524 -0.14108 -0.11524 -0.29249 -0.11523 -0.13901 -0.11731 -0.29249 -0.11524 -0.13901 -0.1173 -0.29094 -0.11731 -0.13849 -0.1173 -0.29094 -0.11731 -0.13849 -0.11731 -0.29093 -0.2558 h -0.25632 -0.29094 -0.25579 v 0.2558 0.29093 0.11731 0.13849 0.11731 0.29094 0.1173 h -0.11731 -0.29094 -0.2558 v 0.2558 0.29094 0.1173 h -0.11523 -0.29301 -0.11524 v -0.1173 -0.29094 -0.2558 h -0.2558 -0.293 -0.11524 v -0.1173 -0.29094 -0.11731 -0.13849 -0.11731 -0.29093 -0.2558 h -0.2558 -0.293 z m 6.09731,0 v 0.2558 0.29093 0.2558 h 0.25631 0.29094 0.11731 v 0.11731 0.29094 0.1173 0.13849 0.11731 0.29094 0.1173 0.13901 0.11524 0.29249 0.11731 0.13901 0.11523 0.29249 0.11524 0.14108 0.11524 0.293 0.11472 h -0.11731 -0.29094 -0.25631 v 0.25632 0.29094 0.2558 h 0.25631 0.29094 0.11731 0.13849 0.1173 0.29094 0.11731 0.13849 0.11524 0.293 0.2558 v -0.2558 -0.29094 -0.25632 h -0.2558 -0.293 -0.11524 v -0.11472 -0.293 -0.11524 -0.14108 -0.11524 -0.29249 -0.11523 -0.13901 -0.11731 -0.29249 -0.11524 -0.13901 -0.1173 -0.29094 -0.11731 -0.13849 -0.1173 -0.29094 -0.11731 h 0.11524 0.293 0.2558 v -0.2558 -0.29093 -0.2558 h -0.2558 -0.293 -0.11524 -0.13849 -0.11731 -0.29094 -0.1173 -0.13849 -0.11731 -0.29094 z m 4.7718,0 v 0.2558 0.29093 0.11731 0.13849 0.11731 0.29094 0.1173 0.13849 0.11731 0.29094 0.1173 0.13901 0.11524 0.29249 0.11731 0.13901 0.11523 0.29249 0.11524 0.14108 0.11524 0.293 0.11472 0.13901 0.11731 0.29094 0.2558 h 0.25373 0.293 0.2558 v -0.2558 -0.29094 -0.11731 -0.13901 -0.11472 -0.293 -0.11524 -0.14108 -0.11524 -0.29249 -0.11523 h 0.11524 0.29301 0.11524 v 0.11523 0.29249 0.25632 h 0.25579 0.29301 0.11524 v 0.11524 0.293 0.25373 h 0.2558 0.29093 0.11731 v 0.11731 0.29094 0.2558 h 0.2558 0.29094 0.25631 v -0.2558 -0.29094 -0.25632 h -0.25631 -0.29094 -0.11679 v -0.11472 -0.293 -0.25632 h -0.25632 -0.29093 -0.11679 v -0.11524 -0.29249 -0.11523 h 0.11679 0.29093 0.25632 v -0.25632 -0.29249 -0.11524 h 0.11679 0.29094 0.25631 v -0.25631 -0.29094 -0.11731 -0.13849 -0.1173 -0.29094 -0.2558 h -0.25631 -0.29094 -0.11679 v -0.11731 -0.29093 -0.2558 h -0.25632 -0.29093 -0.11679 -0.13901 -0.11731 -0.29094 -0.1173 -0.13849 -0.11524 -0.29301 -0.11524 -0.14056 -0.11524 -0.293 z m -10.62158,0.24856 h 0.007 0.29197 0.007 v 0.007 0.29249 0.007 h -0.007 -0.29197 -0.007 v -0.007 -0.29197 z m 2.65514,0 h 0.007 0.29249 0.007 v 0.007 0.29249 0.007 h -0.007 -0.29249 -0.007 v -0.007 -0.29197 z m 3.4432,0 h 0.007 0.29249 0.007 v 0.007 0.29249 0.007 h -0.007 -0.29249 -0.007 v -0.007 -0.29197 z m 0.66353,0 h 0.007 0.29197 0.007 v 0.007 0.29249 0.007 h -0.007 -0.29197 -0.007 v -0.007 -0.29197 z m 0.66404,0 h 0.007 0.29197 0.007 v 0.007 0.29249 0.007 h -0.007 -0.29197 -0.007 v -0.007 -0.29197 z m 3.4432,0 h 0.007 0.29197 0.007 v 0.007 0.29249 0.007 h -0.007 -0.29197 -0.007 v -0.007 -0.29197 z m 0.66352,0 h 0.007 0.29197 0.007 v 0.007 0.29249 0.007 h -0.007 -0.29197 -0.007 v -0.007 -0.29197 z m 0.66405,0 h 0.007 0.29198 0.007 v 0.007 0.29249 0.007 h -0.007 -0.29198 -0.007 v -0.007 -0.29197 z m 0.66352,0 h 0.007 0.29197 0.007 v 0.007 0.29249 0.007 h -0.007 -0.29197 -0.007 v -0.007 -0.29197 z m -1.43609,0.55397 h 0.11524 0.29301 0.11524 0.13849 0.1173 0.29301 0.11524 0.13901 0.11679 0.29093 0.11731 v 0.11731 0.29094 0.1173 0.13849 0.11731 0.29094 0.1173 h -0.11731 -0.29093 -0.11679 -0.13901 -0.11524 -0.29301 -0.1173 -0.13849 -0.11524 -0.29301 -0.11524 v -0.1173 -0.29094 -0.11731 -0.13849 -0.1173 -0.29094 z m -11.42411,0.11007 h 0.007 0.29197 0.007 v 0.007 0.29197 0.007 h -0.007 -0.29197 -0.007 v -0.007 -0.29197 z m 2.65514,0 h 0.007 0.29249 0.007 v 0.007 0.29197 0.007 h -0.007 -0.29249 -0.007 v -0.007 -0.29197 z m 4.10673,0 h 0.007 0.29197 0.007 v 0.007 0.29197 0.007 h -0.007 -0.29197 -0.007 v -0.007 -0.29197 z m 4.10724,0 h 0.007 0.29197 0.007 v 0.007 0.29197 0.007 h -0.007 -0.29197 -0.007 v -0.007 -0.29197 z m 2.65513,0 h 0.007 0.29197 0.007 v 0.007 0.29197 0.007 h -0.007 -0.29197 -0.007 v -0.007 -0.29197 z m -13.52424,0.66353 h 0.007 0.29197 0.007 v 0.007 0.29198 0.007 h -0.007 -0.29197 -0.007 v -0.007 -0.29198 z m 0.66405,0 h 0.007 0.29198 0.007 v 0.007 0.29198 0.007 h -0.007 -0.29198 -0.007 v -0.007 -0.29198 z m 1.32705,0 h 0.007 0.29197 0.007 v 0.007 0.29198 0.007 h -0.007 -0.29197 -0.007 v -0.007 -0.29198 z m 0.66404,0 h 0.007 0.29249 0.007 v 0.007 0.29198 0.007 h -0.007 -0.29249 -0.007 v -0.007 -0.29198 z m 4.10673,0 h 0.007 0.29197 0.007 v 0.007 0.29198 0.007 h -0.007 -0.29197 -0.007 v -0.007 -0.29198 z m 4.10724,0 h 0.007 0.29197 0.007 v 0.007 0.29198 0.007 h -0.007 -0.29197 -0.007 v -0.007 -0.29198 z m 2.65513,0 h 0.007 0.29197 0.007 v 0.007 0.29198 0.007 h -0.007 -0.29197 -0.007 v -0.007 -0.29198 z m -13.52424,0.66404 h 0.007 0.29197 0.007 v 0.007 0.29197 0.007 h -0.007 -0.29197 -0.007 v -0.007 -0.29197 z m 1.32757,0 h 0.007 0.29197 0.007 v 0.007 0.29197 0.007 h -0.007 -0.29197 -0.007 v -0.007 -0.29197 z m 1.32757,0 h 0.007 0.29249 0.007 v 0.007 0.29197 0.007 h -0.007 -0.29249 -0.007 v -0.007 -0.29197 z m 4.10673,0 h 0.007 0.29197 0.007 v 0.007 0.29197 0.007 h -0.007 -0.29197 -0.007 v -0.007 -0.29197 z m 4.10724,0 h 0.007 0.29197 0.007 v 0.007 0.29197 0.007 h -0.007 -0.29197 -0.007 v -0.007 -0.29197 z m 0.66352,0 h 0.007 0.29197 0.007 v 0.007 0.29197 0.007 h -0.007 -0.29197 -0.007 v -0.007 -0.29197 z m 0.66405,0 h 0.007 0.29198 0.007 v 0.007 0.29197 0.007 h -0.007 -0.29198 -0.007 v -0.007 -0.29197 z m 0.66352,0 h 0.007 0.29197 0.007 v 0.007 0.29197 0.007 h -0.007 -0.29197 -0.007 v -0.007 -0.29197 z m -12.8602,0.66353 h 0.007 0.29197 0.007 v 0.007 0.29197 0.007 h -0.007 -0.29197 -0.007 v -0.007 -0.29197 z m 2.65514,0 h 0.007 0.29249 0.007 v 0.007 0.29197 0.007 h -0.007 -0.29249 -0.007 v -0.007 -0.29197 z m 4.10673,0 h 0.007 0.29197 0.007 v 0.007 0.29197 0.007 h -0.007 -0.29197 -0.007 v -0.007 -0.29197 z m 4.10724,0 h 0.007 0.29197 0.007 v 0.007 0.29197 0.007 h -0.007 -0.29197 -0.007 v -0.007 -0.29197 z m 1.32757,0 h 0.007 0.29198 0.007 v 0.007 0.29197 0.007 h -0.007 -0.29198 -0.007 v -0.007 -0.29197 z m -12.19668,0.66352 h 0.007 0.29197 0.007 v 0.007 0.29197 0.007 h -0.007 -0.29197 -0.007 v -0.007 -0.29197 z m 2.65514,0 h 0.007 0.29249 0.007 v 0.007 0.29197 0.007 h -0.007 -0.29249 -0.007 v -0.007 -0.29197 z m 4.10673,0 h 0.007 0.29197 0.007 v 0.007 0.29197 0.007 h -0.007 -0.29197 -0.007 v -0.007 -0.29197 z m 4.10724,0 h 0.007 0.29197 0.007 v 0.007 0.29197 0.007 h -0.007 -0.29197 -0.007 v -0.007 -0.29197 z m 1.99109,0 h 0.007 0.29197 0.007 v 0.007 0.29197 0.007 h -0.007 -0.29197 -0.007 v -0.007 -0.29197 z m -12.8602,0.66404 h 0.007 0.29197 0.007 v 0.007 0.29249 0.007 h -0.007 -0.29197 -0.007 v -0.007 -0.29249 z m 2.65514,0 h 0.007 0.29249 0.007 v 0.007 0.29249 0.007 h -0.007 -0.29249 -0.007 v -0.007 -0.29249 z m 3.4432,0 h 0.007 0.29249 0.007 v 0.007 0.29249 0.007 h -0.007 -0.29249 -0.007 v -0.007 -0.29249 z m 0.66353,0 h 0.007 0.29197 0.007 v 0.007 0.29249 0.007 h -0.007 -0.29197 -0.007 v -0.007 -0.29249 z m 0.66404,0 h 0.007 0.29197 0.007 v 0.007 0.29249 0.007 h -0.007 -0.29197 -0.007 v -0.007 -0.29249 z m 3.4432,0 h 0.007 0.29197 0.007 v 0.007 0.29249 0.007 h -0.007 -0.29197 -0.007 v -0.007 -0.29249 z m 2.65513,0 h 0.007 0.29197 0.007 v 0.007 0.29249 0.007 h -0.007 -0.29197 -0.007 v -0.007 -0.29249 z"
       style="font-size:6.63753px;font-family:Doto;-inkscape-font-specification:'Doto, @wght=303';font-variation-settings:'wght' 303;letter-spacing:1.45194px;baseline-shift:baseline;display:inline;overflow:visible;vector-effect:none;fill:#202020;fill-opacity:1;stroke:none;paint-order:markers stroke fill;enable-background:accumulate;stop-color:#000000;stop-opacity:1"
       id="path8558" /><path
       d="m 114.18406,63.005518 v 0.007 0.29197 0.007 h 0.007 0.29197 0.007 v -0.007 -0.29249 -0.007 h -0.007 -0.29197 z m 2.65514,0 v 0.007 0.29197 0.007 h 0.007 0.29249 0.007 v -0.007 -0.29249 -0.007 h -0.007 -0.29249 z m 3.4432,0 v 0.007 0.29197 0.007 h 0.007 0.29249 0.007 v -0.007 -0.29249 -0.007 h -0.007 -0.29249 z m 0.66353,0 v 0.007 0.29197 0.007 h 0.007 0.29197 0.007 v -0.007 -0.29249 -0.007 h -0.007 -0.29197 z m 0.66404,0 v 0.007 0.29197 0.007 h 0.007 0.29197 0.007 v -0.007 -0.29249 -0.007 h -0.007 -0.29197 z m 3.4432,0 v 0.007 0.29197 0.007 h 0.007 0.29197 0.007 v -0.007 -0.29249 -0.007 h -0.007 -0.29197 z m 0.66352,0 v 0.007 0.29197 0.007 h 0.007 0.29197 0.007 v -0.007 -0.29249 -0.007 h -0.007 -0.29197 z m 0.66405,0 v 0.007 0.29197 0.007 h 0.007 0.29198 0.007 v -0.007 -0.29249 -0.007 h -0.007 -0.29198 z m 0.66352,0 v 0.007 0.29197 0.007 h 0.007 0.29197 0.007 v -0.007 -0.29249 -0.007 h -0.007 -0.29197 z m -12.8602,0.66404 v 0.007 0.29197 0.007 h 0.007 0.29197 0.007 v -0.007 -0.29197 -0.007 h -0.007 -0.29197 z m 2.65514,0 v 0.007 0.29197 0.007 h 0.007 0.29249 0.007 v -0.007 -0.29197 -0.007 h -0.007 -0.29249 z m 4.10673,0 v 0.007 0.29197 0.007 h 0.007 0.29197 0.007 v -0.007 -0.29197 -0.007 h -0.007 -0.29197 z m 4.10724,0 v 0.007 0.29197 0.007 h 0.007 0.29197 0.007 v -0.007 -0.29197 -0.007 h -0.007 -0.29197 z m 2.65513,0 v 0.007 0.29197 0.007 h 0.007 0.29197 0.007 v -0.007 -0.29197 -0.007 h -0.007 -0.29197 z m -13.52424,0.66353 v 0.007 0.29198 0.007 h 0.007 0.29197 0.007 v -0.007 -0.29198 -0.007 h -0.007 -0.29197 z m 0.66405,0 v 0.007 0.29198 0.007 h 0.007 0.29198 0.007 v -0.007 -0.29198 -0.007 h -0.007 -0.29198 z m 1.32705,0 v 0.007 0.29198 0.007 h 0.007 0.29197 0.007 v -0.007 -0.29198 -0.007 h -0.007 -0.29197 z m 0.66404,0 v 0.007 0.29198 0.007 h 0.007 0.29249 0.007 v -0.007 -0.29198 -0.007 h -0.007 -0.29249 z m 4.10673,0 v 0.007 0.29198 0.007 h 0.007 0.29197 0.007 v -0.007 -0.29198 -0.007 h -0.007 -0.29197 z m 4.10724,0 v 0.007 0.29198 0.007 h 0.007 0.29197 0.007 v -0.007 -0.29198 -0.007 h -0.007 -0.29197 z m 2.65513,0 v 0.007 0.29198 0.007 h 0.007 0.29197 0.007 v -0.007 -0.29198 -0.007 h -0.007 -0.29197 z m -13.52424,0.66404 v 0.007 0.29197 0.007 h 0.007 0.29197 0.007 v -0.007 -0.29197 -0.007 h -0.007 -0.29197 z m 1.32757,0 v 0.007 0.29197 0.007 h 0.007 0.29197 0.007 v -0.007 -0.29197 -0.007 h -0.007 -0.29197 z m 1.32757,0 v 0.007 0.29197 0.007 h 0.007 0.29249 0.007 v -0.007 -0.29197 -0.007 h -0.007 -0.29249 z m 4.10673,0 v 0.007 0.29197 0.007 h 0.007 0.29197 0.007 v -0.007 -0.29197 -0.007 h -0.007 -0.29197 z m 4.10724,0 v 0.007 0.29197 0.007 h 0.007 0.29197 0.007 v -0.007 -0.29197 -0.007 h -0.007 -0.29197 z m 0.66352,0 v 0.007 0.29197 0.007 h 0.007 0.29197 0.007 v -0.007 -0.29197 -0.007 h -0.007 -0.29197 z m 0.66405,0 v 0.007 0.29197 0.007 h 0.007 0.29198 0.007 v -0.007 -0.29197 -0.007 h -0.007 -0.29198 z m 0.66352,0 v 0.007 0.29197 0.007 h 0.007 0.29197 0.007 v -0.007 -0.29197 -0.007 h -0.007 -0.29197 z m -12.8602,0.66353 v 0.007 0.29197 0.007 h 0.007 0.29197 0.007 v -0.007 -0.29197 -0.007 h -0.007 -0.29197 z m 2.65514,0 v 0.007 0.29197 0.007 h 0.007 0.29249 0.007 v -0.007 -0.29197 -0.007 h -0.007 -0.29249 z m 4.10673,0 v 0.007 0.29197 0.007 h 0.007 0.29197 0.007 v -0.007 -0.29197 -0.007 h -0.007 -0.29197 z m 4.10724,0 v 0.007 0.29197 0.007 h 0.007 0.29197 0.007 v -0.007 -0.29197 -0.007 h -0.007 -0.29197 z m 1.32757,0 v 0.007 0.29197 0.007 h 0.007 0.29198 0.007 v -0.007 -0.29197 -0.007 h -0.007 -0.29198 z m -12.19668,0.66352 v 0.007 0.29197 0.007 h 0.007 0.29197 0.007 v -0.007 -0.29197 -0.007 h -0.007 -0.29197 z m 2.65514,0 v 0.007 0.29197 0.007 h 0.007 0.29249 0.007 v -0.007 -0.29197 -0.007 h -0.007 -0.29249 z m 4.10673,0 v 0.007 0.29197 0.007 h 0.007 0.29197 0.007 v -0.007 -0.29197 -0.007 h -0.007 -0.29197 z m 4.10724,0 v 0.007 0.29197 0.007 h 0.007 0.29197 0.007 v -0.007 -0.29197 -0.007 h -0.007 -0.29197 z m 1.99109,0 v 0.007 0.29197 0.007 h 0.007 0.29197 0.007 v -0.007 -0.29197 -0.007 h -0.007 -0.29197 z m -12.8602,0.66404 v 0.007 0.29249 0.007 h 0.007 0.29197 0.007 v -0.007 -0.29249 -0.007 h -0.007 -0.29197 z m 2.65514,0 v 0.007 0.29249 0.007 h 0.007 0.29249 0.007 v -0.007 -0.29249 -0.007 h -0.007 -0.29249 z m 3.4432,0 v 0.007 0.29249 0.007 h 0.007 0.29249 0.007 v -0.007 -0.29249 -0.007 h -0.007 -0.29249 z m 0.66353,0 v 0.007 0.29249 0.007 h 0.007 0.29197 0.007 v -0.007 -0.29249 -0.007 h -0.007 -0.29197 z m 0.66404,0 v 0.007 0.29249 0.007 h 0.007 0.29197 0.007 v -0.007 -0.29249 -0.007 h -0.007 -0.29197 z m 3.4432,0 v 0.007 0.29249 0.007 h 0.007 0.29197 0.007 v -0.007 -0.29249 -0.007 h -0.007 -0.29197 z m 2.65513,0 v 0.007 0.29249 0.007 h 0.007 0.29197 0.007 v -0.007 -0.29249 -0.007 h -0.007 -0.29197 z"
       style="font-size:6.63753px;font-family:Doto;-inkscape-font-specification:'Doto, @wght=303';font-variation-settings:'wght' 303;letter-spacing:1.45194px;baseline-shift:baseline;display:inline;overflow:visible;vector-effect:none;fill:#202020;fill-opacity:1;stroke:none;paint-order:markers stroke fill;enable-background:accumulate;stop-color:#000000;stop-opacity:1"
       id="path8557" /><path
       d="m 113.41667,51.356618 v 4.93149 h 4.932 v -4.93149 z m 0.0331,0.0331 h 4.86689 v 4.86637 h -4.86689 z"
       style="baseline-shift:baseline;display:inline;overflow:visible;vector-effect:none;fill:#202020;fill-opacity:1;stroke:none;paint-order:markers stroke fill;enable-background:accumulate;stop-color:#000000;stop-opacity:1"
       id="path8556" /><path
       d="m 113.44974,51.389698 v 4.86637 h 4.86689 v -4.86637 z"
       style="baseline-shift:baseline;display:inline;overflow:visible;vector-effect:none;fill:#202020;fill-opacity:1;stroke:none;paint-order:markers stroke fill;enable-background:accumulate;stop-color:#000000;stop-opacity:1"
       id="path8555" /><path
       d="m 113.41667,45.924912 v 4.929936 h 4.932 v -4.929936 z m 0.0331,0.03152 h 4.86689 v 4.866366 h -4.86689 z"
       style="baseline-shift:baseline;display:inline;overflow:visible;vector-effect:none;fill:#202020;fill-opacity:1;stroke:none;paint-order:markers stroke fill;enable-background:accumulate;stop-color:#000000;stop-opacity:1"
       id="path8554" /><path
       d="m 113.44974,45.956435 v 4.866373 h 4.86689 v -4.866373 z"
       style="baseline-shift:baseline;display:inline;overflow:visible;vector-effect:none;fill:#202020;fill-opacity:1;stroke:none;paint-order:markers stroke fill;enable-background:accumulate;stop-color:#000000;stop-opacity:1"
       id="path8553" /><path
       d="m 124.15503,51.356618 v 4.93149 h 4.932 v -4.93149 z m 0.0331,0.0331 h 4.86637 v 4.86637 h -4.86637 z"
       style="baseline-shift:baseline;display:inline;overflow:visible;vector-effect:none;fill:#202020;fill-opacity:1;stroke:none;paint-order:markers stroke fill;enable-background:accumulate;stop-color:#000000;stop-opacity:1"
       id="path8552" /><path
       d="m 124.1881,51.389698 v 4.86637 h 4.86637 v -4.86637 z"
       style="baseline-shift:baseline;display:inline;overflow:visible;vector-effect:none;fill:#202020;fill-opacity:1;stroke:none;paint-order:markers stroke fill;enable-background:accumulate;stop-color:#000000;stop-opacity:1"
       id="path8551" /><path
       d="m 145.20181,67.657428 v 4.93149 h 4.932 v -4.93149 z m 0.0331,0.0326 h 4.86637 v 4.86637 h -4.86637 z"
       style="baseline-shift:baseline;display:inline;overflow:visible;vector-effect:none;fill:#202020;fill-opacity:1;stroke:none;paint-order:markers stroke fill;enable-background:accumulate;stop-color:#000000;stop-opacity:1"
       id="path8550" /><path
       d="m 145.23488,67.689988 v 4.86637 h 4.86637 v -4.86637 z"
       style="baseline-shift:baseline;display:inline;overflow:visible;vector-effect:none;fill:#202020;fill-opacity:1;stroke:none;paint-order:markers stroke fill;enable-background:accumulate;stop-color:#000000;stop-opacity:1"
       id="path8549" /><path
       d="m 134.60814,45.924912 v 4.929936 h 4.92993 v -4.929936 z m 0.0315,0.03152 h 4.86689 v 4.866366 h -4.86689 z"
       style="baseline-shift:baseline;display:inline;overflow:visible;vector-effect:none;fill:#202020;fill-opacity:1;stroke:none;paint-order:markers stroke fill;enable-background:accumulate;stop-color:#000000;stop-opacity:1"
       id="path8548" /><path
       d="m 134.63966,45.956435 v 4.866373 h 4.86689 v -4.866373 z"
       style="baseline-shift:baseline;display:inline;overflow:visible;vector-effect:none;fill:#202020;fill-opacity:1;stroke:none;paint-order:markers stroke fill;enable-background:accumulate;stop-color:#000000;stop-opacity:1"
       id="path8547" /><path
       d="m 129.30924,45.924912 v 4.929936 h 4.932 v -4.929936 z m 0.0331,0.03152 h 4.86637 v 4.866366 h -4.86637 z"
       style="baseline-shift:baseline;display:inline;overflow:visible;vector-effect:none;fill:#202020;fill-opacity:1;stroke:none;paint-order:markers stroke fill;enable-background:accumulate;stop-color:#000000;stop-opacity:1"
       id="path8546" /><path
       d="m 129.34231,45.956435 v 4.866373 h 4.86637 v -4.866373 z"
       style="baseline-shift:baseline;display:inline;overflow:visible;vector-effect:none;fill:#202020;fill-opacity:1;stroke:none;paint-order:markers stroke fill;enable-background:accumulate;stop-color:#000000;stop-opacity:1"
       id="path8545" /><path
       d="m 124.15503,35.057875 v 4.929415 h 4.932 v -4.929415 z m 0.0331,0.03152 h 4.86637 v 4.86637 h -4.86637 z"
       style="baseline-shift:baseline;display:inline;overflow:visible;vector-effect:none;fill:#202020;fill-opacity:1;stroke:none;paint-order:markers stroke fill;enable-background:accumulate;stop-color:#000000;stop-opacity:1"
       id="path8544" /><path
       d="m 124.1881,35.089398 v 4.86637 h 4.86637 v -4.86637 z"
       style="baseline-shift:baseline;display:inline;overflow:visible;vector-effect:none;fill:#202020;fill-opacity:1;stroke:none;paint-order:markers stroke fill;enable-background:accumulate;stop-color:#000000;stop-opacity:1"
       id="path8543" /><path
       d="m 118.71557,45.924912 v 4.929936 h 4.92993 v -4.929936 z m 0.032,0.03152 h 4.86637 v 4.866366 h -4.86637 z"
       style="baseline-shift:baseline;display:inline;overflow:visible;vector-effect:none;fill:#202020;fill-opacity:1;stroke:none;paint-order:markers stroke fill;enable-background:accumulate;stop-color:#000000;stop-opacity:1"
       id="path8542" /><path
       d="m 118.74761,45.956435 v 4.866373 h 4.86637 v -4.866373 z"
       style="baseline-shift:baseline;display:inline;overflow:visible;vector-effect:none;fill:#202020;fill-opacity:1;stroke:none;paint-order:markers stroke fill;enable-background:accumulate;stop-color:#000000;stop-opacity:1"
       id="path8541" /><path
       d="m 113.41667,56.790398 v 4.93148 h 4.932 v -4.93148 z m 0.0331,0.0326 h 4.86689 v 4.86689 h -4.86689 z"
       style="baseline-shift:baseline;display:inline;overflow:visible;vector-effect:none;fill:#202020;fill-opacity:1;stroke:none;paint-order:markers stroke fill;enable-background:accumulate;stop-color:#000000;stop-opacity:1"
       id="path8540" /><path
       d="m 113.44974,56.822958 v 4.86688 h 4.86689 v -4.86688 z"
       style="baseline-shift:baseline;display:inline;overflow:visible;vector-effect:none;fill:#202020;fill-opacity:1;stroke:none;paint-order:markers stroke fill;enable-background:accumulate;stop-color:#000000;stop-opacity:1"
       id="path8539" /><path
       d="m 139.90498,51.356618 v 4.93149 h 4.93199 v -4.93149 z m 0.0325,0.0331 h 4.86637 v 4.86637 h -4.86637 z"
       style="baseline-shift:baseline;display:inline;overflow:visible;vector-effect:none;fill:#202020;fill-opacity:1;stroke:none;paint-order:markers stroke fill;enable-background:accumulate;stop-color:#000000;stop-opacity:1"
       id="path8538" /><path
       d="m 139.93753,51.389698 v 4.86637 h 4.86637 v -4.86637 z"
       style="baseline-shift:baseline;display:inline;overflow:visible;vector-effect:none;fill:#202020;fill-opacity:1;stroke:none;paint-order:markers stroke fill;enable-background:accumulate;stop-color:#000000;stop-opacity:1"
       id="path8537" /><path
       d="m 113.41667,68.811888 v 4.93148 h 4.932 v -4.93148 z m 0.0331,0.032 h 4.86689 v 4.86689 h -4.86689 z"
       style="baseline-shift:baseline;display:inline;overflow:visible;vector-effect:none;fill:#202020;fill-opacity:1;stroke:none;paint-order:markers stroke fill;enable-background:accumulate;stop-color:#000000;stop-opacity:1"
       id="path8536" /><path
       d="m 113.44974,68.843918 v 4.86689 h 4.86689 v -4.86689 z"
       style="baseline-shift:baseline;display:inline;overflow:visible;vector-effect:none;fill:#202020;fill-opacity:1;stroke:none;paint-order:markers stroke fill;enable-background:accumulate;stop-color:#000000;stop-opacity:1"
       id="path8535" /><path
       d="m 139.90498,62.223658 v 4.932 h 4.93199 v -4.932 z m 0.0325,0.0331 h 4.86637 v 4.86637 h -4.86637 z"
       style="baseline-shift:baseline;display:inline;overflow:visible;vector-effect:none;fill:#202020;fill-opacity:1;stroke:none;paint-order:markers stroke fill;enable-background:accumulate;stop-color:#000000;stop-opacity:1"
       id="path8534" /><path
       d="m 139.93753,62.256728 v 4.86637 h 4.86637 v -4.86637 z"
       style="baseline-shift:baseline;display:inline;overflow:visible;vector-effect:none;fill:#202020;fill-opacity:1;stroke:none;paint-order:markers stroke fill;enable-background:accumulate;stop-color:#000000;stop-opacity:1"
       id="path8533" /><path
       d="m 134.60814,56.790398 v 4.93148 h 4.92993 v -4.93148 z m 0.0315,0.0326 h 4.86689 v 4.86689 h -4.86689 z"
       style="baseline-shift:baseline;display:inline;overflow:visible;vector-effect:none;fill:#202020;fill-opacity:1;stroke:none;paint-order:markers stroke fill;enable-background:accumulate;stop-color:#000000;stop-opacity:1"
       id="path8532" /><path
       d="m 134.63966,56.822958 v 4.86688 h 4.86689 v -4.86688 z"
       style="baseline-shift:baseline;display:inline;overflow:visible;vector-effect:none;fill:#202020;fill-opacity:1;stroke:none;paint-order:markers stroke fill;enable-background:accumulate;stop-color:#000000;stop-opacity:1"
       id="path8531" /><path
       d="m 124.15503,56.790398 v 4.93148 h 4.932 v -4.93148 z m 0.0331,0.0326 h 4.86637 v 4.86689 h -4.86637 z"
       style="baseline-shift:baseline;display:inline;overflow:visible;vector-effect:none;fill:#202020;fill-opacity:1;stroke:none;paint-order:markers stroke fill;enable-background:accumulate;stop-color:#000000;stop-opacity:1"
       id="path8530" /><path
       d="m 124.1881,56.822958 v 4.86688 h 4.86637 v -4.86688 z"
       style="baseline-shift:baseline;display:inline;overflow:visible;vector-effect:none;fill:#202020;fill-opacity:1;stroke:none;paint-order:markers stroke fill;enable-background:accumulate;stop-color:#000000;stop-opacity:1"
       id="path8529" /><path
       d="m 139.90498,45.924912 v 4.929936 h 4.93199 v -4.929936 z m 0.0325,0.03152 h 4.86637 v 4.866366 h -4.86637 z"
       style="baseline-shift:baseline;display:inline;overflow:visible;vector-effect:none;fill:#202020;fill-opacity:1;stroke:none;paint-order:markers stroke fill;enable-background:accumulate;stop-color:#000000;stop-opacity:1"
       id="path8528" /><path
       d="m 121.19332,38.110021 v 4.866373 h 4.86637 v -4.866373 z"
       style="baseline-shift:baseline;display:inline;overflow:visible;vector-effect:none;fill:#202020;fill-opacity:1;stroke:none;paint-order:markers stroke fill;enable-background:accumulate;stop-color:#000000;stop-opacity:1"
       id="path8527" /><path
       d="m 134.60814,40.491135 v 4.929932 h 4.92993 v -4.929932 z m 0.0315,0.03152 h 4.86689 v 4.866886 h -4.86689 z"
       style="baseline-shift:baseline;display:inline;overflow:visible;vector-effect:none;fill:#202020;fill-opacity:1;stroke:none;paint-order:markers stroke fill;enable-background:accumulate;stop-color:#000000;stop-opacity:1"
       id="path8526" /><path
       d="m 134.63966,40.522658 v 4.866886 h 4.86689 v -4.866886 z"
       style="baseline-shift:baseline;display:inline;overflow:visible;vector-effect:none;fill:#202020;fill-opacity:1;stroke:none;paint-order:markers stroke fill;enable-background:accumulate;stop-color:#000000;stop-opacity:1"
       id="path8525" /><path
       d="m 113.41667,40.491135 v 4.929932 h 4.932 v -4.929932 z m 0.0331,0.03152 h 4.86689 v 4.866886 h -4.86689 z"
       style="baseline-shift:baseline;display:inline;overflow:visible;vector-effect:none;fill:#202020;fill-opacity:1;stroke:none;paint-order:markers stroke fill;enable-background:accumulate;stop-color:#000000;stop-opacity:1"
       id="path8524" /><path
       d="m 113.44974,40.522658 v 4.866886 h 4.86689 v -4.866886 z"
       style="baseline-shift:baseline;display:inline;overflow:visible;vector-effect:none;fill:#202020;fill-opacity:1;stroke:none;paint-order:markers stroke fill;enable-background:accumulate;stop-color:#000000;stop-opacity:1"
       id="path8523" /><g
       id="g6"><path
         d="m 34.903813,117.56182 v 50.27961 h 50.279101 v -50.27961 z m 17.518827,6.37428 h 4.931999 v 4.92994 H 52.42264 Z m -10.738363,5.43378 h 4.931999 v 4.92942 h -4.931999 z m 21.191472,0 h 4.929931 v 4.92942 h -4.929931 z m -21.191472,5.43378 h 4.931999 v 4.92941 h -4.931999 z m 5.298902,0 h 4.929931 v 4.92941 h -4.929931 z m 10.593668,0 h 4.931999 v 4.92941 h -4.931999 z m 5.298902,0 h 4.929931 v 4.92941 h -4.929931 z m 5.296834,0 h 4.931999 v 4.92941 h -4.931999 z m -26.488306,5.43119 h 4.931999 v 4.932 h -4.931999 z m 10.738363,0 h 4.931999 v 4.932 H 52.42264 Z m 15.749943,0 h 4.931999 v 4.932 h -4.931999 z m -26.488306,5.43378 h 4.931999 v 4.93148 h -4.931999 z m 10.738363,0 h 4.931999 v 4.93148 H 52.42264 Z m 10.453109,0 h 4.929931 v 4.93148 h -4.929931 z m 5.296834,5.43377 h 4.931999 v 4.93149 h -4.931999 z m -25.968441,0.154 h 0.253732 0.293005 0.255798 v 0.2558 0.29145 0.11679 0.13901 0.11524 0.29301 0.11523 h 0.115239 0.293005 0.255798 v 0.2558 0.29301 0.11524 h 0.115239 0.293005 0.115239 v -0.11524 -0.29301 -0.2558 H 44.45 h 0.290938 0.117306 v -0.11523 -0.29301 -0.11524 -0.13901 -0.11679 -0.29145 -0.2558 h 0.255798 0.290938 0.256316 v 0.2558 0.29145 0.11679 0.13901 0.11524 0.29301 0.11523 0.14056 0.11524 0.29301 0.11524 0.13849 0.11731 0.293 0.11524 0.13849 0.11731 0.29094 0.1173 0.13849 0.11731 0.29094 0.1173 0.1385 0.1173 0.29094 0.2558 H 45.40498 45.114042 44.858244 v -0.2558 -0.29094 -0.1173 -0.1385 -0.1173 -0.29094 -0.11731 -0.13849 -0.1173 -0.29094 -0.11731 -0.13849 -0.11524 -0.293 -0.11731 H 44.740938 44.45 44.332694 v 0.11731 0.293 0.25373 H 44.078963 43.785958 43.53016 v -0.25373 -0.293 -0.11731 h -0.115239 -0.293005 -0.115239 v 0.11731 0.293 0.11524 0.13849 0.11731 0.29094 0.1173 0.13849 0.11731 0.29094 0.1173 0.1385 0.1173 0.29094 0.2558 h -0.255798 -0.293005 -0.253732 v -0.2558 -0.29094 -0.1173 -0.1385 -0.1173 -0.29094 -0.11731 -0.13849 -0.1173 -0.29094 -0.11731 -0.13849 -0.11524 -0.293 -0.11731 -0.13849 -0.11524 -0.29301 -0.11524 -0.14056 -0.11523 -0.29301 -0.11524 -0.13901 -0.11679 -0.29145 z m 6.097302,0 h 0.256316 0.290938 0.117305 0.138493 0.117306 0.290938 0.117306 0.138492 0.115239 0.293005 0.255799 v 0.2558 0.29145 0.2558 h -0.255799 -0.293005 -0.115239 v 0.11524 0.29301 0.11523 0.14056 0.11524 0.29301 0.11524 0.13849 0.11731 0.293 0.11524 0.13849 0.11731 0.29094 0.1173 0.13849 0.11731 0.29094 0.1173 h 0.115239 0.293005 0.255799 v 0.2558 0.29094 0.2558 H 50.176782 49.883777 49.768538 49.630046 49.51274 49.221802 49.104496 48.966003 48.848698 48.55776 48.301444 v -0.2558 -0.29094 -0.2558 h 0.256316 0.290938 0.117305 v -0.1173 -0.29094 -0.11731 -0.13849 -0.1173 -0.29094 -0.11731 -0.13849 -0.11524 -0.293 -0.11731 -0.13849 -0.11524 -0.29301 -0.11524 -0.14056 -0.11523 -0.29301 -0.11524 H 48.848698 48.55776 48.301444 v -0.2558 -0.29145 z m 4.771802,0 h 0.253732 0.293005 0.115238 0.14056 0.115239 0.293005 0.115239 0.139009 0.116789 0.293005 0.115239 0.139009 0.116789 0.290938 0.256315 v 0.2558 0.29145 0.11679 h 0.116789 0.291455 0.255799 v 0.25425 0.29301 0.11523 0.14056 0.11524 0.29301 0.25373 h -0.255799 -0.291455 -0.116789 v 0.11731 0.293 0.25373 h -0.256315 -0.290938 -0.116789 v 0.11731 0.29094 0.1173 h 0.116789 0.290938 0.256315 v 0.2558 0.29094 0.1173 h 0.116789 0.291455 0.255799 v 0.2558 0.29094 0.2558 h -0.255799 -0.291455 -0.255798 v -0.2558 -0.29094 -0.1173 h -0.117306 -0.290938 -0.255798 v -0.2558 -0.29094 -0.11731 h -0.115239 -0.293005 -0.255798 v -0.25579 -0.29094 -0.11731 H 54.284025 53.99102 53.875781 v 0.11731 0.29094 0.1173 0.13849 0.11731 0.29094 0.1173 0.1385 0.1173 0.29094 0.2558 h -0.255798 -0.293005 -0.253732 v -0.2558 -0.29094 -0.1173 -0.1385 -0.1173 -0.29094 -0.11731 -0.13849 -0.1173 -0.29094 -0.11731 -0.13849 -0.11524 -0.293 -0.11731 -0.13849 -0.11524 -0.29301 -0.11524 -0.14056 -0.11523 -0.29301 -0.11524 -0.13901 -0.11679 -0.29145 z m 0.802535,0.80305 v 0.11524 0.29301 0.11523 0.14056 0.11524 0.29301 0.11524 h 0.115239 0.293005 0.115239 0.139009 0.116789 0.293005 0.115239 0.139009 0.116789 0.290938 0.117306 v -0.11524 -0.29301 -0.11524 -0.14056 -0.11523 -0.29301 -0.11524 H 55.610042 55.319104 55.202315 55.063306 54.948067 54.655062 54.538273 54.399264 54.284025 53.99102 Z m -12.191504,4.47621 h 4.931999 v 4.932 h -4.931999 z m 31.78514,0 h 4.931999 v 4.932 h -4.931999 z"
         style="font-variation-settings:'wght' 400;baseline-shift:baseline;display:inline;overflow:visible;vector-effect:none;fill:#f8f8f8;paint-order:markers stroke fill;enable-background:accumulate;stop-color:#000000;stop-opacity:1"
         id="path6" /><path
         d="m 22.972758,105.63076 v 74.14276 h 74.140694 v -74.14276 z m 4.503601,4.50412 h 65.132975 v 65.13246 H 27.476359 Z"
         style="font-variation-settings:'wght' 400;baseline-shift:baseline;display:inline;overflow:visible;opacity:1;vector-effect:none;fill:#ffffff;paint-order:markers stroke fill;enable-background:accumulate;stop-color:#000000;stop-opacity:1"
         id="path5" /></g><g
       id="g8485"
       transform="translate(4.7393362,-0.17004415)"
       style="fill:#000000;fill-opacity:1"
       inkscape:export-filename="../png/mir/mir300_darkpng"
       inkscape:export-xdpi="300"
       inkscape:export-ydpi="300"><path
         id="path8484"
         style="font-variation-settings:'wght' 400;baseline-shift:baseline;display:inline;overflow:visible;vector-effect:none;fill:#000000;fill-opacity:1;paint-order:markers stroke fill;enable-background:accumulate;stop-color:#000000;stop-opacity:1"
         d="m 120.17759,117.73198 v 50.27962 h 50.2791 v -50.27962 z m 17.51883,6.37429 h 4.932 v 4.92993 h -4.932 z m -10.73836,5.43377 h 4.93199 v 4.92942 h -4.93199 z m 21.19147,0 h 4.92993 v 4.92942 h -4.92993 z m -21.19147,5.43378 h 4.93199 v 4.92942 h -4.93199 z m 5.2989,0 h 4.92993 v 4.92942 h -4.92993 z m 10.59367,0 h 4.93199 v 4.92942 h -4.93199 z m 5.2989,0 h 4.92993 v 4.92942 h -4.92993 z m 5.29683,0 h 4.932 v 4.92942 h -4.932 z m -26.4883,5.43119 h 4.93199 v 4.932 h -4.93199 z m 10.73836,0 h 4.932 v 4.932 h -4.932 z m 15.74994,0 h 4.932 v 4.932 h -4.932 z m -26.4883,5.43378 h 4.93199 v 4.93148 h -4.93199 z m 10.73836,0 h 4.932 v 4.93148 h -4.932 z m 10.45311,0 h 4.92993 v 4.93148 h -4.92993 z m 5.29683,5.43378 h 4.932 v 4.93148 h -4.932 z m -25.96844,0.15399 h 0.25373 0.29301 0.2558 v 0.2558 0.29146 0.11679 0.139 0.11524 0.29301 0.11524 h 0.11523 0.29301 0.2558 v 0.2558 0.293 0.11524 h 0.11524 0.293 0.11524 v -0.11524 -0.293 -0.2558 h 0.2558 0.29094 0.1173 v -0.11524 -0.29301 -0.11524 -0.139 -0.11679 -0.29146 -0.2558 h 0.2558 0.29094 0.25631 v 0.2558 0.29146 0.11679 0.139 0.11524 0.29301 0.11524 0.14056 0.11524 0.293 0.11524 0.13849 0.11731 0.293 0.11524 0.13849 0.11731 0.29094 0.1173 0.1385 0.1173 0.29094 0.11731 0.13849 0.1173 0.29094 0.2558 h -0.25631 -0.29094 -0.2558 v -0.2558 -0.29094 -0.1173 -0.13849 -0.11731 -0.29094 -0.1173 -0.1385 -0.1173 -0.29094 -0.11731 -0.13849 -0.11524 -0.293 -0.11731 h -0.1173 -0.29094 -0.11731 v 0.11731 0.293 0.25373 h -0.25373 -0.293 -0.2558 v -0.25373 -0.293 -0.11731 h -0.11524 -0.29301 -0.11523 v 0.11731 0.293 0.11524 0.13849 0.11731 0.29094 0.1173 0.1385 0.1173 0.29094 0.11731 0.13849 0.1173 0.29094 0.2558 h -0.2558 -0.29301 -0.25373 v -0.2558 -0.29094 -0.1173 -0.13849 -0.11731 -0.29094 -0.1173 -0.1385 -0.1173 -0.29094 -0.11731 -0.13849 -0.11524 -0.293 -0.11731 -0.13849 -0.11524 -0.293 -0.11524 -0.14056 -0.11524 -0.29301 -0.11524 -0.139 -0.11679 -0.29146 z m 6.0973,0 h 0.25632 0.29094 0.1173 0.1385 0.1173 0.29094 0.1173 0.1385 0.11524 0.293 0.2558 v 0.2558 0.29146 0.25579 h -0.2558 -0.293 -0.11524 v 0.11524 0.29301 0.11524 0.14056 0.11524 0.293 0.11524 0.13849 0.11731 0.293 0.11524 0.13849 0.11731 0.29094 0.1173 0.1385 0.1173 0.29094 0.11731 h 0.11524 0.293 0.2558 v 0.25579 0.29094 0.2558 h -0.2558 -0.293 -0.11524 -0.1385 -0.1173 -0.29094 -0.1173 -0.1385 -0.1173 -0.29094 -0.25632 v -0.2558 -0.29094 -0.25579 h 0.25632 0.29094 0.1173 v -0.11731 -0.29094 -0.1173 -0.1385 -0.1173 -0.29094 -0.11731 -0.13849 -0.11524 -0.293 -0.11731 -0.13849 -0.11524 -0.293 -0.11524 -0.14056 -0.11524 -0.29301 -0.11524 h -0.1173 -0.29094 -0.25632 v -0.25579 -0.29146 z m 4.77181,0 h 0.25373 0.293 0.11524 0.14056 0.11524 0.293 0.11524 0.13901 0.11679 0.29301 0.11523 0.13901 0.11679 0.29094 0.25632 v 0.2558 0.29146 0.11679 h 0.11679 0.29145 0.2558 v 0.25424 0.29301 0.11524 0.14056 0.11524 0.293 0.25373 h -0.2558 -0.29145 -0.11679 v 0.11731 0.293 0.25373 h -0.25632 -0.29094 -0.11679 v 0.11731 0.29094 0.1173 h 0.11679 0.29094 0.25632 v 0.2558 0.29094 0.11731 h 0.11679 0.29145 0.2558 v 0.25579 0.29094 0.2558 h -0.2558 -0.29145 -0.2558 v -0.2558 -0.29094 -0.1173 h -0.11731 -0.29094 -0.2558 v -0.2558 -0.29094 -0.1173 h -0.11523 -0.29301 -0.2558 v -0.2558 -0.29094 -0.11731 h -0.11524 -0.293 -0.11524 v 0.11731 0.29094 0.1173 0.1385 0.1173 0.29094 0.11731 0.13849 0.1173 0.29094 0.2558 h -0.2558 -0.293 -0.25373 v -0.2558 -0.29094 -0.1173 -0.13849 -0.11731 -0.29094 -0.1173 -0.1385 -0.1173 -0.29094 -0.11731 -0.13849 -0.11524 -0.293 -0.11731 -0.13849 -0.11524 -0.293 -0.11524 -0.14056 -0.11524 -0.29301 -0.11524 -0.139 -0.11679 -0.29146 z m 0.80253,0.80305 v 0.11524 0.29301 0.11524 0.14056 0.11524 0.293 0.11524 h 0.11524 0.293 0.11524 0.13901 0.11679 0.29301 0.11523 0.13901 0.11679 0.29094 0.11731 v -0.11524 -0.293 -0.11524 -0.14056 -0.11524 -0.29301 -0.11524 h -0.11731 -0.29094 -0.11679 -0.13901 -0.11523 -0.29301 -0.11679 -0.13901 -0.11524 -0.293 z m -12.1915,4.47622 h 4.93199 v 4.932 h -4.93199 z m 31.78514,0 h 4.93199 v 4.932 h -4.93199 z" /><path
         d="m 108.24629,105.80092 v 74.14225 h 74.14225 v -74.14225 z m 4.5036,4.50361 h 65.13298 v 65.13297 h -65.13298 z"
         style="font-variation-settings:'wght' 400;baseline-shift:baseline;display:inline;overflow:visible;opacity:1;vector-effect:none;fill:#000000;fill-opacity:1;stroke:none;paint-order:markers stroke fill;enable-background:accumulate;stop-color:#000000;stop-opacity:1"
         id="path8486" /></g><path
       d="m 43.808513,34.029819 v 0.2558 0.29093 0.11731 0.13849 0.11731 0.29094 0.1173 0.13849 0.11731 0.29094 0.1173 0.13901 0.11524 0.29249 0.11731 0.13901 0.11523 0.29249 0.11524 0.14108 0.11524 0.293 0.11472 0.13901 0.11731 0.29094 0.2558 h 0.25374 0.293 0.2558 v -0.2558 -0.29094 -0.11731 -0.13901 -0.11472 -0.293 -0.11524 -0.14108 -0.11524 -0.29249 -0.11523 -0.13901 -0.11731 -0.29249 -0.11524 h 0.11524 0.293 0.11524 v 0.11524 0.29249 0.25632 h 0.2558 0.29301 0.25373 v -0.25632 -0.29249 -0.11524 h 0.1173 0.29094 0.11731 v 0.11524 0.29249 0.11731 0.13901 0.11523 0.29249 0.11524 0.14108 0.11524 0.293 0.11472 0.13901 0.11731 0.29094 0.2558 h 0.25579 0.29094 0.25632 v -0.2558 -0.29094 -0.11731 -0.13901 -0.11472 -0.293 -0.11524 -0.14108 -0.11524 -0.29249 -0.11523 -0.13901 -0.11731 -0.29249 -0.11524 -0.13901 -0.1173 -0.29094 -0.11731 -0.13849 -0.1173 -0.29094 -0.11731 -0.13849 -0.11731 -0.29093 -0.2558 h -0.25632 -0.29094 -0.25579 v 0.2558 0.29093 0.11731 0.13849 0.11731 0.29094 0.1173 h -0.11731 -0.29094 -0.2558 v 0.2558 0.29094 0.1173 h -0.11523 -0.29301 -0.11524 v -0.1173 -0.29094 -0.2558 h -0.2558 -0.293 -0.11524 v -0.1173 -0.29094 -0.11731 -0.13849 -0.11731 -0.29093 -0.2558 h -0.2558 -0.293 z m 6.09731,0 v 0.2558 0.29093 0.2558 h 0.25631 0.29094 0.11731 v 0.11731 0.29094 0.1173 0.13849 0.11731 0.29094 0.1173 0.13901 0.11524 0.29249 0.11731 0.13901 0.11523 0.29249 0.11524 0.14108 0.11524 0.293 0.11472 h -0.11731 -0.29094 -0.25631 v 0.25632 0.29094 0.2558 h 0.25631 0.29094 0.11731 0.13849 0.1173 0.29094 0.11731 0.13849 0.11524 0.293 0.2558 v -0.2558 -0.29094 -0.25632 h -0.2558 -0.293 -0.11524 v -0.11472 -0.293 -0.11524 -0.14108 -0.11524 -0.29249 -0.11523 -0.13901 -0.11731 -0.29249 -0.11524 -0.13901 -0.1173 -0.29094 -0.11731 -0.13849 -0.1173 -0.29094 -0.11731 h 0.11524 0.293 0.2558 v -0.2558 -0.29093 -0.2558 h -0.2558 -0.293 -0.11524 -0.13849 -0.11731 -0.29094 -0.1173 -0.13849 -0.11731 -0.29094 z m 4.7718,0 v 0.2558 0.29093 0.11731 0.13849 0.11731 0.29094 0.1173 0.13849 0.11731 0.29094 0.1173 0.13901 0.11524 0.29249 0.11731 0.13901 0.11523 0.29249 0.11524 0.14108 0.11524 0.293 0.11472 0.13901 0.11731 0.29094 0.2558 h 0.25373 0.293 0.2558 v -0.2558 -0.29094 -0.11731 -0.13901 -0.11472 -0.293 -0.11524 -0.14108 -0.11524 -0.29249 -0.11523 h 0.11524 0.29301 0.11524 v 0.11523 0.29249 0.25632 h 0.25579 0.29301 0.11524 v 0.11524 0.293 0.25373 h 0.2558 0.29093 0.11731 v 0.11731 0.29094 0.2558 h 0.2558 0.29094 0.25631 v -0.2558 -0.29094 -0.25632 h -0.25631 -0.29094 -0.11679 v -0.11472 -0.293 -0.25632 h -0.25632 -0.29093 -0.11679 v -0.11524 -0.29249 -0.11523 h 0.11679 0.29093 0.25632 v -0.25632 -0.29249 -0.11524 h 0.11679 0.29094 0.25631 v -0.25631 -0.29094 -0.11731 -0.13849 -0.1173 -0.29094 -0.2558 h -0.25631 -0.29094 -0.11679 v -0.11731 -0.29093 -0.2558 h -0.25632 -0.29093 -0.11679 -0.13901 -0.11731 -0.29094 -0.1173 -0.13849 -0.11524 -0.29301 -0.11524 -0.14056 -0.11524 -0.293 z m -10.62158,0.24856 h 0.007 0.29197 0.007 v 0.007 0.29249 0.007 h -0.007 -0.29197 -0.007 v -0.007 -0.29197 z m 2.65514,0 h 0.007 0.29249 0.007 v 0.007 0.29249 0.007 h -0.007 -0.29249 -0.007 v -0.007 -0.29197 z m 3.4432,0 h 0.007 0.29249 0.007 v 0.007 0.29249 0.007 h -0.007 -0.29249 -0.007 v -0.007 -0.29197 z m 0.66353,0 h 0.007 0.29197 0.007 v 0.007 0.29249 0.007 h -0.007 -0.29197 -0.007 v -0.007 -0.29197 z m 0.66404,0 h 0.007 0.29197 0.007 v 0.007 0.29249 0.007 h -0.007 -0.29197 -0.007 v -0.007 -0.29197 z m 3.4432,0 h 0.007 0.29197 0.007 v 0.007 0.29249 0.007 h -0.007 -0.29197 -0.007 v -0.007 -0.29197 z m 0.66352,0 h 0.007 0.29197 0.007 v 0.007 0.29249 0.007 h -0.007 -0.29197 -0.007 v -0.007 -0.29197 z m 0.66405,0 h 0.007 0.29198 0.007 v 0.007 0.29249 0.007 h -0.007 -0.29198 -0.007 v -0.007 -0.29197 z m 0.66352,0 h 0.007 0.29197 0.007 v 0.007 0.29249 0.007 h -0.007 -0.29197 -0.007 v -0.007 -0.29197 z m -1.43609,0.55397 h 0.11524 0.29301 0.11524 0.13849 0.1173 0.29301 0.11524 0.13901 0.11679 0.29093 0.11731 v 0.11731 0.29094 0.1173 0.13849 0.11731 0.29094 0.1173 h -0.11731 -0.29093 -0.11679 -0.13901 -0.11524 -0.29301 -0.1173 -0.13849 -0.11524 -0.29301 -0.11524 v -0.1173 -0.29094 -0.11731 -0.13849 -0.1173 -0.29094 z m -11.42411,0.11007 h 0.007 0.29197 0.007 v 0.007 0.29197 0.007 h -0.007 -0.29197 -0.007 v -0.007 -0.29197 z m 2.65514,0 h 0.007 0.29249 0.007 v 0.007 0.29197 0.007 h -0.007 -0.29249 -0.007 v -0.007 -0.29197 z m 4.10673,0 h 0.007 0.29197 0.007 v 0.007 0.29197 0.007 h -0.007 -0.29197 -0.007 v -0.007 -0.29197 z m 4.10724,0 h 0.007 0.29197 0.007 v 0.007 0.29197 0.007 h -0.007 -0.29197 -0.007 v -0.007 -0.29197 z m 2.65513,0 h 0.007 0.29197 0.007 v 0.007 0.29197 0.007 h -0.007 -0.29197 -0.007 v -0.007 -0.29197 z m -13.52424,0.66353 h 0.007 0.29197 0.007 v 0.007 0.29198 0.007 h -0.007 -0.29197 -0.007 v -0.007 -0.29198 z m 0.66405,0 h 0.007 0.29198 0.007 v 0.007 0.29198 0.007 h -0.007 -0.29198 -0.007 v -0.007 -0.29198 z m 1.32705,0 h 0.007 0.29197 0.007 v 0.007 0.29198 0.007 h -0.007 -0.29197 -0.007 v -0.007 -0.29198 z m 0.66404,0 h 0.007 0.29249 0.007 v 0.007 0.29198 0.007 h -0.007 -0.29249 -0.007 v -0.007 -0.29198 z m 4.10673,0 h 0.007 0.29197 0.007 v 0.007 0.29198 0.007 h -0.007 -0.29197 -0.007 v -0.007 -0.29198 z m 4.10724,0 h 0.007 0.29197 0.007 v 0.007 0.29198 0.007 h -0.007 -0.29197 -0.007 v -0.007 -0.29198 z m 2.65513,0 h 0.007 0.29197 0.007 v 0.007 0.29198 0.007 h -0.007 -0.29197 -0.007 v -0.007 -0.29198 z m -13.52424,0.66404 h 0.007 0.29197 0.007 v 0.007 0.29197 0.007 h -0.007 -0.29197 -0.007 v -0.007 -0.29197 z m 1.32757,0 h 0.007 0.29197 0.007 v 0.007 0.29197 0.007 h -0.007 -0.29197 -0.007 v -0.007 -0.29197 z m 1.32757,0 h 0.007 0.29249 0.007 v 0.007 0.29197 0.007 h -0.007 -0.29249 -0.007 v -0.007 -0.29197 z m 4.10673,0 h 0.007 0.29197 0.007 v 0.007 0.29197 0.007 h -0.007 -0.29197 -0.007 v -0.007 -0.29197 z m 4.10724,0 h 0.007 0.29197 0.007 v 0.007 0.29197 0.007 h -0.007 -0.29197 -0.007 v -0.007 -0.29197 z m 0.66352,0 h 0.007 0.29197 0.007 v 0.007 0.29197 0.007 h -0.007 -0.29197 -0.007 v -0.007 -0.29197 z m 0.66405,0 h 0.007 0.29198 0.007 v 0.007 0.29197 0.007 h -0.007 -0.29198 -0.007 v -0.007 -0.29197 z m 0.66352,0 h 0.007 0.29197 0.007 v 0.007 0.29197 0.007 h -0.007 -0.29197 -0.007 v -0.007 -0.29197 z m -12.8602,0.66353 h 0.007 0.29197 0.007 v 0.007 0.29197 0.007 h -0.007 -0.29197 -0.007 v -0.007 -0.29197 z m 2.65514,0 h 0.007 0.29249 0.007 v 0.007 0.29197 0.007 h -0.007 -0.29249 -0.007 v -0.007 -0.29197 z m 4.10673,0 h 0.007 0.29197 0.007 v 0.007 0.29197 0.007 h -0.007 -0.29197 -0.007 v -0.007 -0.29197 z m 4.10724,0 h 0.007 0.29197 0.007 v 0.007 0.29197 0.007 h -0.007 -0.29197 -0.007 v -0.007 -0.29197 z m 1.32757,0 h 0.007 0.29198 0.007 v 0.007 0.29197 0.007 h -0.007 -0.29198 -0.007 v -0.007 -0.29197 z m -12.19668,0.66352 h 0.007 0.29197 0.007 v 0.007 0.29197 0.007 h -0.007 -0.29197 -0.007 v -0.007 -0.29197 z m 2.65514,0 h 0.007 0.29249 0.007 v 0.007 0.29197 0.007 h -0.007 -0.29249 -0.007 v -0.007 -0.29197 z m 4.10673,0 h 0.007 0.29197 0.007 v 0.007 0.29197 0.007 h -0.007 -0.29197 -0.007 v -0.007 -0.29197 z m 4.10724,0 h 0.007 0.29197 0.007 v 0.007 0.29197 0.007 h -0.007 -0.29197 -0.007 v -0.007 -0.29197 z m 1.99109,0 h 0.007 0.29197 0.007 v 0.007 0.29197 0.007 h -0.007 -0.29197 -0.007 v -0.007 -0.29197 z m -12.8602,0.66404 h 0.007 0.29197 0.007 v 0.007 0.29249 0.007 h -0.007 -0.29197 -0.007 v -0.007 -0.29249 z m 2.65514,0 h 0.007 0.29249 0.007 v 0.007 0.29249 0.007 h -0.007 -0.29249 -0.007 v -0.007 -0.29249 z m 3.4432,0 h 0.007 0.29249 0.007 v 0.007 0.29249 0.007 h -0.007 -0.29249 -0.007 v -0.007 -0.29249 z m 0.66353,0 h 0.007 0.29197 0.007 v 0.007 0.29249 0.007 h -0.007 -0.29197 -0.007 v -0.007 -0.29249 z m 0.66404,0 h 0.007 0.29197 0.007 v 0.007 0.29249 0.007 h -0.007 -0.29197 -0.007 v -0.007 -0.29249 z m 3.4432,0 h 0.007 0.29197 0.007 v 0.007 0.29249 0.007 h -0.007 -0.29197 -0.007 v -0.007 -0.29249 z m 2.65513,0 h 0.007 0.29197 0.007 v 0.007 0.29249 0.007 h -0.007 -0.29197 -0.007 v -0.007 -0.29249 z"
       style="font-size:6.63753px;font-family:Doto;-inkscape-font-specification:'Doto, @wght=303';font-variation-settings:'wght' 303;letter-spacing:1.45194px;baseline-shift:baseline;display:inline;overflow:visible;vector-effect:none;fill:#000000;fill-opacity:1;stroke:none;paint-order:markers stroke fill;enable-background:accumulate;stop-color:#000000;stop-opacity:1"
       id="path8559" /><path
       d="m 44.056043,34.278379 v 0.007 0.29197 0.007 h 0.007 0.29197 0.007 v -0.007 -0.29249 -0.007 h -0.007 -0.29197 z m 2.65514,0 v 0.007 0.29197 0.007 h 0.007 0.29249 0.007 v -0.007 -0.29249 -0.007 h -0.007 -0.29249 z m 3.4432,0 v 0.007 0.29197 0.007 h 0.007 0.29249 0.007 v -0.007 -0.29249 -0.007 h -0.007 -0.29249 z m 0.66353,0 v 0.007 0.29197 0.007 h 0.007 0.29197 0.007 v -0.007 -0.29249 -0.007 h -0.007 -0.29197 z m 0.66404,0 v 0.007 0.29197 0.007 h 0.007 0.29197 0.007 v -0.007 -0.29249 -0.007 h -0.007 -0.29197 z m 3.4432,0 v 0.007 0.29197 0.007 h 0.007 0.29197 0.007 v -0.007 -0.29249 -0.007 h -0.007 -0.29197 z m 0.66352,0 v 0.007 0.29197 0.007 h 0.007 0.29197 0.007 v -0.007 -0.29249 -0.007 h -0.007 -0.29197 z m 0.66405,0 v 0.007 0.29197 0.007 h 0.007 0.29198 0.007 v -0.007 -0.29249 -0.007 h -0.007 -0.29198 z m 0.66352,0 v 0.007 0.29197 0.007 h 0.007 0.29197 0.007 v -0.007 -0.29249 -0.007 h -0.007 -0.29197 z m -12.8602,0.66404 v 0.007 0.29197 0.007 h 0.007 0.29197 0.007 v -0.007 -0.29197 -0.007 h -0.007 -0.29197 z m 2.65514,0 v 0.007 0.29197 0.007 h 0.007 0.29249 0.007 v -0.007 -0.29197 -0.007 h -0.007 -0.29249 z m 4.10673,0 v 0.007 0.29197 0.007 h 0.007 0.29197 0.007 v -0.007 -0.29197 -0.007 h -0.007 -0.29197 z m 4.10724,0 v 0.007 0.29197 0.007 h 0.007 0.29197 0.007 v -0.007 -0.29197 -0.007 h -0.007 -0.29197 z m 2.65513,0 v 0.007 0.29197 0.007 h 0.007 0.29197 0.007 v -0.007 -0.29197 -0.007 h -0.007 -0.29197 z m -13.52424,0.66353 v 0.007 0.29198 0.007 h 0.007 0.29197 0.007 v -0.007 -0.29198 -0.007 h -0.007 -0.29197 z m 0.66405,0 v 0.007 0.29198 0.007 h 0.007 0.29198 0.007 v -0.007 -0.29198 -0.007 h -0.007 -0.29198 z m 1.32705,0 v 0.007 0.29198 0.007 h 0.007 0.29197 0.007 v -0.007 -0.29198 -0.007 h -0.007 -0.29197 z m 0.66404,0 v 0.007 0.29198 0.007 h 0.007 0.29249 0.007 v -0.007 -0.29198 -0.007 h -0.007 -0.29249 z m 4.10673,0 v 0.007 0.29198 0.007 h 0.007 0.29197 0.007 v -0.007 -0.29198 -0.007 h -0.007 -0.29197 z m 4.10724,0 v 0.007 0.29198 0.007 h 0.007 0.29197 0.007 v -0.007 -0.29198 -0.007 h -0.007 -0.29197 z m 2.65513,0 v 0.007 0.29198 0.007 h 0.007 0.29197 0.007 v -0.007 -0.29198 -0.007 h -0.007 -0.29197 z m -13.52424,0.66404 v 0.007 0.29197 0.007 h 0.007 0.29197 0.007 v -0.007 -0.29197 -0.007 h -0.007 -0.29197 z m 1.32757,0 v 0.007 0.29197 0.007 h 0.007 0.29197 0.007 v -0.007 -0.29197 -0.007 h -0.007 -0.29197 z m 1.32757,0 v 0.007 0.29197 0.007 h 0.007 0.29249 0.007 v -0.007 -0.29197 -0.007 h -0.007 -0.29249 z m 4.10673,0 v 0.007 0.29197 0.007 h 0.007 0.29197 0.007 v -0.007 -0.29197 -0.007 h -0.007 -0.29197 z m 4.10724,0 v 0.007 0.29197 0.007 h 0.007 0.29197 0.007 v -0.007 -0.29197 -0.007 h -0.007 -0.29197 z m 0.66352,0 v 0.007 0.29197 0.007 h 0.007 0.29197 0.007 v -0.007 -0.29197 -0.007 h -0.007 -0.29197 z m 0.66405,0 v 0.007 0.29197 0.007 h 0.007 0.29198 0.007 v -0.007 -0.29197 -0.007 h -0.007 -0.29198 z m 0.66352,0 v 0.007 0.29197 0.007 h 0.007 0.29197 0.007 v -0.007 -0.29197 -0.007 h -0.007 -0.29197 z m -12.8602,0.66353 v 0.007 0.29197 0.007 h 0.007 0.29197 0.007 v -0.007 -0.29197 -0.007 h -0.007 -0.29197 z m 2.65514,0 v 0.007 0.29197 0.007 h 0.007 0.29249 0.007 v -0.007 -0.29197 -0.007 h -0.007 -0.29249 z m 4.10673,0 v 0.007 0.29197 0.007 h 0.007 0.29197 0.007 v -0.007 -0.29197 -0.007 h -0.007 -0.29197 z m 4.10724,0 v 0.007 0.29197 0.007 h 0.007 0.29197 0.007 v -0.007 -0.29197 -0.007 h -0.007 -0.29197 z m 1.32757,0 v 0.007 0.29197 0.007 h 0.007 0.29198 0.007 v -0.007 -0.29197 -0.007 h -0.007 -0.29198 z m -12.19668,0.66352 v 0.007 0.29197 0.007 h 0.007 0.29197 0.007 v -0.007 -0.29197 -0.007 h -0.007 -0.29197 z m 2.65514,0 v 0.007 0.29197 0.007 h 0.007 0.29249 0.007 v -0.007 -0.29197 -0.007 h -0.007 -0.29249 z m 4.10673,0 v 0.007 0.29197 0.007 h 0.007 0.29197 0.007 v -0.007 -0.29197 -0.007 h -0.007 -0.29197 z m 4.10724,0 v 0.007 0.29197 0.007 h 0.007 0.29197 0.007 v -0.007 -0.29197 -0.007 h -0.007 -0.29197 z m 1.99109,0 v 0.007 0.29197 0.007 h 0.007 0.29197 0.007 v -0.007 -0.29197 -0.007 h -0.007 -0.29197 z m -12.8602,0.66404 v 0.007 0.29249 0.007 h 0.007 0.29197 0.007 v -0.007 -0.29249 -0.007 h -0.007 -0.29197 z m 2.65514,0 v 0.007 0.29249 0.007 h 0.007 0.29249 0.007 v -0.007 -0.29249 -0.007 h -0.007 -0.29249 z m 3.4432,0 v 0.007 0.29249 0.007 h 0.007 0.29249 0.007 v -0.007 -0.29249 -0.007 h -0.007 -0.29249 z m 0.66353,0 v 0.007 0.29249 0.007 h 0.007 0.29197 0.007 v -0.007 -0.29249 -0.007 h -0.007 -0.29197 z m 0.66404,0 v 0.007 0.29249 0.007 h 0.007 0.29197 0.007 v -0.007 -0.29249 -0.007 h -0.007 -0.29197 z m 3.4432,0 v 0.007 0.29249 0.007 h 0.007 0.29197 0.007 v -0.007 -0.29249 -0.007 h -0.007 -0.29197 z m 2.65513,0 v 0.007 0.29249 0.007 h 0.007 0.29197 0.007 v -0.007 -0.29249 -0.007 h -0.007 -0.29197 z"
       style="font-size:6.63753px;font-family:Doto;-inkscape-font-specification:'Doto, @wght=303';font-variation-settings:'wght' 303;letter-spacing:1.45194px;baseline-shift:baseline;display:inline;overflow:visible;vector-effect:none;fill:#000000;fill-opacity:1;stroke:none;paint-order:markers stroke fill;enable-background:accumulate;stop-color:#000000;stop-opacity:1"
       id="path8560" /><path
       d="m 43.288653,22.629479 v 4.931482 h 4.932 v -4.931482 z m 0.0331,0.03307 h 4.86689 v 4.86637 h -4.86689 z"
       style="baseline-shift:baseline;display:inline;overflow:visible;vector-effect:none;fill:#000000;fill-opacity:1;stroke:none;paint-order:markers stroke fill;enable-background:accumulate;stop-color:#000000;stop-opacity:1"
       id="path8561" /><path
       d="m 43.321723,22.662552 v 4.86637 h 4.86689 v -4.86637 z"
       style="baseline-shift:baseline;display:inline;overflow:visible;vector-effect:none;fill:#000000;fill-opacity:1;stroke:none;paint-order:markers stroke fill;enable-background:accumulate;stop-color:#000000;stop-opacity:1"
       id="path8562" /><path
       d="m 43.288653,17.197769 v 4.929932 h 4.932 v -4.929932 z m 0.0331,0.03152 h 4.86689 v 4.866369 h -4.86689 z"
       style="baseline-shift:baseline;display:inline;overflow:visible;vector-effect:none;fill:#000000;fill-opacity:1;stroke:none;paint-order:markers stroke fill;enable-background:accumulate;stop-color:#000000;stop-opacity:1"
       id="path8563" /><path
       d="m 43.321723,17.229292 v 4.866369 h 4.86689 v -4.866369 z"
       style="baseline-shift:baseline;display:inline;overflow:visible;vector-effect:none;fill:#000000;fill-opacity:1;stroke:none;paint-order:markers stroke fill;enable-background:accumulate;stop-color:#000000;stop-opacity:1"
       id="path8564" /><path
       d="m 54.027013,22.629479 v 4.931482 h 4.932 v -4.931482 z m 0.0331,0.03307 h 4.86637 v 4.86637 h -4.86637 z"
       style="baseline-shift:baseline;display:inline;overflow:visible;vector-effect:none;fill:#000000;fill-opacity:1;stroke:none;paint-order:markers stroke fill;enable-background:accumulate;stop-color:#000000;stop-opacity:1"
       id="path8565" /><path
       d="m 54.060083,22.662552 v 4.86637 h 4.86637 v -4.86637 z"
       style="baseline-shift:baseline;display:inline;overflow:visible;vector-effect:none;fill:#000000;fill-opacity:1;stroke:none;paint-order:markers stroke fill;enable-background:accumulate;stop-color:#000000;stop-opacity:1"
       id="path8566" /><path
       d="m 75.073793,38.930289 v 4.93149 h 4.932 v -4.93149 z m 0.0331,0.0326 h 4.86637 v 4.86637 h -4.86637 z"
       style="baseline-shift:baseline;display:inline;overflow:visible;vector-effect:none;fill:#000000;fill-opacity:1;stroke:none;paint-order:markers stroke fill;enable-background:accumulate;stop-color:#000000;stop-opacity:1"
       id="path8567" /><path
       d="m 75.106863,38.962849 v 4.86637 h 4.86637 v -4.86637 z"
       style="baseline-shift:baseline;display:inline;overflow:visible;vector-effect:none;fill:#000000;fill-opacity:1;stroke:none;paint-order:markers stroke fill;enable-background:accumulate;stop-color:#000000;stop-opacity:1"
       id="path8568" /><path
       d="m 64.480123,17.197769 v 4.929932 h 4.92993 v -4.929932 z m 0.0315,0.03152 h 4.86689 v 4.866369 h -4.86689 z"
       style="baseline-shift:baseline;display:inline;overflow:visible;vector-effect:none;fill:#000000;fill-opacity:1;stroke:none;paint-order:markers stroke fill;enable-background:accumulate;stop-color:#000000;stop-opacity:1"
       id="path8569" /><path
       d="m 64.511643,17.229292 v 4.866369 h 4.86689 v -4.866369 z"
       style="baseline-shift:baseline;display:inline;overflow:visible;vector-effect:none;fill:#000000;fill-opacity:1;stroke:none;paint-order:markers stroke fill;enable-background:accumulate;stop-color:#000000;stop-opacity:1"
       id="path8570" /><path
       d="m 59.181223,17.197769 v 4.929932 h 4.932 v -4.929932 z m 0.0331,0.03152 h 4.86637 v 4.866369 h -4.86637 z"
       style="baseline-shift:baseline;display:inline;overflow:visible;vector-effect:none;fill:#000000;fill-opacity:1;stroke:none;paint-order:markers stroke fill;enable-background:accumulate;stop-color:#000000;stop-opacity:1"
       id="path8571" /><path
       d="m 59.214293,17.229292 v 4.866369 h 4.86637 v -4.866369 z"
       style="baseline-shift:baseline;display:inline;overflow:visible;vector-effect:none;fill:#000000;fill-opacity:1;stroke:none;paint-order:markers stroke fill;enable-background:accumulate;stop-color:#000000;stop-opacity:1"
       id="path8572" /><path
       d="m 54.027013,6.3307323 v 4.9294147 h 4.932 V 6.3307323 Z m 0.0331,0.03152 h 4.86637 v 4.8663697 h -4.86637 z"
       style="baseline-shift:baseline;display:inline;overflow:visible;vector-effect:none;fill:#000000;fill-opacity:1;stroke:none;paint-order:markers stroke fill;enable-background:accumulate;stop-color:#000000;stop-opacity:1"
       id="path8573" /><path
       d="m 54.060083,6.3622553 v 4.8663697 h 4.86637 V 6.3622553 Z"
       style="baseline-shift:baseline;display:inline;overflow:visible;vector-effect:none;fill:#000000;fill-opacity:1;stroke:none;paint-order:markers stroke fill;enable-background:accumulate;stop-color:#000000;stop-opacity:1"
       id="path8574" /><path
       d="m 48.587553,17.197769 v 4.929932 h 4.92993 v -4.929932 z m 0.032,0.03152 h 4.86637 v 4.866369 h -4.86637 z"
       style="baseline-shift:baseline;display:inline;overflow:visible;vector-effect:none;fill:#000000;fill-opacity:1;stroke:none;paint-order:markers stroke fill;enable-background:accumulate;stop-color:#000000;stop-opacity:1"
       id="path8575" /><path
       d="m 48.619593,17.229292 v 4.866369 h 4.86637 v -4.866369 z"
       style="baseline-shift:baseline;display:inline;overflow:visible;vector-effect:none;fill:#000000;fill-opacity:1;stroke:none;paint-order:markers stroke fill;enable-background:accumulate;stop-color:#000000;stop-opacity:1"
       id="path8576" /><path
       d="m 43.288653,28.063256 v 4.931483 h 4.932 v -4.931483 z m 0.0331,0.03256 h 4.86689 v 4.866887 h -4.86689 z"
       style="baseline-shift:baseline;display:inline;overflow:visible;vector-effect:none;fill:#000000;fill-opacity:1;stroke:none;paint-order:markers stroke fill;enable-background:accumulate;stop-color:#000000;stop-opacity:1"
       id="path8577" /><path
       d="m 43.321723,28.095812 v 4.866887 h 4.86689 v -4.866887 z"
       style="baseline-shift:baseline;display:inline;overflow:visible;vector-effect:none;fill:#000000;fill-opacity:1;stroke:none;paint-order:markers stroke fill;enable-background:accumulate;stop-color:#000000;stop-opacity:1"
       id="path8578" /><path
       d="m 69.776963,22.629479 v 4.931482 h 4.93199 v -4.931482 z m 0.0325,0.03307 h 4.86637 v 4.86637 h -4.86637 z"
       style="baseline-shift:baseline;display:inline;overflow:visible;vector-effect:none;fill:#000000;fill-opacity:1;stroke:none;paint-order:markers stroke fill;enable-background:accumulate;stop-color:#000000;stop-opacity:1"
       id="path8579" /><path
       d="m 69.809513,22.662552 v 4.86637 h 4.86637 v -4.86637 z"
       style="baseline-shift:baseline;display:inline;overflow:visible;vector-effect:none;fill:#000000;fill-opacity:1;stroke:none;paint-order:markers stroke fill;enable-background:accumulate;stop-color:#000000;stop-opacity:1"
       id="path8580" /><path
       d="m 43.288653,40.084749 v 4.93148 h 4.932 v -4.93148 z m 0.0331,0.032 h 4.86689 v 4.86689 h -4.86689 z"
       style="baseline-shift:baseline;display:inline;overflow:visible;vector-effect:none;fill:#000000;fill-opacity:1;stroke:none;paint-order:markers stroke fill;enable-background:accumulate;stop-color:#000000;stop-opacity:1"
       id="path8581" /><path
       d="m 43.321723,40.116779 v 4.86689 h 4.86689 v -4.86689 z"
       style="baseline-shift:baseline;display:inline;overflow:visible;vector-effect:none;fill:#000000;fill-opacity:1;stroke:none;paint-order:markers stroke fill;enable-background:accumulate;stop-color:#000000;stop-opacity:1"
       id="path8582" /><path
       d="m 69.776963,33.496519 v 4.932 h 4.93199 v -4.932 z m 0.0325,0.0331 h 4.86637 v 4.86637 h -4.86637 z"
       style="baseline-shift:baseline;display:inline;overflow:visible;vector-effect:none;fill:#000000;fill-opacity:1;stroke:none;paint-order:markers stroke fill;enable-background:accumulate;stop-color:#000000;stop-opacity:1"
       id="path8583" /><path
       d="m 69.809513,33.529589 v 4.86637 h 4.86637 v -4.86637 z"
       style="baseline-shift:baseline;display:inline;overflow:visible;vector-effect:none;fill:#000000;fill-opacity:1;stroke:none;paint-order:markers stroke fill;enable-background:accumulate;stop-color:#000000;stop-opacity:1"
       id="path8584" /><path
       d="m 64.480123,28.063256 v 4.931483 h 4.92993 v -4.931483 z m 0.0315,0.03256 h 4.86689 v 4.866887 h -4.86689 z"
       style="baseline-shift:baseline;display:inline;overflow:visible;vector-effect:none;fill:#000000;fill-opacity:1;stroke:none;paint-order:markers stroke fill;enable-background:accumulate;stop-color:#000000;stop-opacity:1"
       id="path8585" /><path
       d="m 64.511643,28.095812 v 4.866887 h 4.86689 v -4.866887 z"
       style="baseline-shift:baseline;display:inline;overflow:visible;vector-effect:none;fill:#000000;fill-opacity:1;stroke:none;paint-order:markers stroke fill;enable-background:accumulate;stop-color:#000000;stop-opacity:1"
       id="path8586" /><path
       d="m 54.027013,28.063256 v 4.931483 h 4.932 v -4.931483 z m 0.0331,0.03256 h 4.86637 v 4.866887 h -4.86637 z"
       style="baseline-shift:baseline;display:inline;overflow:visible;vector-effect:none;fill:#000000;fill-opacity:1;stroke:none;paint-order:markers stroke fill;enable-background:accumulate;stop-color:#000000;stop-opacity:1"
       id="path8587" /><path
       d="m 54.060083,28.095812 v 4.866887 h 4.86637 v -4.866887 z"
       style="baseline-shift:baseline;display:inline;overflow:visible;vector-effect:none;fill:#000000;fill-opacity:1;stroke:none;paint-order:markers stroke fill;enable-background:accumulate;stop-color:#000000;stop-opacity:1"
       id="path8588" /><path
       d="m 69.776963,17.197769 v 4.929932 h 4.93199 v -4.929932 z m 0.0325,0.03152 h 4.86637 v 4.866369 h -4.86637 z"
       style="baseline-shift:baseline;display:inline;overflow:visible;vector-effect:none;fill:#000000;fill-opacity:1;stroke:none;paint-order:markers stroke fill;enable-background:accumulate;stop-color:#000000;stop-opacity:1"
       id="path8589" /><path
       d="m 69.809513,17.229292 v 4.866369 h 4.86637 v -4.866369 z"
       style="baseline-shift:baseline;display:inline;overflow:visible;vector-effect:none;fill:#000000;fill-opacity:1;stroke:none;paint-order:markers stroke fill;enable-background:accumulate;stop-color:#000000;stop-opacity:1"
       id="path8590" /><path
       d="m 64.480123,11.763992 v 4.929932 h 4.92993 v -4.929932 z m 0.0315,0.03152 h 4.86689 v 4.866886 h -4.86689 z"
       style="baseline-shift:baseline;display:inline;overflow:visible;vector-effect:none;fill:#000000;fill-opacity:1;stroke:none;paint-order:markers stroke fill;enable-background:accumulate;stop-color:#000000;stop-opacity:1"
       id="path8591" /><path
       d="m 64.511643,11.795515 v 4.866886 h 4.86689 v -4.866886 z"
       style="baseline-shift:baseline;display:inline;overflow:visible;vector-effect:none;fill:#000000;fill-opacity:1;stroke:none;paint-order:markers stroke fill;enable-background:accumulate;stop-color:#000000;stop-opacity:1"
       id="path8592" /><path
       d="m 43.288653,11.763992 v 4.929932 h 4.932 v -4.929932 z m 0.0331,0.03152 h 4.86689 v 4.866886 h -4.86689 z"
       style="baseline-shift:baseline;display:inline;overflow:visible;vector-effect:none;fill:#000000;fill-opacity:1;stroke:none;paint-order:markers stroke fill;enable-background:accumulate;stop-color:#000000;stop-opacity:1"
       id="path8593" /><path
       d="m 43.321723,11.795515 v 4.866886 h 4.86689 v -4.866886 z"
       style="baseline-shift:baseline;display:inline;overflow:visible;vector-effect:none;fill:#000000;fill-opacity:1;stroke:none;paint-order:markers stroke fill;enable-background:accumulate;stop-color:#000000;stop-opacity:1"
       id="path8594" /><rect
       style="fill:#000000;fill-opacity:0;stroke-width:0.430904;paint-order:markers fill stroke"
       id="rect1"
       width="70.771477"
       height="70.189522"
       x="70.219788"
       y="215.08179"
       rx="4.4156108"
       ry="0"
       inkscape:export-filename="../darkshapes_full1280.png"
       inkscape:export-xdpi="172.38"
       inkscape:export-ydpi="172.38" /><text
       xml:space="preserve"
       transform="scale(0.26458333)"
       id="text6"
       style="font-size:26.6667px;font-family:'Hiragino Sans GB';-inkscape-font-specification:'Hiragino Sans GB, @wght=400';font-variation-settings:'wght' 400;text-align:start;letter-spacing:3.5px;writing-mode:lr-tb;direction:ltr;white-space:pre;shape-inside:url(#rect6);display:inline;fill:#b62519;fill-opacity:1;stroke-width:15.4507;paint-order:markers stroke fill" /><g
       id="g7"
       inkscape:export-filename="../png/mir/mir_splash1280.png"
       inkscape:export-xdpi="300"
       inkscape:export-ydpi="300"><rect
         style="fill:#000000;fill-opacity:1;stroke-width:0.815281;paint-order:markers fill stroke"
         id="rect7"
         width="188.56168"
         height="94.304047"
         x="11.788424"
         y="202.56078"
         rx="11.764839"
         ry="14.443328"
         inkscape:export-filename="../png/mir/mir_splash1280.png"
         inkscape:export-xdpi="172.38"
         inkscape:export-ydpi="172.38" /><g
         id="g2"
         transform="translate(46.026306,2.9590874)"
         style="fill:#ffffff;fill-opacity:1"><path
           id="path1"
           style="font-variation-settings:'wght' 400;baseline-shift:baseline;display:inline;overflow:visible;vector-effect:none;fill:#ffffff;fill-opacity:1;paint-order:markers stroke fill;enable-background:accumulate;stop-color:#000000;stop-opacity:1"
           d="m 34.903572,221.61403 v 50.27962 h 50.279102 v -50.27962 z m 17.518827,6.37429 h 4.931999 v 4.92993 h -4.931999 z m -10.738362,5.43377 h 4.931998 v 4.92942 h -4.931998 z m 21.191471,0 h 4.929932 v 4.92942 h -4.929932 z m -21.191471,5.43378 h 4.931998 v 4.92942 h -4.931998 z m 5.298901,0 h 4.929932 v 4.92942 h -4.929932 z m 10.593669,0 h 4.931998 v 4.92942 h -4.931998 z m 5.298901,0 h 4.929932 v 4.92942 h -4.929932 z m 5.296834,0 h 4.931999 v 4.92942 h -4.931999 z m -26.488305,5.43119 h 4.931998 v 4.932 h -4.931998 z m 10.738362,0 h 4.931999 v 4.932 h -4.931999 z m 15.749943,0 h 4.931999 v 4.932 h -4.931999 z m -26.488305,5.43378 h 4.931998 v 4.93148 h -4.931998 z m 10.738362,0 h 4.931999 v 4.93148 h -4.931999 z m 10.453109,0 h 4.929932 v 4.93148 h -4.929932 z m 5.296834,5.43378 h 4.931999 v 4.93148 h -4.931999 z m -25.96844,0.15399 h 0.253731 0.293005 0.255799 v 0.2558 0.29146 0.11679 0.139 0.11524 0.29301 0.11524 h 0.115238 0.293006 0.255798 v 0.2558 0.293 0.11524 h 0.115238 0.293006 0.115238 v -0.11524 -0.293 -0.2558 h 0.255798 0.290939 0.117305 v -0.11524 -0.29301 -0.11524 -0.139 -0.11679 -0.29146 -0.2558 h 0.255799 0.290938 0.256315 v 0.2558 0.29146 0.11679 0.139 0.11524 0.29301 0.11524 0.14056 0.11524 0.293 0.11524 0.13849 0.11731 0.293 0.11524 0.13849 0.11731 0.29094 0.1173 0.1385 0.1173 0.29094 0.11731 0.13849 0.1173 0.29094 0.2558 H 45.40474 45.113802 44.858003 v -0.2558 -0.29094 -0.1173 -0.13849 -0.11731 -0.29094 -0.1173 -0.1385 -0.1173 -0.29094 -0.11731 -0.13849 -0.11524 -0.293 -0.11731 h -0.117305 -0.290939 -0.117305 v 0.11731 0.293 0.25373 h -0.253731 -0.293006 -0.255798 v -0.25373 -0.293 -0.11731 h -0.115238 -0.293006 -0.115238 v 0.11731 0.293 0.11524 0.13849 0.11731 0.29094 0.1173 0.1385 0.1173 0.29094 0.11731 0.13849 0.1173 0.29094 0.2558 h -0.255799 -0.293005 -0.253731 v -0.2558 -0.29094 -0.1173 -0.13849 -0.11731 -0.29094 -0.1173 -0.1385 -0.1173 -0.29094 -0.11731 -0.13849 -0.11524 -0.293 -0.11731 -0.13849 -0.11524 -0.293 -0.11524 -0.14056 -0.11524 -0.29301 -0.11524 -0.139 -0.11679 -0.29146 z m 6.097302,0 h 0.256315 0.290938 0.117306 0.138493 0.117305 0.290939 0.117305 0.138493 0.115238 0.293006 0.255798 v 0.2558 0.29146 0.25579 h -0.255798 -0.293006 -0.115238 v 0.11524 0.29301 0.11524 0.14056 0.11524 0.293 0.11524 0.13849 0.11731 0.293 0.11524 0.13849 0.11731 0.29094 0.1173 0.1385 0.1173 0.29094 0.11731 h 0.115238 0.293006 0.255798 v 0.25579 0.29094 0.2558 H 50.176542 49.883536 49.768298 49.629805 49.5125 49.221561 49.104256 48.965763 48.848457 48.557519 48.301204 v -0.2558 -0.29094 -0.25579 h 0.256315 0.290938 0.117306 v -0.11731 -0.29094 -0.1173 -0.1385 -0.1173 -0.29094 -0.11731 -0.13849 -0.11524 -0.293 -0.11731 -0.13849 -0.11524 -0.293 -0.11524 -0.14056 -0.11524 -0.29301 -0.11524 h -0.117306 -0.290938 -0.256315 v -0.25579 -0.29146 z m 4.771802,0 h 0.253731 0.293005 0.115239 0.14056 0.115238 0.293006 0.115238 0.13901 0.116788 0.293006 0.115238 0.13901 0.116788 0.290939 0.256315 v 0.2558 0.29146 0.11679 h 0.116789 0.291455 0.255798 v 0.25424 0.29301 0.11524 0.14056 0.11524 0.293 0.25373 h -0.255798 -0.291455 -0.116789 v 0.11731 0.293 0.25373 h -0.256315 -0.290939 -0.116788 v 0.11731 0.29094 0.1173 h 0.116788 0.290939 0.256315 v 0.2558 0.29094 0.11731 h 0.116789 0.291455 0.255798 v 0.25579 0.29094 0.2558 h -0.255798 -0.291455 -0.255799 v -0.2558 -0.29094 -0.1173 h -0.117305 -0.290939 -0.255798 v -0.2558 -0.29094 -0.1173 h -0.115238 -0.293006 -0.255798 v -0.2558 -0.29094 -0.11731 h -0.115238 -0.293006 -0.115238 v 0.11731 0.29094 0.1173 0.1385 0.1173 0.29094 0.11731 0.13849 0.1173 0.29094 0.2558 h -0.255799 -0.293005 -0.253731 v -0.2558 -0.29094 -0.1173 -0.13849 -0.11731 -0.29094 -0.1173 -0.1385 -0.1173 -0.29094 -0.11731 -0.13849 -0.11524 -0.293 -0.11731 -0.13849 -0.11524 -0.293 -0.11524 -0.14056 -0.11524 -0.29301 -0.11524 -0.139 -0.11679 -0.29146 z m 0.802535,0.80305 v 0.11524 0.29301 0.11524 0.14056 0.11524 0.293 0.11524 h 0.115238 0.293006 0.115238 0.13901 0.116788 0.293006 0.115238 0.13901 0.116788 0.290939 0.117305 v -0.11524 -0.293 -0.11524 -0.14056 -0.11524 -0.29301 -0.11524 h -0.117305 -0.290939 -0.116788 -0.13901 -0.115238 -0.293006 -0.116788 -0.13901 -0.115238 -0.293006 z m -12.191504,4.47622 h 4.931998 v 4.932 h -4.931998 z m 31.78514,0 h 4.931998 v 4.932 h -4.931998 z"
           inkscape:export-filename="../png/mir/mir75_light.png"
           inkscape:export-xdpi="75"
           inkscape:export-ydpi="75" /><path
           d="m 22.972583,209.68168 v 74.14276 h 74.140694 v -74.14276 z m 4.504118,4.50567 h 65.132458 v 65.13297 H 27.476701 Z"
           style="font-variation-settings:'wght' 400;baseline-shift:baseline;display:inline;overflow:visible;opacity:1;vector-effect:none;fill:#ffffff;paint-order:markers stroke fill;enable-background:accumulate;stop-color:#000000;stop-opacity:1;fill-opacity:1"
           id="path4" /></g><g
         id="g10"
         transform="matrix(0.2207369,-0.00177485,0.00177485,0.2207369,135.53344,199.30531)"
         style="display:inline;fill:#b62519;fill-opacity:1"
         inkscape:export-filename="../darkshapes_logo06d.png"
         inkscape:export-xdpi="116"
         inkscape:export-ydpi="116"><g
           id="g5"
           style="display:inline;fill:#b62519;fill-opacity:1"><path
             d="m 238.00001,368.21665 -41.28017,6.98407 c 0.2823,0.27145 0.57521,0.51165 0.84853,0.68161 0.51838,0.32237 0.86156,0.52707 2.00659,0.66352 h 38.46742 v -8.39018 c 0,0 -0.0562,0.009 -0.0424,0.061 z"
             style="display:inline;opacity:1;fill:#b62519;fill-opacity:1;stroke-width:5.16257;paint-order:markers fill stroke"
             id="path5-9"
             sodipodi:nodetypes="cccccccc" /><path
             d="m 197.92187,364.21431 c -0.32393,0.0888 -0.56584,0.18957 -0.75396,0.31729 -2.26782,1.53969 -3.12511,6.04475 -1.71566,9.01495 0.1741,0.36689 0.47266,0.78749 0.81855,1.18288 l 41.75611,-9.3493 c -0.003,-0.33303 -0.004,-0.90464 -0.007,-1.16582 z"
             style="display:inline;opacity:1;fill:#b62519;fill-opacity:1;stroke-width:5.16257;paint-order:markers fill stroke"
             id="path3" /></g><path
           id="path9"
           style="display:inline;fill:#b62519;fill-opacity:1;stroke:none;stroke-width:5.16257;paint-order:markers fill stroke"
           d="m 166.438,360.77007 c -0.11378,-10e-6 -0.22417,0.009 -0.33331,0.0233 l -0.82424,0.50798 -0.0176,0.0119 -1.96887,1.27848 -1.1467,0.92191 -0.28939,0.24804 c 4.17632,3.51121 8.47799,6.85927 9.01443,7.03678 0.54863,0.18154 0.77353,0.43895 1.23765,0.5116 0.63606,0.0996 1.57512,-0.51298 2.28049,-0.30748 0.3615,0.10546 0.51946,-0.0824 0.87694,0 -1.86152,0.67025 -1.58654,2.14438 -4.12843,2.91817 -0.23472,-0.34062 -0.13705,-0.3487 -0.32246,-0.72967 -0.1925,-0.39568 -0.0736,-0.88677 0.0599,-1.43144 -0.97271,-1.17087 -4.89144,-4.37508 -9.27385,-7.77937 l -0.60255,0.51625 -2.12959,2.49856 -1.31981,1.97197 c -0.11682,0.19946 -0.21818,0.36028 -0.34107,0.57309 l 5.2e-4,8.28012 c 3.01747,0.45445 6.05722,0.87537 7.66103,1.14049 0.58751,0.097 1.12151,-0.37617 1.98437,-1.11621 0.64549,-0.55359 0.60476,-0.50065 1.34411,-1.25522 0.15343,-0.1566 -0.13457,0.4753 -0.21394,0.7922 -0.54349,2.16928 -0.43362,3.77411 -0.009,4.81108 -0.55429,-0.0664 -2.07959,-2.75486 -2.67063,-2.80396 -0.64647,-0.0537 -4.37685,-0.64528 -8.09563,-1.19993 l 5.1e-4,13.4183 c 9.83133,-6.99876 10.93083,-8.44866 10.96161,-8.57364 0.21708,0.59242 0.20743,0.88236 1.04179,1.91823 -3.56598,1.36263 -7.96701,4.12115 -12.0034,6.83163 v 6.97166 h 13.39092 c 0.98149,-2.67158 1.87477,-5.37892 2.39158,-8.12663 0.0298,-0.15869 0.19357,-1.05078 0.30903,-1.85674 0.0755,-0.52732 -0.53035,-1.29018 -0.54726,-1.5136 -0.10275,-0.27671 0.086,-0.6291 0.3576,-1.0051 0.91592,-0.82033 0.51265,-2.34508 1.92702,-2.49081 1.81582,-0.38315 4.13264,3.57993 3.622,4.40697 -0.1967,0.31858 -0.0715,0.10513 -0.40256,0.51935 -0.1341,0.16779 -0.26082,0.37798 -0.44648,0.42271 -0.92948,0.22393 -1.23533,0.46742 -1.47485,0.63459 -0.17851,0.12459 -0.33866,0.27288 -0.50126,0.41806 -2.29749,2.05147 -3.68005,5.23201 -4.69274,8.5912 h 10.1291 l 0.84077,-0.0295 -2.60139,-9.73584 c 1.09796,-0.18823 2.01361,-1.00794 2.81379,-1.49397 -1.17877,0.88493 -1.82917,1.50957 -1.48002,3.00499 l 1.9296,8.20001 c 3.24338,-0.30861 6.05204,-1.93979 8.44496,-4.03437 -2.44186,-2.75872 -5.31476,-5.70923 -8.02225,-7.93389 -0.75915,-0.62379 -1.92162,-1.12727 -2.70371,-1.69808 -1.00791,0.0159 -1.71507,-0.60407 -1.73891,-0.96377 -0.17608,-0.85023 1.30899,-3.13613 2.67787,-2.27531 0.3728,0.23443 1.00618,0.55275 0.9369,1.31671 -0.0242,0.26688 0.31592,0.70833 0.40617,1.02371 0.4286,0.56277 0.74099,1.0528 1.06609,1.53479 0.32511,0.48194 0.663,0.95596 1.01182,1.42214 0.3488,0.4662 0.70783,0.92438 1.07694,1.37459 0.36908,0.45019 0.7478,0.89254 1.13378,1.32653 0.38594,0.43402 0.77893,0.85978 1.17822,1.27745 0.3993,0.41766 0.80489,0.82743 1.2144,1.22834 0.5666,0.55468 1.36782,1.44426 2.04949,2.01022 0.64695,-0.73746 1.54878,-2.09553 2.28358,-3.60908 0.9033,-1.86066 0.97417,-1.93813 0.9741,-1.99575 V 395.23 h 38.46742 c 1.14504,-0.13645 1.48821,-0.34116 2.00659,-0.66353 0.78635,-0.489 1.73861,-1.54018 2.11615,-2.33577 1.40945,-2.97021 0.55216,-7.47527 -1.71565,-9.01496 -0.18812,-0.12772 -0.43003,-0.22846 -0.75396,-0.31729 H 194.7874 l -0.0244,-2.4e-4 -0.004,-7.35383 -9.23406,1.79575 -1.42627,0.2775 c -1.25436,0.22895 -1.64717,0.36298 -2.31924,0.59893 -0.23254,0.0816 -0.42917,0.67767 -0.64596,0.755 -1.17711,0.41985 -1.95924,-1.29544 -1.65726,-2.00867 0.12898,-0.30456 0.34093,-0.76311 1.25315,-0.63355 0.69659,0.72747 2.73704,0.51001 3.20032,0.45579 0.47833,-0.0559 0.93531,-0.11109 1.37305,-0.16537 4.41398,-0.54776 6.89621,-1.02755 9.45627,-1.57716 l -0.002,-4.32429 c -1.20515,-2.87922 -2.8967,-5.45202 -5.18004,-7.22901 -1.88541,2.70525 -3.77263,5.40268 -5.27669,8.29406 -0.40396,0.78701 -1.00711,1.55337 -0.74827,2.45619 l 0.093,0.54673 -0.25373,0.39998 h -1.67277 c -1.83562,-0.29874 -2.17701,-0.98742 -2.6417,-1.97353 -0.19347,-0.36646 -0.23885,-0.39825 0.12092,-0.59324 0.1573,-0.0843 0.35499,-0.18836 0.56018,-0.29094 1.62919,-0.81448 1.34647,-0.24552 2.25929,-0.8139 0.19391,-0.12074 0.41957,-0.28704 0.72192,-0.524 0.21452,-0.16812 0.42544,-0.34434 0.63304,-0.52762 2.23332,-1.97182 4.06065,-4.77654 5.51956,-7.47344 -1.54714,-1.04125 -3.34462,-1.73254 -5.425,-1.93529 -0.84527,-0.0733 -2.04589,-0.12055 -3.60029,-0.15916 l -0.60307,7.45278 c -0.1243,0.91703 0.0646,1.75521 0.42323,2.58175 l 0.30696,0.70848 c -1.25772,-0.69534 -2.15919,-0.91073 -4.11293,-0.81028 0.009,-0.08 0.86396,-0.16302 1.56942,-0.76585 0.0978,-0.0836 0.1852,-0.15904 0.25269,-0.23616 0.27542,-0.31467 0.45104,-0.66847 0.5762,-1.04283 0.13213,-0.39516 0.50731,-1.80447 1.29501,-7.89616 -2.06328,-0.0474 -4.80846,-0.0796 -8.74934,-0.11679 -1.48846,0.005 -2.92145,0.002 -4.38681,0 z"
           sodipodi:nodetypes="cccccccsccccccccccccccsccsccccccccccccssssccccccccccccsscccsccccccccscsccccccccccccccccccccccssscccccccccccccc" /><path
           d="m 238.02691,365.38013 c 0.002,0.17168 0.002,0.40909 0.003,0.60099 l 0.008,-0.60358 z"
           style="display:inline;opacity:1;fill:#b62519;fill-opacity:1;stroke-width:0.600001;paint-order:markers fill stroke"
           id="path4-8" /></g></g></g></svg>
