<?xml version="1.0" encoding="UTF-8" standalone="no"?>
<!-- Created with Inkscape (http://www.inkscape.org/) -->

<svg
   width="185.91557mm"
   height="53.622841mm"
   viewBox="0 0 185.91557 53.622841"
   version="1.1"
   id="svg1"
   sodipodi:docname="SDBXtext.svg"
   inkscape:version="1.3.2 (091e20e, 2023-11-25)"
   inkscape:export-filename="../SDBXtext.png"
   inkscape:export-xdpi="140.33919"
   inkscape:export-ydpi="140.33919"
   xmlns:inkscape="http://www.inkscape.org/namespaces/inkscape"
   xmlns:sodipodi="http://sodipodi.sourceforge.net/DTD/sodipodi-0.dtd"
   xmlns="http://www.w3.org/2000/svg"
   xmlns:svg="http://www.w3.org/2000/svg">
  <sodipodi:namedview
     id="namedview1"
     pagecolor="#505050"
     bordercolor="#eeeeee"
     borderopacity="1"
     inkscape:showpageshadow="0"
     inkscape:pageopacity="0"
     inkscape:pagecheckerboard="0"
     inkscape:deskcolor="#505050"
     inkscape:document-units="mm"
     inkscape:zoom="0.55525338"
     inkscape:cx="390.81257"
     inkscape:cy="271.04743"
     inkscape:window-width="1440"
     inkscape:window-height="847"
     inkscape:window-x="0"
     inkscape:window-y="1561"
     inkscape:window-maximized="0"
     inkscape:current-layer="layer2"
     showguides="true" />
  <defs
     id="defs1" />
  <g
     inkscape:groupmode="layer"
     id="layer3"
     inkscape:label="bg"
     style="display:none"
     transform="translate(-11.577372,-34.723389)">
    <rect
       style="opacity:1;fill:#3f4245;fill-opacity:1;stroke:none;stroke-width:0.960482;stroke-linecap:round"
       id="rect1-6"
       width="195.1541"
       height="74.372017"
       x="7.5036435"
       y="24.348677"
       rx="14.299511"
       ry="21.711849"
       inkscape:export-filename="sdbx4kv3.png"
       inkscape:export-xdpi="600"
       inkscape:export-ydpi="600" />
  </g>
  <g
     inkscape:groupmode="layer"
     id="layer4"
     inkscape:label="shadowbox"
     transform="translate(-11.577372,-34.723389)" />
  <g
     inkscape:groupmode="layer"
     id="layer2"
     inkscape:label="Layer 2"
     transform="translate(-11.577372,-34.723389)">
    <g
       id="g22"
       inkscape:export-filename="../g22.png"
       inkscape:export-xdpi="140.33919"
       inkscape:export-ydpi="140.33919">
      <path
         d="m 173.34549,57.693636 -0.34313,0.173633 c -0.4788,0.242226 -0.82293,0.722223 -0.8847,1.233516 -0.027,0.223705 -0.0381,2.31715 -0.0248,4.651913 0.0264,4.658284 0.005,4.446481 0.4992,4.915979 0.47562,0.451426 0.36222,0.441642 5.21932,0.444934 3.85544,0.0026 4.49829,-0.01301 4.74545,-0.116272 0.36584,-0.152858 0.60794,-0.380401 0.81648,-0.767912 0.16467,-0.305972 0.1664,-0.349149 0.1664,-4.823995 v -4.515487 l -0.17156,-0.320393 c -0.0943,-0.176401 -0.26811,-0.396608 -0.38603,-0.489376 -0.49741,-0.391313 -0.4287,-0.38654 -5.18573,-0.38654 z m 8.6589,0.499194 c 0.0247,-0.02045 0.06,-0.01554 0.12299,0.01705 0.0486,0.02513 0.14531,0.05367 0.21446,0.06356 0.0938,0.01341 0.12785,0.03161 0.13539,0.0708 0.0139,0.07214 0.11753,0.154735 0.17674,0.141077 0.0355,-0.0082 0.0663,0.02366 0.11369,0.116789 0.0358,0.07032 0.097,0.157512 0.1359,0.193786 0.0504,0.04701 0.0663,0.08365 0.0553,0.127641 -0.009,0.03395 -0.002,0.08714 0.0145,0.118339 0.0466,0.08703 0.043,8.673609 -0.004,8.748303 -0.0257,0.04124 -0.0263,0.06255 -0.003,0.0863 0.0238,0.02376 0.006,0.0638 -0.0713,0.161747 -0.0565,0.0715 -0.1183,0.167697 -0.13746,0.213941 -0.0212,0.05126 -0.0495,0.07835 -0.0718,0.06976 -0.0548,-0.02103 -0.20993,0.104295 -0.19585,0.15813 0.009,0.03525 -0.014,0.04852 -0.1049,0.06098 -0.0642,0.0088 -0.16155,0.04228 -0.21601,0.07441 -0.0876,0.05167 -0.10091,0.05367 -0.11576,0.01499 -0.0153,-0.03978 -0.38913,-0.04393 -4.12378,-0.04393 -3.62524,0 -4.10881,0.005 -4.12274,0.04134 -0.0186,0.04848 -0.0286,0.04848 -0.15451,0 -0.0528,-0.02032 -0.15472,-0.03813 -0.22635,-0.03927 -0.0958,-0.0016 -0.13022,-0.01255 -0.13022,-0.04237 0,-0.05078 -0.20943,-0.162259 -0.23306,-0.124024 -0.0294,0.04762 -0.0568,0.03006 -0.11679,-0.07545 -0.0322,-0.05655 -0.0952,-0.127066 -0.14004,-0.15658 -0.0651,-0.04282 -0.0762,-0.06329 -0.0553,-0.102319 0.0283,-0.05295 -0.0362,-0.213941 -0.0858,-0.213941 -0.0147,0 -0.0272,-0.0586 -0.0274,-0.130224 -1.8e-4,-0.07163 -0.0172,-0.195234 -0.0382,-0.274402 -0.0329,-0.12369 -0.0331,-0.143661 0,-0.143661 0.0331,0 0.0388,-0.59057 0.0388,-4.096907 0,-2.857585 -0.009,-4.099977 -0.0289,-4.106726 -0.0172,-0.0057 -0.001,-0.05972 0.0388,-0.132292 0.0374,-0.06757 0.077,-0.169277 0.0873,-0.225826 0.0131,-0.07151 0.0329,-0.102836 0.0656,-0.102836 0.0585,0 0.17885,-0.124996 0.17932,-0.186035 2.1e-4,-0.02773 0.0439,-0.06162 0.11265,-0.08733 0.0617,-0.0231 0.156,-0.07494 0.20929,-0.115756 0.0533,-0.04082 0.10272,-0.06833 0.11007,-0.06098 0.0288,0.02879 8.55687,0.01083 8.59172,-0.01809 z"
         style="font-weight:300;font-size:32px;line-height:17.7608px;font-family:Orbitron;-inkscape-font-specification:'Orbitron, Light';text-align:end;white-space:pre;mix-blend-mode:normal;fill:#ffffff;fill-opacity:1;fill-rule:evenodd;stroke:none;stroke-width:0.894199;stroke-linecap:square;stroke-dasharray:0.22355, 0.22355;paint-order:fill markers stroke"
         id="path64"
         transform="translate(-1.2291666e-7)" />
      <path
         d="m 195.47076,57.693636 -1.88878,2.257743 c -2.02408,2.418975 -2.48762,2.938226 -2.58744,2.899565 -0.0349,-0.01352 -1.02767,-1.164864 -2.20606,-2.5585 -1.1784,-1.393639 -2.18633,-2.550755 -2.24018,-2.571419 -0.0538,-0.02066 -0.22279,-0.02637 -0.37517,-0.01292 l -0.27698,0.02429 2.16782,2.585889 c 1.19235,1.422084 2.26699,2.695645 2.38797,2.830318 l 0.22014,0.244947 -2.29288,2.732133 c -1.26093,1.502794 -2.34004,2.790689 -2.3983,2.86184 -0.0965,0.11792 -0.0725,0.128869 0.27026,0.124541 l 0.37569,-0.0047 2.15801,-2.568319 c 2.02792,-2.41372 2.16776,-2.56258 2.32802,-2.479435 0.0938,0.04866 1.0989,1.191929 2.23397,2.54093 1.13508,1.348998 2.10684,2.46954 2.15956,2.48977 0.0527,0.02024 0.22374,0.02584 0.37982,0.0124 l 0.28371,-0.02429 -0.75758,-0.887801 c -2.27076,-2.660372 -3.96535,-4.740848 -3.93206,-4.827613 0.0208,-0.05413 1.03869,-1.29175 2.26188,-2.750219 1.22319,-1.458469 2.27131,-2.711933 2.32957,-2.78536 0.0972,-0.122539 0.0769,-0.133842 -0.24753,-0.133842 z"
         style="font-weight:300;font-size:32px;line-height:17.7608px;font-family:Orbitron;-inkscape-font-specification:'Orbitron, Light';text-align:end;white-space:pre;mix-blend-mode:normal;fill:#ffffff;fill-opacity:1;fill-rule:evenodd;stroke:none;stroke-width:0.894199;stroke-linecap:square;stroke-dasharray:0.22355, 0.22355;paint-order:fill markers stroke"
         id="path65"
         transform="translate(-1.2291666e-7)" />
      <path
         d="m 158.03118,57.693636 v 5.711796 5.711279 h 5.08858 c 2.9623,0 5.16849,-0.02991 5.27875,-0.07183 0.30827,-0.117205 0.76069,-0.559812 0.91157,-0.891935 0.12256,-0.269795 0.14063,-0.534143 0.14211,-2.063957 0.002,-1.95757 -0.0365,-2.158459 -0.49454,-2.590539 -0.21713,-0.204798 -0.25624,-0.292786 -0.23978,-0.535885 0.0108,-0.159874 0.059,-0.388478 0.10748,-0.507979 0.0565,-0.139295 0.0884,-0.807431 0.0884,-1.862419 v -1.645894 l -0.21497,-0.411345 c -0.17397,-0.333017 -0.2933,-0.452349 -0.62632,-0.626318 l -0.41135,-0.214974 h -4.81521 z m 1.54409,0.489893 c 0.0223,0.03361 0.58792,0.03933 3.99976,0.03979 2.51308,2.65e-4 3.98304,-0.0091 3.99975,-0.02584 0.0169,-0.01696 0.062,0.0018 0.12558,0.05219 0.0545,0.04324 0.14365,0.0867 0.19844,0.09663 0.0819,0.01484 0.0974,0.02799 0.0858,0.07235 -0.0181,0.0694 0.11762,0.214974 0.2005,0.214974 0.0481,0 0.0644,0.02092 0.0796,0.102836 0.0105,0.05655 0.0502,0.144017 0.0884,0.194304 0.0511,0.06726 0.0613,0.09946 0.0388,0.121956 -0.0217,0.02175 -0.0305,0.460186 -0.0305,1.516704 0,1.335065 0.005,1.487664 0.0439,1.50275 0.0389,0.01492 0.0375,0.0269 -0.0119,0.110588 -0.0305,0.05175 -0.0641,0.150303 -0.0744,0.219108 -0.0141,0.09427 -0.0306,0.125057 -0.0672,0.125057 -0.0669,0 -0.19939,0.17966 -0.17932,0.242879 0.0127,0.04009 -0.007,0.05661 -0.10129,0.08423 -0.0643,0.01894 -0.15028,0.0663 -0.1912,0.104903 -0.0605,0.0571 -0.0819,0.06394 -0.11472,0.03669 -0.0302,-0.02511 -0.0549,-0.02596 -0.0977,-0.0031 -0.0411,0.02201 -1.12595,0.03018 -3.89485,0.02894 -2.58972,-0.0011 -3.83853,0.0075 -3.83853,0.02636 0,0.03227 -0.1191,0.03254 -0.21911,5.17e-4 -0.0377,-0.01206 -0.12732,-0.0233 -0.19895,-0.02481 -0.0716,-0.0016 -0.13023,-0.01493 -0.13023,-0.02997 0,-0.04483 -0.17264,-0.105194 -0.22479,-0.07855 -0.0357,0.01826 -0.0636,0.0011 -0.12092,-0.0739 -0.041,-0.05375 -0.10994,-0.116493 -0.15348,-0.139009 -0.0593,-0.03067 -0.0751,-0.05376 -0.0625,-0.09353 0.0192,-0.06043 -0.063,-0.218592 -0.11369,-0.218592 -0.0199,0 -0.0415,-0.0631 -0.0532,-0.157613 -0.0108,-0.08671 -0.0355,-0.2039 -0.0553,-0.260449 -0.031,-0.08825 -0.0306,-0.102836 0.004,-0.102836 0.0343,0 0.0403,-0.15816 0.0403,-1.121896 0,-0.617023 -0.0102,-1.125653 -0.0222,-1.13068 -0.033,-0.01373 0.0222,-0.517093 0.0682,-0.621151 0.0324,-0.07339 0.0337,-0.09857 0.006,-0.132291 -0.0289,-0.03487 -0.0213,-0.05203 0.0476,-0.105937 0.0453,-0.03544 0.10535,-0.115221 0.13332,-0.17725 0.0351,-0.0779 0.0634,-0.107904 0.0915,-0.09715 0.0533,0.02048 0.22523,-0.09777 0.21704,-0.149345 -0.005,-0.02826 0.0305,-0.04585 0.11886,-0.05891 0.0691,-0.01021 0.17466,-0.04383 0.23461,-0.07441 0.0925,-0.04719 0.11289,-0.04976 0.13487,-0.01654 z m 8.33748,5.318021 c 0.0131,-0.0341 0.0327,-0.03164 0.12712,0.01654 0.0614,0.03135 0.16814,0.06523 0.2372,0.07545 0.0949,0.01402 0.12348,0.02939 0.11782,0.06305 -0.009,0.05366 0.12657,0.167045 0.17673,0.147794 0.021,-0.008 0.0637,0.03375 0.10387,0.10232 0.0375,0.06397 0.10543,0.152292 0.1509,0.195853 0.0633,0.06062 0.0753,0.08734 0.0522,0.115239 -0.022,0.02656 -0.022,0.05719 0,0.112138 0.0405,0.101083 0.0463,0.428154 0.0362,2.072741 -0.005,0.766759 -0.002,1.4012 0.007,1.409733 0.009,0.0085 -0.0161,0.0568 -0.0548,0.107487 -0.0387,0.05069 -0.0893,0.148069 -0.11266,0.216525 -0.0315,0.09241 -0.0532,0.120609 -0.0848,0.10852 -0.0587,-0.02252 -0.20284,0.118744 -0.18345,0.179834 0.012,0.03769 -0.008,0.05096 -0.10284,0.06615 -0.0647,0.0104 -0.17219,0.05025 -0.23926,0.08888 -0.08,0.04607 -0.12586,0.05958 -0.13281,0.03876 -0.0162,-0.04864 -8.19644,-0.04556 -8.2088,0.0031 -0.007,0.02782 -0.0364,0.02829 -0.14573,0.0026 h -5.1e-4 c -0.0754,-0.01773 -0.19554,-0.03369 -0.26717,-0.03514 -0.0716,-0.0013 -0.13022,-0.01477 -0.13022,-0.02946 0,-0.01468 -0.0379,-0.04632 -0.0842,-0.07028 -0.0667,-0.03447 -0.0924,-0.03662 -0.12402,-0.01034 -0.0322,0.02669 -0.0479,0.02323 -0.0796,-0.0186 -0.0217,-0.02863 -0.0398,-0.06174 -0.0403,-0.07338 -5.3e-4,-0.01164 -0.0551,-0.05563 -0.12144,-0.09767 -0.0949,-0.06015 -0.11513,-0.08551 -0.0956,-0.120406 0.03,-0.05367 -0.0703,-0.240296 -0.12919,-0.240296 -0.0277,0 -0.0382,-0.03751 -0.0382,-0.133842 0,-0.0735 -0.0178,-0.183408 -0.0393,-0.244429 -0.0339,-0.09612 -0.0339,-0.113076 0,-0.126091 0.0332,-0.01275 0.0393,-0.227083 0.0393,-1.412833 0,-1.25437 -0.005,-1.400563 -0.0444,-1.422653 -0.0403,-0.02254 -0.0397,-0.03168 0.002,-0.112137 0.025,-0.04834 0.0523,-0.147812 0.061,-0.221176 0.0111,-0.09404 0.0265,-0.129551 0.0517,-0.119889 0.0474,0.0182 0.1831,-0.188469 0.16123,-0.245463 -0.0121,-0.03165 0.0153,-0.06004 0.0992,-0.102836 0.0637,-0.03251 0.1462,-0.09526 0.18345,-0.139526 0.0535,-0.06354 0.0759,-0.07349 0.10594,-0.04858 0.0298,0.02471 0.0377,0.0219 0.0377,-0.01292 0,-0.03627 0.0319,-0.04479 0.17156,-0.04496 0.0942,-1.14e-4 0.2511,-0.01308 0.34882,-0.02894 0.12488,-0.02027 0.18078,-0.02039 0.18759,0 0.007,0.02027 1.21548,0.02946 3.99768,0.02946 3.48502,0 3.98985,-0.005 4.00338,-0.04031 z"
         style="font-weight:300;font-size:32px;line-height:17.7608px;font-family:Orbitron;-inkscape-font-specification:'Orbitron, Light';text-align:end;white-space:pre;mix-blend-mode:normal;fill:#ffffff;fill-opacity:1;fill-rule:evenodd;stroke:none;stroke-width:0.894199;stroke-linecap:square;stroke-dasharray:0.22355, 0.22355;paint-order:fill markers stroke"
         id="path63"
         transform="translate(-1.2291666e-7)" />
      <path
         d="m 146.02158,57.693636 -0.75499,2.06499 c -0.41529,1.135546 -1.28073,3.518873 -1.92288,5.296318 -0.64216,1.777445 -1.17986,3.201131 -1.19476,3.164148 -0.0149,-0.03698 -0.8849,-2.411288 -1.93374,-5.276681 l -1.90737,-5.210018 -0.28784,-0.02377 c -0.15842,-0.01318 -0.28832,0.0038 -0.28836,0.03824 -3e-5,0.0344 0.92543,2.606963 2.05621,5.716447 l 2.05569,5.653401 h 0.32349 0.3235 l 1.83348,-5.074625 c 1.00852,-2.791106 1.86056,-5.126707 1.89342,-5.190381 0.0329,-0.06368 0.13141,-0.119902 0.21859,-0.12454 0.0872,-0.0046 0.2165,-0.0305 0.28784,-0.05788 0.0898,-0.03446 0.14253,-0.0021 0.17053,0.104903 0.0223,0.08507 0.067,0.154513 0.0997,0.154513 0.0328,0 0.055,0.04357 0.0491,0.09663 -0.006,0.05306 0.80541,2.346186 1.80299,5.095813 l 1.81384,4.999178 0.34262,-0.02119 0.3421,-0.02067 2.06292,-5.673039 2.06292,-5.673039 -0.27388,-0.02429 c -0.15052,-0.01352 -0.3008,0.0035 -0.33435,0.03824 -0.0486,0.0503 -1.75572,4.724355 -3.55379,9.730155 -0.14104,0.392666 -0.27567,0.714169 -0.2992,0.714169 -0.0236,0 -0.69811,-1.79727 -1.49914,-3.994072 -0.80102,-2.196801 -1.66468,-4.558957 -1.91874,-5.248775 l -0.46147,-1.254187 h -0.55449 z"
         style="font-weight:300;font-size:32px;line-height:17.7608px;font-family:Orbitron;-inkscape-font-specification:'Orbitron, Light';text-align:end;white-space:pre;mix-blend-mode:normal;fill:#ffffff;fill-opacity:1;fill-rule:evenodd;stroke:none;stroke-width:0.894199;stroke-linecap:square;stroke-dasharray:0.22355, 0.22355;paint-order:fill markers stroke"
         id="path62"
         transform="translate(-1.2291666e-7)" />
      <path
         d="m 132.67717,57.703455 c -0.69562,-0.0037 -1.61814,0.0012 -2.85615,0.0072 -4.35374,0.02114 -4.4855,0.02602 -4.78576,0.181385 -0.17827,0.09224 -0.41429,0.316051 -0.55914,0.529683 l -0.25114,0.370003 v 4.613672 4.613155 l 0.25114,0.371037 c 0.15395,0.227658 0.3819,0.44004 0.59066,0.54932 l 0.34004,0.177767 4.48396,-0.0015 c 4.17002,-0.0016 4.50524,-0.0114 4.79299,-0.14211 0.38911,-0.176771 0.77727,-0.613297 0.88263,-0.992704 0.052,-0.18727 0.0809,-1.827053 0.0811,-4.584733 5.3e-4,-4.735079 0.002,-4.721064 -0.48007,-5.218287 -0.36241,-0.373911 -0.40341,-0.46282 -2.49029,-0.473872 z m 1.42782,0.489375 c 0.0247,-0.02045 0.06,-0.01554 0.12299,0.01705 0.0486,0.02513 0.1448,0.05367 0.21394,0.06356 0.0938,0.01341 0.12837,0.03161 0.13591,0.0708 0.0139,0.07214 0.11753,0.154735 0.17674,0.141077 0.0355,-0.0082 0.0663,0.02366 0.11368,0.116789 0.0358,0.07032 0.097,0.157512 0.13591,0.193786 0.0504,0.04701 0.0658,0.08365 0.0548,0.127641 -0.009,0.03395 -0.002,0.0868 0.015,0.117822 0.0463,0.08645 0.0422,8.675137 -0.004,8.749337 -0.0263,0.04214 -0.0263,0.06155 -0.001,0.08682 0.0253,0.02527 0.0109,0.05672 -0.0631,0.138492 -0.0525,0.05814 -0.11487,0.153863 -0.13849,0.212907 -0.0282,0.07048 -0.0557,0.102559 -0.0806,0.09302 -0.0528,-0.02027 -0.20412,0.09351 -0.20412,0.153479 0,0.0364 -0.0288,0.05392 -0.10852,0.06666 -0.0596,0.0095 -0.15057,0.04198 -0.20205,0.07235 -0.083,0.04897 -0.0975,0.05087 -0.12816,0.01395 -0.0306,-0.03687 -0.50101,-0.04186 -4.12688,-0.04186 -3.61269,0 -4.09486,0.005 -4.10879,0.04134 -0.0186,0.04848 -0.0286,0.04848 -0.15452,0 -0.0528,-0.02032 -0.15471,-0.03813 -0.22634,-0.03927 -0.0957,-0.0016 -0.13022,-0.01255 -0.13022,-0.04237 0,-0.05741 -0.19583,-0.153147 -0.25063,-0.122474 -0.0332,0.01857 -0.0552,0.0018 -0.0951,-0.07286 -0.0285,-0.05332 -0.0916,-0.121589 -0.14056,-0.151929 -0.0745,-0.04622 -0.0845,-0.06405 -0.061,-0.108004 0.0302,-0.05643 -0.0322,-0.217041 -0.0842,-0.217041 -0.0147,0 -0.0269,-0.0527 -0.0274,-0.116789 -5.3e-4,-0.06409 -0.018,-0.187175 -0.0387,-0.273885 -0.0323,-0.135191 -0.0322,-0.157613 0.001,-0.157613 0.0331,0 0.0388,-0.590142 0.0388,-4.096907 0,-3.079083 -0.008,-4.09929 -0.032,-4.107243 -0.0208,-0.0069 -0.007,-0.05283 0.0387,-0.132809 0.0386,-0.06707 0.0787,-0.173511 0.0889,-0.236678 0.0138,-0.08604 0.0285,-0.110902 0.0589,-0.09922 0.0558,0.02143 0.19883,-0.120069 0.18293,-0.180868 -0.01,-0.03664 0.0151,-0.056 0.10594,-0.0832 0.0651,-0.0195 0.16312,-0.07058 0.21756,-0.113688 0.0544,-0.04311 0.10505,-0.0722 0.11265,-0.0646 0.0291,0.02909 8.55704,0.01167 8.59224,-0.01757 z"
         style="font-weight:300;font-size:32px;line-height:17.7608px;font-family:Orbitron;-inkscape-font-specification:'Orbitron, Light';text-align:end;white-space:pre;mix-blend-mode:normal;fill:#ffffff;fill-opacity:1;fill-rule:evenodd;stroke:none;stroke-width:0.894199;stroke-linecap:square;stroke-dasharray:0.22355, 0.22355;paint-order:fill markers stroke"
         id="path67"
         transform="translate(-1.2291666e-7)" />
      <path
         d="m 110.02326,57.693636 v 5.711796 5.711279 h 5.09684 c 4.42548,0 5.13385,-0.01563 5.38211,-0.119372 0.36584,-0.152858 0.60794,-0.380401 0.81648,-0.767912 0.16467,-0.305972 0.1664,-0.349149 0.1664,-4.823995 0,-4.474848 -0.002,-4.518023 -0.1664,-4.823995 -0.20854,-0.387511 -0.45064,-0.615051 -0.81648,-0.767912 -0.24826,-0.103729 -0.95663,-0.119889 -5.38211,-0.119889 z m 9.94875,0.49506 c 0.0148,-0.024 0.0524,-0.01663 0.14159,0.02791 0.0667,0.0333 0.15262,0.06098 0.1912,0.06098 0.0954,0 0.15994,0.02723 0.14004,0.05943 -0.0251,0.04069 0.10076,0.15968 0.16899,0.15968 0.0406,0 0.0712,0.02585 0.093,0.07855 0.0179,0.0431 0.0805,0.12533 0.13953,0.182935 0.0813,0.07938 0.10047,0.113527 0.078,0.140559 -0.0212,0.02559 -0.0208,0.06074 0.002,0.125057 0.0438,0.125767 0.0448,8.687613 10e-4,8.769491 -0.0209,0.0391 -0.0217,0.06731 -0.002,0.09095 0.0207,0.0249 2.1e-4,0.06801 -0.076,0.160196 -0.0575,0.06957 -0.12021,0.163917 -0.13901,0.20929 -0.0208,0.05012 -0.0485,0.07676 -0.0708,0.06821 -0.0597,-0.02289 -0.20026,0.09728 -0.18449,0.157613 0.0111,0.04249 -0.001,0.05219 -0.0672,0.05219 -0.0444,0 -0.14182,0.03105 -0.216,0.06873 -0.11756,0.05972 -0.13884,0.06321 -0.16537,0.02739 -0.0268,-0.0362 -0.51912,-0.04134 -4.13308,-0.04134 -3.6287,0 -4.10259,0.005 -4.10259,0.04134 0,0.04924 -0.037,0.04924 -0.16485,0 -0.0528,-0.02032 -0.1483,-0.03813 -0.21239,-0.03927 -0.0769,-0.0013 -0.11627,-0.01445 -0.11627,-0.03824 0,-0.04544 -0.17783,-0.132143 -0.22996,-0.112138 -0.0237,0.0091 -0.0573,-0.0159 -0.0858,-0.06408 -0.0257,-0.04353 -0.0999,-0.115455 -0.16485,-0.15968 -0.085,-0.05789 -0.11059,-0.08945 -0.091,-0.113171 0.0352,-0.04248 -0.0287,-0.227377 -0.0785,-0.227377 -0.0239,0 -0.0357,-0.04015 -0.0357,-0.121956 0,-0.06712 -0.014,-0.187379 -0.031,-0.266651 -0.0229,-0.106941 -0.0229,-0.146349 0,-0.153995 0.0435,-0.0145 0.0447,-8.204151 10e-4,-8.204151 -0.0165,0 0.002,-0.05394 0.0403,-0.119889 0.0387,-0.06595 0.0784,-0.170831 0.0884,-0.233061 0.0141,-0.08835 0.03,-0.113171 0.0724,-0.113171 0.0589,0 0.17144,-0.124778 0.17157,-0.190169 4e-5,-0.02238 0.0495,-0.05828 0.11007,-0.0801 0.0603,-0.02172 0.15401,-0.07402 0.20877,-0.116272 0.0548,-0.04225 0.1058,-0.07093 0.11317,-0.06356 0.007,0.0074 1.942,0.01273 4.29948,0.01189 3.28323,-0.0011 4.29127,-0.0091 4.30672,-0.03411 z"
         style="font-weight:300;font-size:32px;line-height:17.7608px;font-family:Orbitron;-inkscape-font-specification:'Orbitron, Light';text-align:end;white-space:pre;mix-blend-mode:normal;fill:#ffffff;fill-opacity:1;fill-rule:evenodd;stroke:none;stroke-width:0.894199;stroke-linecap:square;stroke-dasharray:0.22355, 0.22355;paint-order:fill markers stroke"
         id="path61"
         transform="translate(-1.2291666e-7)" />
      <path
         d="m 105.9925,57.693636 -4.44883,0.0016 c -4.170615,0.0016 -4.467364,0.01079 -4.756813,0.145211 -0.405391,0.18828 -0.641391,0.421936 -0.817521,0.80977 -0.135665,0.29873 -0.14413,0.607191 -0.145728,5.391919 l -0.0015,5.074625 h 0.270268 0.269751 v -2.238106 -2.238106 h 5.171263 5.17126 v 2.238106 2.238106 h 0.27027 0.27026 V 64.03175 58.946273 l -0.21497,-0.411345 c -0.17397,-0.333017 -0.2933,-0.452349 -0.62632,-0.626318 z m -0.26304,0.499194 c 0.0214,-0.02138 0.055,-0.01677 0.11938,0.01654 0.0493,0.02548 0.14634,0.05419 0.21549,0.06408 0.0938,0.01341 0.12836,0.03161 0.13591,0.0708 0.0135,0.07033 0.11666,0.155006 0.17311,0.142111 0.031,-0.0071 0.0669,0.02996 0.11421,0.116788 0.0381,0.07005 0.10055,0.156592 0.13849,0.192237 0.0535,0.05027 0.0654,0.08261 0.0532,0.14366 -0.009,0.04329 -0.003,0.09375 0.0129,0.112655 0.0367,0.04426 0.0385,0.181542 0.0357,2.838069 l -0.003,2.227771 h -5.15473 -5.15472 v -0.08216 c 0,-0.04524 -0.0123,-0.08268 -0.02739,-0.08268 -0.01807,0 -0.02739,-0.79144 -0.02739,-2.320272 0,-2.061354 -0.0047,-2.324278 -0.04237,-2.351795 -0.03821,-0.02794 -0.03821,-0.04084 0,-0.132291 0.02331,-0.05577 0.04237,-0.15107 0.04237,-0.211874 0,-0.08965 0.0097,-0.110587 0.05116,-0.110587 0.0621,0 0.201397,-0.200332 0.179317,-0.257866 -0.0105,-0.0274 0.01849,-0.05821 0.0894,-0.09457 0.0578,-0.02964 0.135391,-0.08575 0.172083,-0.125057 0.04345,-0.04655 0.08382,-0.06611 0.116272,-0.05581 0.03368,0.01069 0.05013,0.0021 0.05013,-0.02687 0,-0.03476 0.0353,-0.04328 0.185002,-0.04341 0.10179,-8.7e-5 0.258853,-0.01205 0.349332,-0.02687 0.108358,-0.01775 0.167614,-0.01786 0.173633,0 0.01341,0.03978 7.962301,0.03723 8.002091,-0.0026 z"
         style="font-weight:300;font-size:32px;line-height:17.7608px;font-family:Orbitron;-inkscape-font-specification:'Orbitron, Light';text-align:end;white-space:pre;mix-blend-mode:normal;fill:#ffffff;fill-opacity:1;fill-rule:evenodd;stroke:none;stroke-width:0.894199;stroke-linecap:square;stroke-dasharray:0.22355, 0.22355;paint-order:fill markers stroke"
         id="path60"
         transform="translate(-1.2291666e-7)" />
      <path
         d="m 81.311833,57.693636 v 5.711796 5.711279 h 0.269751 0.270267 v -2.654618 c 0,-2.349386 0.01389,-2.659662 0.121957,-2.701127 0.06715,-0.02577 2.442594,-0.04703 5.278747,-0.04703 4.630987,0 5.161743,0.01231 5.203817,0.121957 0.02577,0.06715 0.04651,1.283031 0.04651,2.701644 v 2.57917 h 0.270268 0.270267 V 63.405428 57.693632 H 92.77315 92.502882 v 2.701644 2.701127 H 87.177625 81.851851 V 60.39528 57.693636 h -0.270267 z"
         style="font-weight:300;font-size:32px;line-height:17.7608px;font-family:Orbitron;-inkscape-font-specification:'Orbitron, Light';text-align:end;white-space:pre;mix-blend-mode:normal;fill:#ffffff;fill-opacity:1;fill-rule:evenodd;stroke:none;stroke-width:0.894199;stroke-linecap:square;stroke-dasharray:0.22355, 0.22355;paint-order:fill markers stroke"
         id="path59"
         transform="translate(-1.2291666e-7)" />
      <path
         d="m 70.126469,57.703455 c -2.103792,0.01241 -2.125718,0.110131 -2.504757,0.529683 -0.148449,0.164314 -0.306876,0.431568 -0.351916,0.593762 -0.102868,0.370448 -0.108263,3.364554 -0.0067,3.729488 0.100631,0.361664 0.470154,0.796124 0.828373,0.974101 0.273169,0.135723 0.588808,0.147362 4.86637,0.183451 l 4.573881,0.03876 0.272334,0.296622 0.271818,0.29714 v 1.778703 c 2.65e-4,1.684701 -0.0079,1.787289 -0.157096,1.946134 -0.08665,0.09224 -0.157613,0.204825 -0.157613,0.250114 0,0.215821 -0.752819,0.255282 -4.895308,0.255282 -3.671292,0 -4.248427,-0.01572 -4.516521,-0.12299 -0.169058,-0.06764 -0.328297,-0.189337 -0.353983,-0.270268 -0.02569,-0.08093 -0.07628,-0.147278 -0.112138,-0.147278 -0.03586,0 -0.08862,-0.138707 -0.117306,-0.308508 -0.04894,-0.289674 -0.06813,-0.309025 -0.315226,-0.309025 -0.295367,0 -0.317888,0.07017 -0.181384,0.561723 0.105362,0.379407 0.493002,0.815933 0.882117,0.992704 0.287744,0.13072 0.622964,0.140533 4.792989,0.14211 l 4.483964,0.0015 0.340031,-0.179317 c 0.187089,-0.09877 0.444189,-0.327802 0.571541,-0.508496 l 0.23151,-0.328145 0.02325,-1.881022 c 0.02548,-2.074395 0.01615,-2.12701 -0.473356,-2.642733 -0.451995,-0.476207 -0.545751,-0.485076 -5.22242,-0.479041 -2.313541,0.003 -4.320416,-0.01781 -4.459677,-0.04651 -0.139382,-0.02872 -0.321409,-0.142978 -0.404626,-0.254248 -0.08314,-0.111173 -0.188031,-0.246188 -0.233061,-0.299724 -0.115302,-0.137088 -0.08715,-3.468381 0.03101,-3.673161 0.113625,-0.196918 0.29091,-0.37338 0.494544,-0.491442 0.198781,-0.11525 8.768314,-0.143577 9.059395,-0.02997 0.275666,0.10759 0.683679,0.544526 0.683679,0.732255 0,0.248983 0.09845,0.356568 0.326595,0.356568 0.231727,0 0.233124,-0.0024 0.19327,-0.356051 -0.05083,-0.450977 -0.381045,-0.928396 -0.790133,-1.142049 -0.301267,-0.157342 -0.416841,-0.161726 -4.785237,-0.182935 -1.254293,-0.0061 -2.186932,-0.01137 -2.888196,-0.0072 z"
         style="font-weight:300;font-size:32px;line-height:17.7608px;font-family:Orbitron;-inkscape-font-specification:'Orbitron, Light';text-align:end;white-space:pre;mix-blend-mode:normal;fill:#ffffff;fill-opacity:1;fill-rule:evenodd;stroke:none;stroke-width:0.894199;stroke-linecap:square;stroke-dasharray:0.22355, 0.22355;paint-order:fill markers stroke"
         id="path66"
         transform="translate(-1.2291666e-7)" />
      <g
         id="g67-9-6"
         transform="matrix(0.20849752,0.06476611,-0.06476611,0.20849752,80.927741,7.8812254)"
         inkscape:label="shadowbox icon top left">
        <g
           id="g170-4-5-3-6-2-4-7-5"
           transform="matrix(7.4378371,-2.9433758e-8,2.9433758e-8,7.4378371,876.77739,464.54836)"
           inkscape:export-filename="g170-4-5-3-6-2-4.png"
           inkscape:export-xdpi="96"
           inkscape:export-ydpi="96">
          <path
             d="m -125.71685,-37.102555 c -0.338,0.271696 -1.83145,1.124466 -6.79192,3.729807 l 0.749,-0.07458 c 4.5764,-1.869671 4.62365,-2.165907 5.47583,-2.060317 0.40958,0.05076 6.64955,6.718578 7.84725,8.001889 l 0.52134,3.314261 c 0,0 0.0388,-0.03049 0.0707,-0.05148 -0.081,-0.286893 -0.25033,-2.887672 -0.34818,-3.154814 -1.10519,-2.055646 -5.65884,-7.603563 -7.3999,-9.654372 -0.0292,-0.03424 -0.0825,-0.03365 -0.12413,-0.0504 z"
             style="fill:#ffffff;stroke-width:1.68916;stroke-linecap:round"
             id="path167-5-8-6-6-6-0-3-7"
             sodipodi:nodetypes="ccccccccccc" />
        </g>
        <path
           d="m -466.66611,-220.71675 c 0.002,0.006 0.003,0.0118 0.004,0.0176 l 0.23623,0.76049 c 7.59762,2.28934 15.6881,4.7498 16.496,5.11763 4.83754,1.54144 14.69824,4.60584 24.11893,7.48722 l 0.37274,-0.21806 -21.1941,-6.60033 c -8.99914,-3.13626 -6.92236,-2.91125 -0.91468,-5.6005 0.0511,-0.0229 0.10257,-0.046 0.15428,-0.0693 l -0.1405,0.001 c -0.0851,0.0214 -0.1814,0.042 -0.28817,0.0619 -2.68882,0.49982 -12.04964,0.48616 -18.84512,-0.95812 z"
           style="fill:#ffffff;stroke-width:0.65633;stroke-linecap:round"
           id="path182-1-2-7-3"
           sodipodi:nodetypes="cccccccsccscc"
           transform="matrix(7.4378371,-2.9433758e-8,2.9433758e-8,7.4378371,3211.7052,1857.2861)" />
        <path
           d="m -438.6676,-212.44984 -0.71958,-2.33682 -3.76688,-0.76202 -1.35495,1.47022 c -0.0365,0.10765 0.12745,0.25931 0.26483,0.17174 l 1.26652,-1.30057 3.37886,0.67294 0.64572,2.17319 c 0.0556,0.0738 0.25362,0.0342 0.28549,-0.0887 z"
           style="fill:#ffffff;fill-opacity:1;stroke:none;stroke-width:0.0490188;stroke-linecap:round;stroke-dasharray:none;stroke-opacity:1"
           id="path1-6-5-4"
           sodipodi:nodetypes="cccccccccc"
           transform="matrix(7.4378371,-2.9433758e-8,2.9433758e-8,7.4378371,3211.7052,1857.2861)" />
        <g
           id="g170-4-5-3-6-2-4-5-0-3"
           transform="matrix(-7.4378371,2.9433758e-8,-2.9433758e-8,-7.4378371,-1027.5867,96.96681)">
          <path
             d="m -125.71685,-37.102555 c -0.338,0.271696 -1.83145,1.124466 -6.79192,3.729807 l 0.749,-0.07458 c 4.5764,-1.869671 4.62365,-2.165907 5.47583,-2.060317 0.40958,0.05076 6.64955,6.718578 7.84725,8.001889 l 0.52134,3.314261 c 0,0 0.0388,-0.03049 0.0707,-0.05148 -0.081,-0.286893 -0.25033,-2.887672 -0.34818,-3.154814 -1.10519,-2.055646 -5.65884,-7.603563 -7.3999,-9.654372 -0.0292,-0.03424 -0.0825,-0.03365 -0.12413,-0.0504 z"
             style="fill:#ffffff;stroke-width:1.68916;stroke-linecap:round"
             id="path167-5-8-6-6-6-0-2-2-0"
             sodipodi:nodetypes="ccccccccccc" />
        </g>
        <path
           d="m -417.22254,-203.20447 c -0.002,-0.006 -0.003,-0.0117 -0.004,-0.0178 l -0.23623,-0.76049 c -7.59762,-2.28934 -15.6881,-4.7498 -16.496,-5.11763 -4.83754,-1.54144 -14.69824,-4.60584 -24.11894,-7.48722 l -0.37273,0.21807 21.1941,6.60032 c 8.99914,3.13627 6.92236,2.91126 0.91468,5.6005 -0.0511,0.0229 -0.10257,0.046 -0.15428,0.0693 l 0.14051,-9.9e-4 c 0.0851,-0.0214 0.18142,-0.042 0.28818,-0.0619 2.68881,-0.49982 12.04963,-0.48617 18.84512,0.95812 z"
           style="fill:#ffffff;stroke-width:0.65633;stroke-linecap:round"
           id="path182-1-2-1-1-4"
           sodipodi:nodetypes="cccccccsccscc"
           transform="matrix(7.4378371,-2.9433758e-8,2.9433758e-8,7.4378371,3211.7052,1857.2861)" />
        <path
           d="m -445.22105,-211.47139 0.71958,2.33683 3.76688,0.76202 1.35495,-1.47022 c 0.0365,-0.10765 -0.12746,-0.25931 -0.26483,-0.17175 l -1.26651,1.30058 -3.37886,-0.67294 -0.64573,-2.1732 c -0.0556,-0.0738 -0.25362,-0.0342 -0.28551,0.0887 z"
           style="fill:#ffffff;fill-opacity:1;stroke:none;stroke-width:0.0490188;stroke-linecap:round;stroke-dasharray:none;stroke-opacity:1"
           id="path1-6-1-8-8"
           sodipodi:nodetypes="cccccccccc"
           transform="matrix(7.4378371,-2.9433758e-8,2.9433758e-8,7.4378371,3211.7052,1857.2861)" />
      </g>
    </g>
  </g>
</svg>
