<?xml version="1.0" encoding="UTF-8" standalone="no"?>
<!-- Created with Inkscape (http://www.inkscape.org/) -->

<svg
   width="124.7693mm"
   height="57.478336mm"
   viewBox="0 0 124.7693 57.478336"
   version="1.1"
   id="svg1"
   sodipodi:docname="SDBXgraf.svg"
   inkscape:version="1.3.2 (091e20e, 2023-11-25)"
   inkscape:export-filename="SDBXicon"
   inkscape:export-xdpi="140.33919"
   inkscape:export-ydpi="140.33919"
   xmlns:inkscape="http://www.inkscape.org/namespaces/inkscape"
   xmlns:sodipodi="http://sodipodi.sourceforge.net/DTD/sodipodi-0.dtd"
   xmlns="http://www.w3.org/2000/svg"
   xmlns:svg="http://www.w3.org/2000/svg">
  <sodipodi:namedview
     id="namedview1"
     pagecolor="#505050"
     bordercolor="#eeeeee"
     borderopacity="1"
     inkscape:showpageshadow="0"
     inkscape:pageopacity="0"
     inkscape:pagecheckerboard="0"
     inkscape:deskcolor="#505050"
     inkscape:document-units="mm"
     inkscape:zoom="0.76591582"
     inkscape:cx="240.23528"
     inkscape:cy="184.74615"
     inkscape:window-width="1440"
     inkscape:window-height="847"
     inkscape:window-x="0"
     inkscape:window-y="1561"
     inkscape:window-maximized="0"
     inkscape:current-layer="layer2"
     showguides="true" />
  <defs
     id="defs1" />
  <g
     inkscape:groupmode="layer"
     id="layer3"
     inkscape:label="bg"
     style="display:none"
     transform="translate(-70.345037,-109.87802)">
    <rect
       style="opacity:1;fill:#3f4245;fill-opacity:1;stroke:none;stroke-width:0.960482;stroke-linecap:round"
       id="rect7"
       width="195.1541"
       height="74.372017"
       x="7.5036435"
       y="102.04166"
       rx="14.299511"
       ry="21.711849"
       inkscape:export-filename="sdbx2kv2graf.png"
       inkscape:export-xdpi="300"
       inkscape:export-ydpi="300"
       inkscape:label="rect7" />
  </g>
  <g
     inkscape:groupmode="layer"
     id="layer2"
     inkscape:label="Layer 2"
     transform="translate(-70.345037,-109.87802)" />
  <g
     inkscape:label="graf"
     inkscape:groupmode="layer"
     id="layer1"
     transform="translate(-70.345037,-109.87802)">
    <g
       id="g2"
       transform="matrix(0.64552747,0,0,0.64552747,64.256157,44.205618)"
       style="fill:#ffffff;fill-opacity:1;stroke:none;stroke-width:0.2;stroke-dasharray:none;stroke-opacity:1"
       inkscape:export-filename="sdbx2ksnow_logo.png"
       inkscape:export-xdpi="300"
       inkscape:export-ydpi="300">
      <path
         style="fill:#ffffff;fill-opacity:1;stroke:none;stroke-width:0.2;stroke-dasharray:none;stroke-opacity:1"
         d="m 44.376545,132.73317 4.527913,1.08599 3.657902,2.42321 14.358203,-2.87574 -0.633592,-1.10568 c -3.168641,-0.76139 -11.925029,-3.82788 -18.922278,-5.67216 l -0.56185,-0.59239 -2.092294,0.51532 -0.616172,-0.32338 -1.319377,0.0657 1.252109,2.64871 18.005112,5.29988 -5.290744,0.96551 -6.459271,-2.18946 -2.477377,-0.74464 z"
         id="path141-4-1-9-3-3"
         sodipodi:nodetypes="cccccccccccccccc" />
      <path
         style="fill:#ffffff;fill-opacity:1;stroke:none;stroke-width:0.2;stroke-dasharray:none;stroke-opacity:1"
         d="m 50.906527,153.79538 4.901342,0.51667 1.05903,1.26244 0.877267,1.93963 -8.274519,11.7288 -1.156026,0.74716 -2.09128,1.40771 -3.902826,-0.008 -1.093384,-1.40434 -3.90405,-0.009 z"
         id="path142-3-0-2-1"
         sodipodi:nodetypes="ccccccccccc" />
      <path
         style="fill:#ffffff;fill-opacity:1;stroke:none;stroke-width:0.2;stroke-dasharray:none;stroke-opacity:1"
         d="m 52.664626,151.57168 3.202828,-3.97403 13.559949,-3.68711 1.080613,-1.34761 12.753499,-2.25931 21.076285,24.01862 2.62256,7.38949 -5.55455,4.02933 -41.305354,0.20283 4.909794,-2.57238 5.907738,0.65743 0.166273,-1.66567 -3.786523,-0.64979 1.327118,-0.91532 3.374004,-1.03114 31.96486,1.90084 1.28806,-0.93308 -1.74933,-5.68437 -25.983444,-19.65727 -7.706773,0.87666 -0.317807,0.71466 3.406666,-0.36311 -2.348163,5.33334 -4.28144,0.37711 -4.462949,-0.37857 -2.205552,0.48184 z"
         id="path143-9-9-5-0"
         sodipodi:nodetypes="ccccccccccccccccccccccccccc" />
      <path
         style="fill:#ffffff;fill-opacity:1;stroke:none;stroke-width:0.2;stroke-dasharray:none;stroke-opacity:1"
         d="m 103.39,162.57511 1.23939,1.34697 1.72937,4.81658 0.90402,-0.74735 0.15996,-0.45874 -0.12081,-0.44955 -0.4909,-2.1966 -1.71835,-0.9231 -1.02721,-1.18094 z"
         id="path144-7-3-6-2"
         sodipodi:nodetypes="cccccccccc" />
      <path
         style="fill:#ffffff;fill-opacity:1;stroke:none;stroke-width:0.2;stroke-dasharray:none;stroke-opacity:1"
         d="m 104.42985,154.33685 8.84591,-13.53533 -0.49832,-0.82999 1.06934,-0.66226 8.24818,-0.78903 3.88812,-0.37588 1.15205,0.47504 -4.72426,0.5311 1.08324,0.26933 17.99123,4.07306 -1.35411,2.18859 -7.18044,4.13197 -3.23936,0.74813 -6.81232,1.52756 1.26807,4.21342 3.05059,0.71368 8.93132,-2.72606 4.29254,-1.10339 9.87347,-7.22352 -3.72256,-4.53866 -20.76205,-7.71734 -16.72922,1.29705 -2.856,2.48955 -4.24049,11.38679 z"
         id="path145-3-4-3-3"
         sodipodi:nodetypes="ccccccccccccccccccccccccc" />
      <path
         style="fill:#ffffff;fill-opacity:1;stroke:none;stroke-width:0.2;stroke-dasharray:none;stroke-opacity:1"
         d="m 108.2475,172.12558 0.88619,-1.34262 33.52703,-2.19915 4.48491,-2.81828 -11.82252,-5.17708 0.24096,-1.73429 -1.62207,-1.72221 5.59029,-2.93687 15.50034,5.78739 -0.71871,1.8243 -13.89329,8.4273 -10.36746,5.84516 -17.36914,-0.0373 z"
         id="path146-7-0-4-7"
         sodipodi:nodetypes="cccccccccccccc" />
      <path
         style="fill:#ffffff;fill-opacity:1;stroke:none;stroke-width:0.2;stroke-dasharray:none;stroke-opacity:1"
         d="m 182.81504,127.93058 -13.20473,11.26045 -14.297,4.30507 -1.48445,2.04786 -1.97786,0.12488 -3.45235,-4.31156 -2.63772,-1.08201 15.34667,-8.09341 22.54772,-9.77079 z"
         id="path147-5-7-0-1"
         sodipodi:nodetypes="cccccccccc" />
      <path
         style="fill:#ffffff;fill-opacity:1;stroke:none;stroke-width:0.2;stroke-dasharray:none;stroke-opacity:1"
         d="m 119.97956,150.54081 14.0115,-5.80647 2.80287,-1.16153 1.92605,0.37757 -1.25478,1.58026 -6.62156,3.71459 -9.83479,2.11867 z"
         id="path148-0-5-6-8"
         sodipodi:nodetypes="cccccccc" />
      <path
         style="fill:#ffffff;fill-opacity:1;stroke:none;stroke-width:0.2;stroke-dasharray:none;stroke-opacity:1"
         d="m 145.50402,139.08332 -1.07906,0.69004 -18.2753,-7.05762 -8.61053,-10.59709 c 1.57949,0.0944 3.14202,0.29859 4.70767,0.46321 l 7.30816,8.65371 12.91626,4.97291 z"
         id="path149-2-7-0-9"
         sodipodi:nodetypes="cccccccc" />
      <path
         style="fill:#ffffff;fill-opacity:1;stroke:none;stroke-width:0.2;stroke-dasharray:none;stroke-opacity:1"
         d="m 199.11658,168.38049 -7.0092,1.56206 -1.51755,3.87129 4.37968,2.38099 3.57247,-2.22818 -0.0667,-2.21534 2.19061,-1.25115 z"
         id="path151-1-5-4-3"
         inkscape:transform-center-x="0.7610704"
         inkscape:transform-center-y="2.1138807" />
      <path
         style="fill:#ffffff;fill-opacity:1;stroke:none;stroke-width:0.2;stroke-dasharray:none;stroke-opacity:1"
         d="m 158.20267,146.9573 -5.42321,8.58844 13.19012,18.0045 21.72131,6.28635 6.30399,-3.19231 -13.97027,-7.63638 -0.70984,-2.78553 -9.45838,-2.76555 0.46126,-0.96621 -6.68072,-2.33118 -0.0825,-7.67592 z"
         id="path152-8-0-0-7"
         sodipodi:nodetypes="cccccccccccc" />
      <path
         style="fill:#ffffff;fill-opacity:1;stroke:none;stroke-width:0.2;stroke-dasharray:none;stroke-opacity:1"
         d="m 155.77358,144.42217 -5.77033,8.96584 1.54605,1.66696 5.36019,-8.78638 z"
         id="path153-7-6-5-4"
         sodipodi:nodetypes="ccccc" />
      <path
         style="fill:#ffffff;fill-opacity:1;stroke:none;stroke-width:0.2;stroke-dasharray:none;stroke-opacity:1"
         d="m 147.59925,149.44301 -0.73666,1.14459 1.54605,1.66696 3.43,-5.62243 z"
         id="path153-8-1-4-6-8"
         sodipodi:nodetypes="ccccc" />
      <path
         style="fill:#ffffff;fill-opacity:1;stroke:none;stroke-width:0.2;stroke-dasharray:none;stroke-opacity:1"
         d="m 96.528845,160.33559 1.386379,1.04802 -0.511562,2.14607 0.03334,2.11826 -4.309745,0.79607 -10.187243,0.53932 z"
         id="path154-5-7-8-0"
         sodipodi:nodetypes="ccccccc" />
      <path
         style="fill:#ffffff;fill-opacity:1;stroke:none;stroke-width:0.2;stroke-dasharray:none;stroke-opacity:1"
         d="m 102.08437,157.94621 -1.22817,1.7193 2.19565,2.63244 8.46693,-4.15438 1.09892,-2.51121 4.92264,-2.18427 2.40714,-2.88639 z"
         id="path155-5-8-5-4"
         sodipodi:nodetypes="cccccccc" />
      <path
         style="fill:#ffffff;fill-opacity:1;stroke:none;stroke-width:0.2;stroke-dasharray:none;stroke-opacity:1"
         d="m 12.046348,170.23057 0.550742,-1.68068 3.329486,-2.30997 4.258508,-1.11903 -0.204174,1.69783 -3.788505,2.06945 -0.359689,1.22473 z"
         id="path156-4-3-0"
         sodipodi:nodetypes="cccccccc" />
      <path
         style="fill:#ffffff;fill-opacity:1;stroke:none;stroke-width:0.2;stroke-dasharray:none;stroke-opacity:1"
         d="m 171.30186,126.83149 0.43812,-0.71664 2.39574,-1.01651 1.60078,-1.69551 7.59412,-3.13085 1.11195,-7.22109 -4.6141,-0.91198 5.77537,-6.30559 -0.34019,6.73938 -1.47375,8.91228 z"
         id="path157-0-7-5"
         sodipodi:nodetypes="ccccccccccc" />
      <path
         style="fill:#ffffff;fill-opacity:1;stroke:none;stroke-width:0.2;stroke-dasharray:none;stroke-opacity:1"
         d="m 64.44727,176.79692 -18.782469,8.56115 -1.865165,-2.99259 -3.431692,6.36041 26.444405,-11.97075 z"
         id="path158-0-6-7"
         sodipodi:nodetypes="cccccc" />
      <path
         style="fill:#ffffff;fill-opacity:1;stroke:none;stroke-width:0.2;stroke-dasharray:none;stroke-opacity:1"
         d="m 138.40485,172.58842 9.71453,-5.91828 4.06487,-2.49562 3.04982,-0.2723 -14.31265,8.68331 z"
         id="path161-6-8-0"
         sodipodi:nodetypes="cccccc" />
      <path
         d="m 116.90309,122.27476 -4.40679,-2.77119 -6.85079,0.84776 -1.53934,1.59053 5.23224,3.38617 -0.78236,1.42655 -55.561087,10.36251 -5.540268,2.24178 -0.711919,3.75481 -6.255896,5.06667 -3.946339,3.23885 27.947006,3.29575 -11.328081,15.87533 -3.019729,0.14864 -1.968226,1.3056 -9.217386,-0.0842 -0.65778,-1.34573 -26.814558,0.0441 4.730832,2.46916 35.465727,0.12703 2.600738,1.77446 -13.884134,0.003 -1.481111,0.50724 -8.301401,0.0596 1.161376,0.35463 24.604249,-0.13983 7.134895,-3.71874 3.552477,-1.89901 -2.54304,-0.1573 7.726695,-13.17857 -7.37405,-2.97376 -21.403595,-2.50974 2.574728,-2.46387 3.224825,-3.58157 8.631755,-2.6306 9.166847,-2.76468 55.81937,-10.2244 z"
         style="fill:#ffffff;fill-opacity:1;stroke:none;stroke-width:0.2;stroke-dasharray:none;stroke-opacity:1"
         id="path165-6-0"
         sodipodi:nodetypes="cccccccccccccccccccccccccccccccccccccc" />
      <path
         style="fill:#ffffff;fill-opacity:1;stroke:none;stroke-width:0.2;stroke-dasharray:none;stroke-opacity:1"
         d="m 66.927913,131.88568 0.81949,1.41396 26.066236,-4.80742 -4.21425,-0.43963 -3.150676,0.27406 z"
         id="path166-7-5"
         sodipodi:nodetypes="cccccc" />
      <path
         style="fill:#ffffff;fill-opacity:1;stroke:none;stroke-width:0.2;stroke-dasharray:none;stroke-opacity:1"
         d="m 106.495,161.29618 1.34818,6.45208 -0.59679,2.10495 0.31837,1.35972 0.75671,-0.85152 3.07615,-0.24767 1.57439,-1.25813 -3.84331,-8.95836 z"
         id="path167"
         sodipodi:nodetypes="ccccccccc"
         inkscape:transform-center-y="-0.36771121"
         inkscape:transform-center-x="-0.2282582" />
      <path
         style="fill:#ffffff;fill-opacity:1;stroke:none;stroke-width:0.2;stroke-dasharray:none;stroke-opacity:1"
         d="m 105.07664,155.85749 0.17205,0.40143 1.89025,-0.80178 -0.20233,-0.54696 -0.45696,-1.09984 2.77472,-4.04076 0.63314,-0.11147 2.76581,-4.53535 0.19404,-0.88031 0.54378,-0.29077 0.58299,-0.31174 0.98661,-1.6629 0.30547,-1.56874 0.18841,-0.62335 -10.20593,15.6711 z"
         id="path175"
         sodipodi:nodetypes="cccccccccccccccc" />
      <path
         style="fill:#ffffff;fill-opacity:1;stroke:none;stroke-width:0.2;stroke-dasharray:none;stroke-opacity:1"
         d="m 142.59916,172.58842 8.01121,-4.94052 4.06487,-2.49562 3.04982,-0.2723 -12.60933,7.70555 z"
         id="path161-6-8-0-0"
         sodipodi:nodetypes="cccccc" />
      <path
         style="fill:#ffffff;fill-opacity:1;stroke:none;stroke-width:0.2;stroke-dasharray:none;stroke-opacity:1"
         d="m 146.84783,172.58842 5.7414,-3.80561 4.06487,-2.49562 3.04982,-0.2723 -10.33952,6.57064 z"
         id="path161-6-8-0-0-1"
         sodipodi:nodetypes="cccccc" />
      <path
         style="fill:#ffffff;fill-opacity:1;stroke:none;stroke-width:0.2;stroke-dasharray:none;stroke-opacity:1"
         d="m 101.94829,142.99772 2.5581,-2.77976 0.84612,-2.33433 -2.45124,2.84719 z"
         id="path1"
         sodipodi:nodetypes="ccccc" />
      <path
         style="fill:#ffffff;fill-opacity:1;stroke:none;stroke-width:0.2;stroke-dasharray:none;stroke-opacity:1"
         d="m 78.544813,169.26456 4.257777,-0.16119 3.111164,-1.01152 -4.558339,0.10568 z"
         id="path1-0"
         sodipodi:nodetypes="ccccc" />
      <path
         style="fill:#ffffff;fill-opacity:1;stroke:none;stroke-width:0.2;stroke-dasharray:none;stroke-opacity:1"
         d="m 120.90597,121.91316 -3.37537,-1.96046 -4.02201,-0.50055 3.40026,2.12832 z"
         id="path1-5"
         sodipodi:nodetypes="ccccc" />
      <path
         style="fill:#ffffff;fill-opacity:1;stroke:none;stroke-width:0.2;stroke-dasharray:none;stroke-opacity:1"
         d="m 128.43045,122.64754 -3.37537,-1.96046 -4.02201,-0.50055 3.40026,2.12832 z"
         id="path1-5-04"
         sodipodi:nodetypes="ccccc" />
      <path
         style="fill:#ffffff;fill-opacity:1;stroke:none;stroke-width:0.2;stroke-dasharray:none;stroke-opacity:1"
         d="m 131.84445,121.44274 -2.98185,-0.3711 3.40026,2.12832 2.82383,0.23503 z"
         id="path1-5-04-1"
         sodipodi:nodetypes="ccccc" />
      <path
         style="fill:#ffffff;fill-opacity:1;stroke:none;stroke-width:0.2;stroke-dasharray:none;stroke-opacity:1"
         d="m 138.20179,122.11112 -2.14398,-0.26682 3.40026,2.12832 1.91361,0.0952 z"
         id="path1-5-04-1-9"
         sodipodi:nodetypes="ccccc" />
      <path
         style="fill:#ffffff;fill-opacity:1;stroke:none;stroke-width:0.2;stroke-dasharray:none;stroke-opacity:1"
         d="m 171.24553,163.24506 2.92419,-1.25442 2.13707,0.63556 -2.91702,1.2031 z"
         id="path1-5-0-6-4-8"
         sodipodi:nodetypes="ccccc"
         inkscape:transform-center-x="4.2305711"
         inkscape:transform-center-y="0.1495453" />
      <path
         style="fill:#ffffff;fill-opacity:1;stroke:none;stroke-width:0.2;stroke-dasharray:none;stroke-opacity:1"
         d="m 175.19133,164.3716 2.92418,-1.25443 2.13707,0.63555 -2.91703,1.20311 z"
         id="path1-5-0-6-4-8-4"
         sodipodi:nodetypes="ccccc"
         inkscape:transform-center-x="4.2305703"
         inkscape:transform-center-y="0.14955086" />
      <path
         style="fill:#ffffff;fill-opacity:1;stroke:none;stroke-width:0.2;stroke-dasharray:none;stroke-opacity:1"
         d="m 181.19881,166.06805 2.92419,-1.25442 2.13707,0.63555 -2.91703,1.20311 z"
         id="path1-5-0-6-4-8-4-1"
         sodipodi:nodetypes="ccccc"
         inkscape:transform-center-x="4.2305664"
         inkscape:transform-center-y="0.1495569" />
    </g>
  </g>
</svg>
