<?xml version="1.0" encoding="UTF-8" standalone="no"?>
<!-- Created with Inkscape (http://www.inkscape.org/) -->

<svg
   width="185.91557mm"
   height="53.622841mm"
   viewBox="0 0 185.91557 53.622841"
   version="1.1"
   id="svg1"
   sodipodi:docname="SDBXfull1280.svg"
   inkscape:version="1.3.2 (091e20e, 2023-11-25)"
   inkscape:export-filename="../SDBXtext.png"
   inkscape:export-xdpi="140.33919"
   inkscape:export-ydpi="140.33919"
   xmlns:inkscape="http://www.inkscape.org/namespaces/inkscape"
   xmlns:sodipodi="http://sodipodi.sourceforge.net/DTD/sodipodi-0.dtd"
   xmlns="http://www.w3.org/2000/svg"
   xmlns:svg="http://www.w3.org/2000/svg">
  <sodipodi:namedview
     id="namedview1"
     pagecolor="#505050"
     bordercolor="#eeeeee"
     borderopacity="1"
     inkscape:showpageshadow="0"
     inkscape:pageopacity="0"
     inkscape:pagecheckerboard="0"
     inkscape:deskcolor="#505050"
     inkscape:document-units="mm"
     inkscape:zoom="0.48487124"
     inkscape:cx="342.35893"
     inkscape:cy="623.87697"
     inkscape:window-width="1440"
     inkscape:window-height="847"
     inkscape:window-x="0"
     inkscape:window-y="1645"
     inkscape:window-maximized="0"
     inkscape:current-layer="layer2"
     showguides="true" />
  <defs
     id="defs1" />
  <g
     inkscape:groupmode="layer"
     id="layer3"
     inkscape:label="bg"
     style="display:none"
     transform="translate(-11.577372,-34.723389)">
    <rect
       style="opacity:1;fill:#3f4245;fill-opacity:1;stroke:none;stroke-width:0.960482;stroke-linecap:round"
       id="rect1-6"
       width="195.1541"
       height="74.372017"
       x="7.5036435"
       y="24.348677"
       rx="14.299511"
       ry="21.711849"
       inkscape:export-filename="sdbx4kv3.png"
       inkscape:export-xdpi="600"
       inkscape:export-ydpi="600" />
  </g>
  <g
     inkscape:groupmode="layer"
     id="layer4"
     inkscape:label="shadowbox"
     transform="translate(-11.577372,-34.723389)" />
  <g
     inkscape:groupmode="layer"
     id="layer2"
     inkscape:label="Layer 2"
     transform="translate(-11.577372,-34.723389)">
    <rect
       style="fill:#191c1e;fill-opacity:1;stroke-width:0.815281;paint-order:markers fill stroke"
       id="rect1"
       width="188.56168"
       height="94.304047"
       x="9.9135332"
       y="100.12117"
       rx="11.764839"
       ry="14.443328"
       inkscape:export-filename="../darkshapes_full1280.png"
       inkscape:export-xdpi="172.38"
       inkscape:export-ydpi="172.38" />
    <g
       id="g10"
       transform="matrix(0.2207369,-0.00177485,0.00177485,0.2207369,134.06324,97.545029)"
       style="display:inline;fill:#e0dcdf;fill-opacity:1"
       inkscape:export-filename="../darkshapes_logo06d.png"
       inkscape:export-xdpi="116"
       inkscape:export-ydpi="116">
      <g
         id="g5"
         style="display:inline;fill:#e0dcdf;fill-opacity:1">
        <path
           d="m 238.00001,368.21665 -41.28017,6.98407 c 0.2823,0.27145 0.57521,0.51165 0.84853,0.68161 0.51838,0.32237 0.86156,0.52707 2.00659,0.66352 h 38.46742 v -8.39018 c 0,0 -0.0562,0.009 -0.0424,0.061 z"
           style="display:inline;opacity:1;fill:#e0dcdf;fill-opacity:1;stroke-width:5.16257;paint-order:markers fill stroke"
           id="path5"
           sodipodi:nodetypes="cccccccc" />
        <path
           d="m 197.92187,364.21431 c -0.32393,0.0888 -0.56584,0.18957 -0.75396,0.31729 -2.26782,1.53969 -3.12511,6.04475 -1.71566,9.01495 0.1741,0.36689 0.47266,0.78749 0.81855,1.18288 l 41.75611,-9.3493 c -0.003,-0.33303 -0.004,-0.90464 -0.007,-1.16582 z"
           style="display:inline;opacity:1;fill:#e0dcdf;fill-opacity:1;stroke-width:5.16257;paint-order:markers fill stroke"
           id="path3" />
      </g>
      <path
         id="path9"
         style="display:inline;fill:#e0dcdf;fill-opacity:1;stroke:none;stroke-width:5.16257;paint-order:markers fill stroke"
         d="m 166.438,360.77007 c -0.11378,-10e-6 -0.22417,0.009 -0.33331,0.0233 l -0.82424,0.50798 -0.0176,0.0119 -1.96887,1.27848 -1.1467,0.92191 -0.28939,0.24804 c 4.17632,3.51121 8.47799,6.85927 9.01443,7.03678 0.54863,0.18154 0.77353,0.43895 1.23765,0.5116 0.63606,0.0996 1.57512,-0.51298 2.28049,-0.30748 0.3615,0.10546 0.51946,-0.0824 0.87694,0 -1.86152,0.67025 -1.58654,2.14438 -4.12843,2.91817 -0.23472,-0.34062 -0.13705,-0.3487 -0.32246,-0.72967 -0.1925,-0.39568 -0.0736,-0.88677 0.0599,-1.43144 -0.97271,-1.17087 -4.89144,-4.37508 -9.27385,-7.77937 l -0.60255,0.51625 -2.12959,2.49856 -1.31981,1.97197 c -0.11682,0.19946 -0.21818,0.36028 -0.34107,0.57309 l 5.2e-4,8.28012 c 3.01747,0.45445 6.05722,0.87537 7.66103,1.14049 0.58751,0.097 1.12151,-0.37617 1.98437,-1.11621 0.64549,-0.55359 0.60476,-0.50065 1.34411,-1.25522 0.15343,-0.1566 -0.13457,0.4753 -0.21394,0.7922 -0.54349,2.16928 -0.43362,3.77411 -0.009,4.81108 -0.55429,-0.0664 -2.07959,-2.75486 -2.67063,-2.80396 -0.64647,-0.0537 -4.37685,-0.64528 -8.09563,-1.19993 l 5.1e-4,13.4183 c 9.83133,-6.99876 10.93083,-8.44866 10.96161,-8.57364 0.21708,0.59242 0.20743,0.88236 1.04179,1.91823 -3.56598,1.36263 -7.96701,4.12115 -12.0034,6.83163 v 6.97166 h 13.39092 c 0.98149,-2.67158 1.87477,-5.37892 2.39158,-8.12663 0.0298,-0.15869 0.19357,-1.05078 0.30903,-1.85674 0.0755,-0.52732 -0.53035,-1.29018 -0.54726,-1.5136 -0.10275,-0.27671 0.086,-0.6291 0.3576,-1.0051 0.91592,-0.82033 0.51265,-2.34508 1.92702,-2.49081 1.81582,-0.38315 4.13264,3.57993 3.622,4.40697 -0.1967,0.31858 -0.0715,0.10513 -0.40256,0.51935 -0.1341,0.16779 -0.26082,0.37798 -0.44648,0.42271 -0.92948,0.22393 -1.23533,0.46742 -1.47485,0.63459 -0.17851,0.12459 -0.33866,0.27288 -0.50126,0.41806 -2.29749,2.05147 -3.68005,5.23201 -4.69274,8.5912 h 10.1291 l 0.84077,-0.0295 -2.60139,-9.73584 c 1.09796,-0.18823 2.01361,-1.00794 2.81379,-1.49397 -1.17877,0.88493 -1.82917,1.50957 -1.48002,3.00499 l 1.9296,8.20001 c 3.24338,-0.30861 6.05204,-1.93979 8.44496,-4.03437 -2.44186,-2.75872 -5.31476,-5.70923 -8.02225,-7.93389 -0.75915,-0.62379 -1.92162,-1.12727 -2.70371,-1.69808 -1.00791,0.0159 -1.71507,-0.60407 -1.73891,-0.96377 -0.17608,-0.85023 1.30899,-3.13613 2.67787,-2.27531 0.3728,0.23443 1.00618,0.55275 0.9369,1.31671 -0.0242,0.26688 0.31592,0.70833 0.40617,1.02371 0.4286,0.56277 0.74099,1.0528 1.06609,1.53479 0.32511,0.48194 0.663,0.95596 1.01182,1.42214 0.3488,0.4662 0.70783,0.92438 1.07694,1.37459 0.36908,0.45019 0.7478,0.89254 1.13378,1.32653 0.38594,0.43402 0.77893,0.85978 1.17822,1.27745 0.3993,0.41766 0.80489,0.82743 1.2144,1.22834 0.5666,0.55468 1.36782,1.44426 2.04949,2.01022 0.64695,-0.73746 1.54878,-2.09553 2.28358,-3.60908 0.9033,-1.86066 0.97417,-1.93813 0.9741,-1.99575 V 395.23 h 38.46742 c 1.14504,-0.13645 1.48821,-0.34116 2.00659,-0.66353 0.78635,-0.489 1.73861,-1.54018 2.11615,-2.33577 1.40945,-2.97021 0.55216,-7.47527 -1.71565,-9.01496 -0.18812,-0.12772 -0.43003,-0.22846 -0.75396,-0.31729 H 194.7874 l -0.0244,-2.4e-4 -0.004,-7.35383 -9.23406,1.79575 -1.42627,0.2775 c -1.25436,0.22895 -1.64717,0.36298 -2.31924,0.59893 -0.23254,0.0816 -0.42917,0.67767 -0.64596,0.755 -1.17711,0.41985 -1.95924,-1.29544 -1.65726,-2.00867 0.12898,-0.30456 0.34093,-0.76311 1.25315,-0.63355 0.69659,0.72747 2.73704,0.51001 3.20032,0.45579 0.47833,-0.0559 0.93531,-0.11109 1.37305,-0.16537 4.41398,-0.54776 6.89621,-1.02755 9.45627,-1.57716 l -0.002,-4.32429 c -1.20515,-2.87922 -2.8967,-5.45202 -5.18004,-7.22901 -1.88541,2.70525 -3.77263,5.40268 -5.27669,8.29406 -0.40396,0.78701 -1.00711,1.55337 -0.74827,2.45619 l 0.093,0.54673 -0.25373,0.39998 h -1.67277 c -1.83562,-0.29874 -2.17701,-0.98742 -2.6417,-1.97353 -0.19347,-0.36646 -0.23885,-0.39825 0.12092,-0.59324 0.1573,-0.0843 0.35499,-0.18836 0.56018,-0.29094 1.62919,-0.81448 1.34647,-0.24552 2.25929,-0.8139 0.19391,-0.12074 0.41957,-0.28704 0.72192,-0.524 0.21452,-0.16812 0.42544,-0.34434 0.63304,-0.52762 2.23332,-1.97182 4.06065,-4.77654 5.51956,-7.47344 -1.54714,-1.04125 -3.34462,-1.73254 -5.425,-1.93529 -0.84527,-0.0733 -2.04589,-0.12055 -3.60029,-0.15916 l -0.60307,7.45278 c -0.1243,0.91703 0.0646,1.75521 0.42323,2.58175 l 0.30696,0.70848 c -1.25772,-0.69534 -2.15919,-0.91073 -4.11293,-0.81028 0.009,-0.08 0.86396,-0.16302 1.56942,-0.76585 0.0978,-0.0836 0.1852,-0.15904 0.25269,-0.23616 0.27542,-0.31467 0.45104,-0.66847 0.5762,-1.04283 0.13213,-0.39516 0.50731,-1.80447 1.29501,-7.89616 -2.06328,-0.0474 -4.80846,-0.0796 -8.74934,-0.11679 -1.48846,0.005 -2.92145,0.002 -4.38681,0 z"
         sodipodi:nodetypes="cccccccsccccccccccccccsccsccccccccccccssssccccccccccccsscccsccccccccscsccccccccccccccccccccccssscccccccccccccc" />
      <path
         d="m 238.02691,365.38013 c 0.002,0.17168 0.002,0.40909 0.003,0.60099 l 0.008,-0.60358 z"
         style="display:inline;opacity:1;fill:#e0dcdf;fill-opacity:1;stroke-width:0.600001;paint-order:markers fill stroke"
         id="path4" />
    </g>
    <g
       id="g114"
       transform="translate(0.28861607,73.418257)">
      <path
         d="m 83.401554,87.591013 -1.527039,0.02687 -12.124325,5.526278 -1.20406,-1.931665 -2.215369,4.105692 z"
         style="fill:#e0dcdf;stroke-width:0.2;fill-opacity:1"
         id="path114" />
      <path
         d="m 81.320027,85.887758 -2.251542,1.179256 4.755265,-0.02325 c -0.815737,-0.39843 -1.660498,-0.774348 -2.503723,-1.156002 z"
         style="fill:#e0dcdf;stroke-width:0.2"
         id="path113" />
      <path
         d="m 81.320027,85.887758 c 0.843225,0.381654 1.687986,0.757572 2.503723,1.156002 l -4.755265,0.02325 z"
         style="fill:#e0dcdf;stroke-width:0.2"
         id="path112" />
      <path
         d="m 74.888895,83.190248 -0.300757,0.421163 -1.949235,0.0956 -1.270724,0.842842 -5.950024,-0.05426 -0.42478,-0.868681 -17.309538,0.02842 3.054077,1.594218 22.89421,0.08165 1.678451,1.145667 -8.962244,0.0021 -0.956014,0.327111 -5.358846,0.03876 0.749308,0.228926 15.882752,-0.09043 3.292305,-1.715658 C 78.274312,84.53423 76.577074,83.837318 74.888895,83.190283 Z"
         style="fill:#e0dcdf;stroke-width:0.2"
         id="path111" />
      <path
         d="m 74.888895,83.190248 c 1.688179,0.647035 3.385417,1.343947 5.068941,2.077393 l -3.292305,1.715658 -15.882752,0.09043 -0.749308,-0.228926 5.358846,-0.03876 0.956014,-0.327111 8.962244,-0.0021 -1.678451,-1.145667 -22.89421,-0.08165 -3.054077,-1.594218 17.309538,-0.02842 0.42478,0.868681 5.950024,0.05426 1.270724,-0.842842 1.949235,-0.0956 z"
         style="fill:#e0dcdf;stroke-width:0.2"
         id="path110" />
      <path
         d="m 168.80719,82.184625 -4.52427,1.008724 -0.97978,2.499072 2.82721,1.536857 2.30632,-1.438671 -0.0434,-1.429887 1.41439,-0.807703 z"
         style="fill:#e0dcdf;stroke-width:0.2"
         id="path109" />
      <path
         d="m 95.732067,81.99859 -2.942973,0.06821 -1.814359,0.688847 2.748669,-0.104387 z"
         style="fill:#e0dcdf;stroke-width:0.2"
         id="path108" />
      <path
         d="m 143.36533,80.657587 -1.96887,0.175699 -2.62361,1.611272 -3.70623,2.456697 1.62419,-0.0021 z"
         style="fill:#e0dcdf;stroke-width:0.2"
         id="path107" />
      <path
         d="m 66.752957,80.370266 -2.388484,2.844787 2.520259,0.0057 0.7059,0.906404 2.519226,0.0052 1.350306,-0.908472 0.746207,-0.482141 0.300757,-0.426331 c -2.018655,-0.729991 -3.964233,-1.39195 -5.754171,-1.9451 z"
         style="fill:#e0dcdf;stroke-width:0.2"
         id="path106" />
      <path
         d="m 53.302099,80.080878 -2.74867,0.721919 -2.149739,1.491382 -0.355534,1.084688 2.444295,-0.07596 0.232544,-0.790133 2.445329,-1.336352 z"
         style="fill:#e0dcdf;stroke-width:0.2"
         id="path105" />
      <path
         d="m 142.08789,79.925332 -1.96887,0.175699 -2.62361,1.610755 -5.17178,3.189469 1.62471,-0.0021 z"
         style="fill:#e0dcdf;stroke-width:0.2"
         id="path104" />
      <path
         d="m 142.08789,79.925332 -8.13955,4.973856 -1.62471,0.0021 5.17178,-3.189469 2.62361,-1.610755 z"
         style="fill:#e0dcdf;stroke-width:0.2"
         id="path103" />
      <path
         d="m 159.12871,79.88244 -1.88774,0.80977 1.3839,0.377238 1.88309,-0.776697 z"
         style="fill:#e0dcdf;stroke-width:0.2"
         id="path102" />
      <path
         d="m 159.12871,79.88244 1.37925,0.410311 -1.88309,0.776697 -1.3839,-0.377238 z"
         style="fill:#e0dcdf;stroke-width:0.2"
         id="path101" />
      <path
         d="m 140.48024,79.293845 -1.96887,0.1757 -2.62413,1.611272 -6.27094,3.820438 1.62471,-0.0021 z"
         style="fill:#e0dcdf;stroke-width:0.2"
         id="path100" />
      <path
         d="m 140.48024,79.293845 -9.23923,5.605343 -1.62471,0.0021 6.27094,-3.820438 2.62413,-1.611272 z"
         style="fill:#e0dcdf;stroke-width:0.2"
         id="path99" />
      <path
         d="m 155.2504,78.787416 -1.88723,0.80977 1.3839,0.376721 1.88309,-0.776696 z"
         style="fill:#e0dcdf;stroke-width:0.2"
         id="path98" />
      <path
         d="m 107.01303,78.43705 0.80047,0.869715 1.11621,3.109371 0.58343,-0.482658 0.10335,-0.296106 -0.078,-0.289905 -0.31678,-1.418001 -1.10949,-0.59583 -0.66301,-0.762744 z"
         style="fill:#e0dcdf;stroke-width:0.2"
         id="path97" />
      <path
         d="m 152.70327,78.059812 -1.88723,0.80977 1.3839,0.377238 1.88309,-0.776697 z"
         style="fill:#e0dcdf;stroke-width:0.2"
         id="path96" />
      <path
         d="m 102.58436,76.99166 -8.772072,4.291211 6.575822,-0.348299 2.78226,-0.513664 -0.0217,-1.367358 0.33021,-1.385445 z"
         style="fill:#e0dcdf;stroke-width:0.2"
         id="path95" />
      <path
         d="m 110.71771,76.708474 -1.70015,0.903304 0.87023,4.16512 -0.38499,1.358573 0.20516,0.877983 0.48886,-0.549837 1.9854,-0.160197 1.01648,-0.811837 z"
         style="fill:#e0dcdf;stroke-width:0.2"
         id="path94" />
      <path
         d="m 130.34391,73.027561 -3.60857,1.896009 1.04697,1.11156 -0.15555,1.119828 7.63209,3.341915 -2.89543,1.81901 -21.6426,1.419552 -0.57206,0.86713 2.8639,2.528011 11.21224,0.02377 6.69262,-3.772897 8.96844,-5.439978 0.46405,-1.177706 z"
         style="fill:#e0dcdf;stroke-width:0.2"
         id="path93" />
      <path
         d="m 117.70178,70.682485 -11.53159,4.766634 -0.79272,1.11001 1.41749,1.699121 5.46581,-2.68149 0.709,-1.62109 3.1781,-1.41025 z"
         style="fill:#e0dcdf;stroke-width:0.2"
         id="path92" />
      <path
         d="m 117.70178,70.682485 -1.55391,1.862935 -3.1781,1.41025 -0.709,1.62109 -5.46581,2.68149 -1.41749,-1.699121 0.79272,-1.11001 z m -6.98407,6.025989 2.48099,5.783109 -1.01648,0.811837 -1.9854,0.160197 -0.48886,0.549837 -0.20516,-0.877983 0.38499,-1.358573 -0.87023,-4.16512 z m -8.13335,0.283186 0.89452,0.676445 -0.33021,1.385445 0.0217,1.367358 -2.78226,0.513664 -6.575822,0.348299 z m 50.11891,1.068152 1.37976,0.410311 -1.88309,0.776697 -1.3839,-0.377238 z m -45.69024,0.377238 0.43615,0.133842 0.66301,0.762744 1.10949,0.59583 0.31678,1.418001 0.078,0.289905 -0.10335,0.296106 -0.58343,0.482658 -1.11621,-3.109371 z m 48.23737,0.350366 1.37976,0.409795 -1.88309,0.776696 -1.3839,-0.376721 z"
         style="fill:#e0dcdf;stroke-width:0.2"
         id="path91" />
      <path
         d="m 142.3964,68.355495 -3.50108,5.544364 8.51473,11.62203 14.02188,4.05815 4.069,-2.060856 -9.01805,-4.929415 -0.45837,-1.798339 -6.10557,-1.784904 0.29817,-0.623735 -4.31291,-1.504818 -0.0532,-4.955253 z"
         style="fill:#e0dcdf;stroke-width:0.2"
         id="path90" />
      <path
         d="m 138.28812,68.145689 -2.73678,1.814359 -0.47542,0.738973 0.99787,1.075904 z"
         style="fill:#e0dcdf;stroke-width:0.2"
         id="path89" />
      <path
         d="m 140.82802,66.718902 -3.72484,5.787761 0.99839,1.075903 3.45974,-5.671488 z"
         style="fill:#e0dcdf;stroke-width:0.2"
         id="path88" />
      <path
         d="m 128.57657,66.170616 -1.80971,0.749825 -9.0444,3.748091 0.66404,0.531751 6.34896,-1.367875 4.27416,-2.397787 0.81029,-1.020093 z"
         style="fill:#e0dcdf;stroke-width:0.2"
         id="path87" />
      <path
         d="m 128.57657,66.170616 1.24334,0.243912 -0.81029,1.020093 -4.27416,2.397787 -6.34896,1.367875 -0.66404,-0.531751 9.0444,-3.748091 z"
         style="fill:#e0dcdf;stroke-width:0.2"
         id="path86" />
      <path
         d="m 94.01951,64.06015 -8.232572,1.458826 -0.697632,0.869714 -8.752954,2.380217 -2.067574,2.565218 4.478796,0.557588 1.423686,-0.311092 2.880961,0.24443 2.763655,-0.243396 1.51567,-3.443201 -2.198832,0.234611 0.205155,-0.46147 4.974891,-0.565857 16.77313,12.689148 1.12914,3.669543 -0.83148,0.602547 -20.634397,-1.227315 -2.177645,0.665592 -0.856795,0.591179 2.444295,0.419612 -0.107487,1.07487 -1.449007,-0.16123 c 0.708273,0.478806 1.296878,0.881839 2.005045,1.360123 l 19.124931,-0.09353 3.58531,-2.600875 -1.69292,-4.770251 z"
         style="fill:#e0dcdf;stroke-width:0.2"
         id="path85" />
      <path
         d="m 94.01951,64.06015 13.60537,15.504997 1.69292,4.770251 -3.58531,2.600875 -19.124931,0.09353 c -0.708167,-0.47828 -1.296772,-0.881313 -2.005045,-1.360119 l 1.449007,0.16123 0.107487,-1.07487 -2.444295,-0.419612 0.856795,-0.591179 2.177645,-0.665592 20.634397,1.227315 0.83148,-0.602547 -1.12914,-3.669543 -16.77313,-12.689148 -4.974891,0.565857 -0.205155,0.46147 2.198832,-0.234611 -1.51567,3.443201 -2.763655,0.243396 -2.880961,-0.24443 -1.423686,0.311092 -4.478796,-0.557588 2.067574,-2.565218 8.752954,-2.380217 0.697632,-0.869714 z"
         style="fill:#e0dcdf;stroke-width:0.2"
         id="path84" />
      <path
         d="m 114.80119,63.725804 -6.58823,10.115661 -0.11111,0.259416 0.11111,0.258899 1.22008,-0.517281 -0.13023,-0.35295 -0.29507,-0.710035 1.79111,-2.608626 0.40876,-0.07183 1.78542,-2.927987 0.12505,-0.567924 0.3514,-0.187585 0.37621,-0.201538 0.63665,-1.07332 0.19741,-1.012858 z"
         style="fill:#e0dcdf;stroke-width:0.2"
         id="path83" />
      <path
         d="m 108.28014,62.498488 -1.58234,1.837614 -0.61546,1.463477 1.65158,-1.794723 z"
         style="fill:#e0dcdf;stroke-width:0.2"
         id="path82" />
      <path
         d="m 108.28014,62.498488 -0.54622,1.506368 -1.65158,1.794723 0.61546,-1.463477 z"
         style="fill:#e0dcdf;stroke-width:0.2"
         id="path81" />
      <path
         d="m 121.49897,59.802529 -10.79883,0.837158 -1.84381,1.607137 -2.7373,7.350456 1.56528,3.521749 5.71024,-8.737452 -0.32142,-0.535367 0.69039,-0.427881 5.32423,-0.509013 2.50992,-0.242879 0.74362,0.306958 -3.04942,0.342614 0.69918,0.173633 11.61376,2.629297 -0.87436,1.412834 -4.63486,2.667537 -2.09135,0.482658 -4.39715,0.986503 0.81856,2.719731 1.96887,0.460437 5.76554,-1.759583 2.77089,-0.712101 6.37377,-4.663281 -2.40295,-2.929537 z"
         style="fill:#e0dcdf;stroke-width:0.2"
         id="path80" />
      <path
         d="m 121.49897,59.802529 13.4028,4.981608 2.40295,2.929537 -6.37377,4.663281 -2.77089,0.712101 -5.76554,1.759583 -1.96887,-0.460437 -0.81856,-2.719731 4.39715,-0.986503 2.09135,-0.482658 4.63486,-2.667537 0.87436,-1.412834 -11.61376,-2.629297 -0.69918,-0.173633 3.04942,-0.342614 -0.74362,-0.306958 -2.50992,0.242879 -5.32423,0.509013 -0.69039,0.427881 0.32142,0.535367 -5.71024,8.737452 -1.56528,-3.521749 2.7373,-7.350456 1.84381,-1.607137 z m -6.69778,3.923275 -0.12144,0.402042 -0.19741,1.012858 -0.63665,1.07332 -0.37621,0.201538 -0.3514,0.187585 -0.12505,0.567924 -1.78542,2.927987 -0.40876,0.07183 -1.79111,2.608626 0.29507,0.710035 0.13023,0.35295 -1.22008,0.517281 -0.11111,-0.258899 0.11111,-0.259416 z m 15.54272,9.301757 10.0061,3.736206 -0.46405,1.177706 -8.96844,5.439978 -6.69262,3.772897 -11.21224,-0.02377 -2.8639,-2.528011 0.57206,-0.86713 21.6426,-1.419552 2.89543,-1.81901 -7.63209,-3.341915 0.15555,-1.119828 -1.04697,-1.11156 z"
         style="fill:#e0dcdf;stroke-width:0.2"
         id="path79" />
      <path
         d="m 98.11125,56.152106 -2.033984,0.176733 -12.601298,2.297534 0.529166,0.912606 16.826366,-3.10317 z"
         style="fill:#e0dcdf;stroke-width:0.2"
         id="path78" />
      <path
         d="m 98.11125,56.152106 2.72025,0.283703 -16.826366,3.10317 -0.529166,-0.912606 12.601298,-2.297534 z"
         style="fill:#e0dcdf;stroke-width:0.2"
         id="path77" />
      <path
         d="m 70.484512,54.824538 -1.350305,0.332796 -0.397908,-0.208773 -0.851628,0.04237 0.80822,1.709973 11.622546,3.42098 -3.415295,0.623218 -4.169255,-1.413351 -1.599386,-0.48059 -2.213301,0.322461 2.923336,0.700732 2.361096,1.564246 9.268685,-1.856218 -0.409278,-0.713651 c -2.04544,-0.491493 -7.69785,-2.471257 -12.214758,-3.661787 z"
         style="fill:#e0dcdf;stroke-width:0.2"
         id="path76" />
      <path
         d="m 70.484512,54.824538 0.362769,0.382406 c 4.516908,1.19053 10.169318,3.170294 12.214758,3.661792 l 0.409278,0.713651 -9.268685,1.856218 -2.361096,-1.564246 -2.923336,-0.700732 2.213301,-0.322461 1.599386,0.48059 4.169255,1.413351 3.415295,-0.623218 -11.622546,-3.42098 -0.80822,-1.709973 0.851628,-0.04237 0.397908,0.208773 z"
         style="fill:#e0dcdf;stroke-width:0.2"
         id="path75" />
      <path
         d="m 158.82692,52.510467 -14.55518,6.307109 -9.90689,5.224487 1.70274,0.698666 2.22829,2.783292 1.27692,-0.08062 0.9586,-1.3224 9.22889,-2.778642 8.52403,-7.269323 z"
         style="fill:#e0dcdf;stroke-width:0.2"
         id="path74" />
      <path
         d="m 158.82692,52.510467 -0.5426,3.562574 -8.52403,7.269323 -9.22889,2.778642 -0.9586,1.3224 -1.27692,0.08062 -2.22829,-2.783292 -1.70274,-0.698666 9.90689,-5.224487 z m -17.9989,14.208435 0.73329,1.192176 -3.45974,5.671488 -0.99839,-1.075903 z m -2.5399,1.426787 -2.21433,3.629236 -0.99787,-1.075904 0.47542,-0.738973 z m 4.10828,0.209806 3.45457,3.567224 0.0532,4.955253 4.31291,1.504818 -0.29817,0.623735 6.10557,1.784904 0.45837,1.798339 9.01805,4.929415 -4.069,2.060856 -14.02188,-4.05815 -8.51473,-11.62203 z"
         style="fill:#e0dcdf;stroke-width:0.2"
         id="path73" />
      <path
         d="m 116.14684,52.321332 5.55832,6.840926 11.79721,4.555794 0.6966,-0.445451 -1.9575,-1.8557 -8.338,-3.21014 -4.71754,-5.586223 c -1.01067,-0.106266 -2.01949,-0.238269 -3.03909,-0.299206 z"
         style="fill:#e0dcdf;stroke-width:0.2"
         id="path72" />
      <path
         d="m 116.14684,52.321332 c 1.0196,0.06094 2.02842,0.19294 3.03909,0.299206 l 4.71754,5.586223 8.338,3.21014 1.9575,1.8557 -0.6966,0.445451 -11.79721,-4.555794 z"
         style="fill:#e0dcdf;stroke-width:0.2"
         id="path71" />
      <path
         d="m 128.10115,52.144598 2.19521,1.37356 1.23507,0.0615 -2.04639,-1.262972 z"
         style="fill:#e0dcdf;stroke-width:0.2"
         id="path70" />
      <path
         d="m 128.10115,52.144598 1.38389,0.172083 2.04639,1.262972 -1.23507,-0.0615 z"
         style="fill:#e0dcdf;stroke-width:0.2"
         id="path69" />
      <path
         d="m 123.45647,51.645404 2.19522,1.374076 1.82262,0.151929 -2.09289,-1.286226 z"
         style="fill:#e0dcdf;stroke-width:0.2"
         id="path68" />
      <path
         d="m 123.45647,51.645404 1.92495,0.239779 2.09289,1.286226 -1.82262,-0.151929 z"
         style="fill:#e0dcdf;stroke-width:0.2"
         id="path67" />
      <path
         d="m 118.40252,51.074379 2.19469,1.37356 2.58021,0.214974 -2.17868,-1.265556 z"
         style="fill:#e0dcdf;stroke-width:0.2"
         id="path66" />
      <path
         d="m 118.40252,51.074379 2.59622,0.322978 2.17868,1.265556 -2.58021,-0.214974 z"
         style="fill:#e0dcdf;stroke-width:0.2"
         id="path65" />
      <path
         d="m 113.54493,50.59999 2.19522,1.374076 2.5802,0.214974 -2.17919,-1.265556 z"
         style="fill:#e0dcdf;stroke-width:0.2"
         id="path64" />
      <path
         d="m 113.54493,50.59999 2.59623,0.323494 2.17919,1.265556 -2.5802,-0.214974 z"
         style="fill:#e0dcdf;stroke-width:0.2"
         id="path63" />
      <path
         d="m 160.08473,41.808795 -3.72846,4.070553 2.97863,0.588594 -0.71778,4.661731 -4.90203,2.020549 -1.03353,1.094506 -1.54667,0.656291 -0.28267,0.462504 8.06152,-3.450952 0.95136,-5.753137 z"
         style="fill:#e0dcdf;stroke-width:0.2"
         id="path62" />
      <path
         d="m 66.051191,71.494322 c -0.460103,-0.314947 -0.910062,-0.622831 -1.366325,-0.935344 l -0.824755,0.676961 z"
         style="fill:#e0dcdf;stroke-width:0.2"
         id="path61" />
      <path
         d="M 75.553454,77.996767 C 74.072182,76.98741 72.711769,76.050198 71.22917,75.037775 l -0.821139,0.978234 c 1.314614,0.90484 2.817854,1.929682 4.414201,3.017904 z"
         style="fill:#e0dcdf;stroke-width:0.2"
         id="path60" />
      <path
         d="m 71.575402,74.625397 4.278292,2.94659 1.693953,-2.401921 -0.566373,-1.25212 -0.68368,-0.814937 -3.164148,-0.333313 z"
         style="fill:#e0dcdf;stroke-width:0.2"
         id="path59" />
      <path
         d="m 65.134451,70.190008 2.095997,1.443323 14.670422,1.730127 -5.035352,7.056934 c 1.739864,1.183133 3.496675,2.374874 5.373316,3.645255 l 1.326017,-0.709 -1.64176,-0.101286 4.987809,-8.506974 -4.759916,-1.91978 -13.816728,-1.620056 1.661914,-1.590601 2.081527,-2.312003 5.57227,-1.698088 5.917468,-1.784904 36.032945,-6.600114 -3.86385,-4.80074 -2.84479,-1.788522 -4.42247,0.547254 -0.99373,1.026294 3.37757,2.185913 -0.50488,0.920874 -35.866545,6.689514 -3.57601,1.44694 -0.45992,2.424142 -4.037996,3.270601 z"
         style="fill:#e0dcdf;stroke-width:0.2"
         id="path58" />
    </g>
    <g
       id="g1"
       transform="translate(-95.228188,74.211772)">
      <g
         id="g170-4-5-3-6-2-4-7-5"
         transform="matrix(1.5507706,0.48171976,-0.48171976,1.5507706,335.19734,161.52399)"
         inkscape:export-filename="g170-4-5-3-6-2-4.png"
         inkscape:export-xdpi="96"
         inkscape:export-ydpi="96"
         style="fill:#e0dcdf;fill-opacity:1">
        <path
           d="m -125.71685,-37.102555 c -0.338,0.271696 -1.83145,1.124466 -6.79192,3.729807 l 0.749,-0.07458 c 4.5764,-1.869671 4.62365,-2.165907 5.47583,-2.060317 0.40958,0.05076 6.64955,6.718578 7.84725,8.001889 l 0.52134,3.314261 c 0,0 0.0388,-0.03049 0.0707,-0.05148 -0.081,-0.286893 -0.25033,-2.887672 -0.34818,-3.154814 -1.10519,-2.055646 -5.65884,-7.603563 -7.3999,-9.654372 -0.0292,-0.03424 -0.0825,-0.03365 -0.12413,-0.0504 z"
           style="fill:#e0dcdf;fill-opacity:1;stroke-width:1.68916;stroke-linecap:round"
           id="path167-5-8-6-6-6-0-3-7"
           sodipodi:nodetypes="ccccccccccc" />
      </g>
      <path
         d="m -211.10465,200.66564 c 0.0149,0.0446 0.0223,0.0878 0.0297,0.13091 l 1.75704,5.6564 c 56.50986,17.02774 116.685533,35.32824 122.694562,38.0641 35.980834,11.46498 109.323115,34.25749 179.392672,55.68872 l 2.77238,-1.62189 L -62.09651,249.4917 c -66.93414,-23.32699 -51.48739,-21.65341 -6.803241,-41.65561 0.380074,-0.17033 0.762899,-0.34214 1.14751,-0.51544 l -1.045016,0.007 c -0.63296,0.15917 -1.349224,0.31239 -2.143362,0.4604 -19.999005,3.71758 -89.623261,3.61598 -140.166931,-7.12634 z"
         style="fill:#e0dcdf;fill-opacity:1;stroke-width:4.88168;stroke-linecap:round"
         id="path182-1-2-7-3"
         sodipodi:nodetypes="cccccccsccscc"
         transform="matrix(0.20849752,0.06476611,-0.06476611,0.20849752,171.46448,7.8813516)" />
      <path
         d="m -2.8562941,262.15357 -5.3521189,-17.38088 -28.01744,-5.66778 -10.077897,10.93525 c -0.271481,0.80069 0.947952,1.92871 1.969762,1.27738 l 9.42017,-9.67343 25.1314099,5.00522 4.8027603,16.16383 c 0.4135437,0.54891 1.8863842,0.25437 2.1234281,-0.65974 z"
         style="fill:#e0dcdf;fill-opacity:1;stroke:none;stroke-width:0.364594;stroke-linecap:round;stroke-dasharray:none;stroke-opacity:1"
         id="path1-6-5-4"
         sodipodi:nodetypes="cccccccccc"
         transform="matrix(0.20849752,0.06476611,-0.06476611,0.20849752,171.46448,7.8813516)" />
      <g
         id="g170-4-5-3-6-2-4-5-0-3"
         transform="matrix(-1.5507706,-0.48171976,0.48171976,-1.5507706,-38.051008,-38.454101)"
         style="fill:#e0dcdf;fill-opacity:1">
        <path
           d="m -125.71685,-37.102555 c -0.338,0.271696 -1.83145,1.124466 -6.79192,3.729807 l 0.749,-0.07458 c 4.5764,-1.869671 4.62365,-2.165907 5.47583,-2.060317 0.40958,0.05076 6.64955,6.718578 7.84725,8.001889 l 0.52134,3.314261 c 0,0 0.0388,-0.03049 0.0707,-0.05148 -0.081,-0.286893 -0.25033,-2.887672 -0.34818,-3.154814 -1.10519,-2.055646 -5.65884,-7.603563 -7.3999,-9.654372 -0.0292,-0.03424 -0.0825,-0.03365 -0.12413,-0.0504 z"
           style="fill:#e0dcdf;fill-opacity:1;stroke-width:1.68916;stroke-linecap:round"
           id="path167-5-8-6-6-6-0-2-2-0"
           sodipodi:nodetypes="ccccccccccc" />
      </g>
      <path
         d="m 156.64857,330.91913 c -0.0149,-0.0446 -0.0223,-0.087 -0.0298,-0.13239 l -1.75704,-5.65641 C 98.351917,308.1026 38.176245,289.8021 32.167216,287.06624 -3.813618,275.60126 -77.155898,252.80875 -147.22553,231.37751 l -2.77231,1.62197 157.638268,49.09211 c 66.934137,23.32706 51.487386,21.65348 6.803241,41.6556 -0.380073,0.17033 -0.762899,0.34215 -1.14751,0.51545 l 1.045091,-0.007 c 0.63296,-0.15917 1.349372,-0.31239 2.143436,-0.4604 19.998931,-3.71758 89.623184,-3.61605 140.166934,7.12634 z"
         style="fill:#e0dcdf;fill-opacity:1;stroke-width:4.88168;stroke-linecap:round"
         id="path182-1-2-1-1-4"
         sodipodi:nodetypes="cccccccsccscc"
         transform="matrix(0.20849752,0.06476611,-0.06476611,0.20849752,171.46448,7.8813516)" />
      <path
         d="m -51.599788,269.43113 5.352119,17.38096 28.01744,5.66778 10.0778975,-10.93526 c 0.271481,-0.80068 -0.9480268,-1.92871 -1.9697625,-1.27745 l -9.420095,9.6735 -25.13141,-5.00521 -4.802835,-16.16391 c -0.413544,-0.54891 -1.886384,-0.25438 -2.123577,0.65973 z"
         style="fill:#e0dcdf;fill-opacity:1;stroke:none;stroke-width:0.364594;stroke-linecap:round;stroke-dasharray:none;stroke-opacity:1"
         id="path1-6-1-8-8"
         sodipodi:nodetypes="cccccccccc"
         transform="matrix(0.20849752,0.06476611,-0.06476611,0.20849752,171.46448,7.8813516)" />
      <path
         d="m -221.33886,257.10861 c 0.24202,0.74824 0.56279,1.7873 0.82791,2.62534 l -0.78395,-2.65138 z"
         style="opacity:1;fill:#e0dcdf;stroke-width:2.7482;paint-order:markers fill stroke"
         id="path14"
         transform="matrix(0.20849752,0.06476611,-0.06476611,0.20849752,171.46448,7.8813516)" />
      <path
         d="m 119.6779,47.152604 c 0.002,0.17168 0.002,0.409098 0.003,0.600997 l 0.008,-0.60358 z"
         style="display:inline;opacity:1;fill:#e0dcdf;stroke-width:0.600001;paint-order:markers fill stroke"
         id="path2" />
    </g>
    <path
       d="m 148.58354,162.01786 -0.34313,0.17363 c -0.4788,0.24222 -0.82293,0.72222 -0.8847,1.23351 -0.027,0.22371 -0.0381,2.31715 -0.0248,4.65192 0.0264,4.65828 0.005,4.44648 0.4992,4.91598 0.47562,0.45142 0.36222,0.44164 5.21932,0.44493 3.85544,0.003 4.49829,-0.013 4.74545,-0.11627 0.36584,-0.15286 0.60794,-0.3804 0.81648,-0.76791 0.16467,-0.30598 0.1664,-0.34915 0.1664,-4.824 v -4.51549 l -0.17156,-0.32039 c -0.0943,-0.1764 -0.26811,-0.39661 -0.38603,-0.48937 -0.49741,-0.39132 -0.4287,-0.38654 -5.18573,-0.38654 z m 8.6589,0.49919 c 0.0247,-0.0205 0.06,-0.0155 0.12299,0.017 0.0486,0.0251 0.14531,0.0537 0.21446,0.0636 0.0938,0.0134 0.12785,0.0316 0.13539,0.0708 0.0139,0.0721 0.11753,0.15473 0.17674,0.14108 0.0355,-0.008 0.0663,0.0237 0.11369,0.11679 0.0358,0.0703 0.097,0.15751 0.1359,0.19378 0.0504,0.047 0.0663,0.0836 0.0553,0.12764 -0.009,0.034 -0.002,0.0871 0.0145,0.11834 0.0466,0.087 0.043,8.67361 -0.004,8.7483 -0.0257,0.0412 -0.0263,0.0626 -0.003,0.0863 0.0238,0.0238 0.006,0.0638 -0.0713,0.16175 -0.0565,0.0715 -0.1183,0.1677 -0.13746,0.21394 -0.0212,0.0513 -0.0495,0.0784 -0.0718,0.0698 -0.0548,-0.021 -0.20993,0.1043 -0.19585,0.15813 0.009,0.0352 -0.014,0.0485 -0.1049,0.061 -0.0642,0.009 -0.16155,0.0423 -0.21601,0.0744 -0.0876,0.0517 -0.10091,0.0537 -0.11576,0.015 -0.0153,-0.0398 -0.38913,-0.0439 -4.12378,-0.0439 -3.62524,0 -4.10881,0.005 -4.12274,0.0413 -0.0186,0.0485 -0.0286,0.0485 -0.15451,0 -0.0528,-0.0203 -0.15472,-0.0381 -0.22635,-0.0393 -0.0958,-0.002 -0.13022,-0.0126 -0.13022,-0.0424 0,-0.0508 -0.20943,-0.16226 -0.23306,-0.12402 -0.0294,0.0476 -0.0568,0.0301 -0.11679,-0.0754 -0.0322,-0.0566 -0.0952,-0.12707 -0.14004,-0.15658 -0.0651,-0.0428 -0.0762,-0.0633 -0.0553,-0.10232 0.0283,-0.0529 -0.0362,-0.21394 -0.0858,-0.21394 -0.0147,0 -0.0272,-0.0586 -0.0274,-0.13023 -1.8e-4,-0.0716 -0.0172,-0.19523 -0.0382,-0.2744 -0.0329,-0.12369 -0.0331,-0.14366 0,-0.14366 0.0331,0 0.0388,-0.59057 0.0388,-4.09691 0,-2.85758 -0.009,-4.09997 -0.0289,-4.10672 -0.0172,-0.006 -0.001,-0.0597 0.0388,-0.13229 0.0374,-0.0676 0.077,-0.16928 0.0873,-0.22583 0.0131,-0.0715 0.0329,-0.10284 0.0656,-0.10284 0.0585,0 0.17885,-0.12499 0.17932,-0.18603 2.1e-4,-0.0277 0.0439,-0.0616 0.11265,-0.0873 0.0617,-0.0231 0.156,-0.0749 0.20929,-0.11576 0.0533,-0.0408 0.10272,-0.0683 0.11007,-0.061 0.0288,0.0288 8.55687,0.0108 8.59172,-0.0181 z"
       style="font-weight:300;font-size:32px;line-height:17.7608px;font-family:Orbitron;-inkscape-font-specification:'Orbitron, Light';text-align:end;white-space:pre;mix-blend-mode:normal;fill:#e0dcdf;fill-opacity:1;fill-rule:evenodd;stroke:none;stroke-width:0.894199;stroke-linecap:square;stroke-dasharray:0.22355, 0.22355;paint-order:fill markers stroke"
       id="path64-4" />
    <path
       d="m 170.70881,162.01786 -1.88878,2.25774 c -2.02408,2.41897 -2.48762,2.93822 -2.58744,2.89956 -0.0349,-0.0135 -1.02767,-1.16486 -2.20606,-2.5585 -1.1784,-1.39364 -2.18633,-2.55075 -2.24018,-2.57142 -0.0538,-0.0207 -0.22279,-0.0264 -0.37517,-0.0129 l -0.27698,0.0243 2.16782,2.58589 c 1.19235,1.42209 2.26699,2.69565 2.38797,2.83032 l 0.22014,0.24495 -2.29288,2.73213 c -1.26093,1.5028 -2.34004,2.79069 -2.3983,2.86184 -0.0965,0.11792 -0.0725,0.12887 0.27026,0.12454 l 0.37569,-0.005 2.15801,-2.56832 c 2.02792,-2.41372 2.16776,-2.56258 2.32802,-2.47943 0.0938,0.0487 1.0989,1.19193 2.23397,2.54093 1.13508,1.349 2.10684,2.46954 2.15956,2.48977 0.0527,0.0202 0.22374,0.0258 0.37982,0.0124 l 0.28371,-0.0243 -0.75758,-0.8878 c -2.27076,-2.66037 -3.96535,-4.74085 -3.93206,-4.82762 0.0208,-0.0541 1.03869,-1.29175 2.26188,-2.75021 1.22319,-1.45847 2.27131,-2.71194 2.32957,-2.78536 0.0972,-0.12254 0.0769,-0.13385 -0.24753,-0.13385 z"
       style="font-weight:300;font-size:32px;line-height:17.7608px;font-family:Orbitron;-inkscape-font-specification:'Orbitron, Light';text-align:end;white-space:pre;mix-blend-mode:normal;fill:#e0dcdf;fill-opacity:1;fill-rule:evenodd;stroke:none;stroke-width:0.894199;stroke-linecap:square;stroke-dasharray:0.22355, 0.22355;paint-order:fill markers stroke"
       id="path65-9" />
    <path
       d="m 133.26923,162.01786 v 5.71179 5.71128 h 5.08858 c 2.9623,0 5.16849,-0.0299 5.27875,-0.0718 0.30827,-0.1172 0.76069,-0.55981 0.91157,-0.89193 0.12256,-0.2698 0.14063,-0.53415 0.14211,-2.06396 0.002,-1.95757 -0.0365,-2.15846 -0.49454,-2.59054 -0.21713,-0.2048 -0.25624,-0.29279 -0.23978,-0.53589 0.0108,-0.15987 0.059,-0.38847 0.10748,-0.50797 0.0565,-0.1393 0.0884,-0.80744 0.0884,-1.86242 v -1.6459 l -0.21497,-0.41134 c -0.17397,-0.33302 -0.2933,-0.45235 -0.62632,-0.62632 l -0.41135,-0.21497 h -4.81521 z m 1.54409,0.48989 c 0.0223,0.0336 0.58792,0.0393 3.99976,0.0398 2.51308,2.6e-4 3.98304,-0.009 3.99975,-0.0258 0.0169,-0.017 0.062,0.002 0.12558,0.0522 0.0545,0.0432 0.14365,0.0867 0.19844,0.0966 0.0819,0.0148 0.0974,0.028 0.0858,0.0724 -0.0181,0.0694 0.11762,0.21497 0.2005,0.21497 0.0481,0 0.0644,0.0209 0.0796,0.10284 0.0105,0.0566 0.0502,0.14402 0.0884,0.1943 0.0511,0.0673 0.0613,0.0995 0.0388,0.12196 -0.0217,0.0217 -0.0305,0.46018 -0.0305,1.5167 0,1.33507 0.005,1.48767 0.0439,1.50275 0.0389,0.0149 0.0375,0.0269 -0.0119,0.11059 -0.0305,0.0517 -0.0641,0.1503 -0.0744,0.21911 -0.0141,0.0943 -0.0306,0.12506 -0.0672,0.12506 -0.0669,0 -0.19939,0.17966 -0.17932,0.24287 0.0127,0.0401 -0.007,0.0566 -0.10129,0.0842 -0.0643,0.0189 -0.15028,0.0663 -0.1912,0.10491 -0.0605,0.0571 -0.0819,0.0639 -0.11472,0.0367 -0.0302,-0.0251 -0.0549,-0.026 -0.0977,-0.003 -0.0411,0.022 -1.12595,0.0302 -3.89485,0.0289 -2.58972,-0.001 -3.83853,0.008 -3.83853,0.0264 0,0.0323 -0.1191,0.0325 -0.21911,5.1e-4 -0.0377,-0.0121 -0.12732,-0.0233 -0.19895,-0.0248 -0.0716,-0.002 -0.13023,-0.0149 -0.13023,-0.03 0,-0.0448 -0.17264,-0.10519 -0.22479,-0.0786 -0.0357,0.0183 -0.0636,0.001 -0.12092,-0.0739 -0.041,-0.0538 -0.10994,-0.11649 -0.15348,-0.139 -0.0593,-0.0307 -0.0751,-0.0538 -0.0625,-0.0935 0.0192,-0.0604 -0.063,-0.2186 -0.11369,-0.2186 -0.0199,0 -0.0415,-0.0631 -0.0532,-0.15761 -0.0108,-0.0867 -0.0355,-0.2039 -0.0553,-0.26045 -0.031,-0.0883 -0.0306,-0.10283 0.004,-0.10283 0.0343,0 0.0403,-0.15816 0.0403,-1.1219 0,-0.61702 -0.0102,-1.12565 -0.0222,-1.13068 -0.033,-0.0137 0.0222,-0.51709 0.0682,-0.62115 0.0324,-0.0734 0.0337,-0.0986 0.006,-0.13229 -0.0289,-0.0349 -0.0213,-0.052 0.0476,-0.10594 0.0453,-0.0354 0.10535,-0.11522 0.13332,-0.17725 0.0351,-0.0779 0.0634,-0.1079 0.0915,-0.0971 0.0533,0.0205 0.22523,-0.0978 0.21704,-0.14934 -0.005,-0.0283 0.0305,-0.0459 0.11886,-0.0589 0.0691,-0.0102 0.17466,-0.0438 0.23461,-0.0744 0.0925,-0.0472 0.11289,-0.0498 0.13487,-0.0165 z m 8.33748,5.31802 c 0.0131,-0.0341 0.0327,-0.0316 0.12712,0.0165 0.0614,0.0314 0.16814,0.0652 0.2372,0.0754 0.0949,0.014 0.12348,0.0294 0.11782,0.0631 -0.009,0.0537 0.12657,0.16704 0.17673,0.14779 0.021,-0.008 0.0637,0.0337 0.10387,0.10232 0.0375,0.064 0.10543,0.1523 0.1509,0.19586 0.0633,0.0606 0.0753,0.0873 0.0522,0.11524 -0.022,0.0266 -0.022,0.0572 0,0.11213 0.0405,0.10109 0.0463,0.42816 0.0362,2.07274 -0.005,0.76676 -0.002,1.4012 0.007,1.40974 0.009,0.008 -0.0161,0.0568 -0.0548,0.10748 -0.0387,0.0507 -0.0893,0.14807 -0.11266,0.21653 -0.0315,0.0924 -0.0532,0.12061 -0.0848,0.10852 -0.0587,-0.0225 -0.20284,0.11874 -0.18345,0.17983 0.012,0.0377 -0.008,0.051 -0.10284,0.0662 -0.0647,0.0104 -0.17219,0.0502 -0.23926,0.0889 -0.08,0.0461 -0.12586,0.0596 -0.13281,0.0388 -0.0162,-0.0486 -8.19644,-0.0456 -8.2088,0.003 -0.007,0.0278 -0.0364,0.0283 -0.14573,0.003 h -5.1e-4 c -0.0754,-0.0177 -0.19554,-0.0337 -0.26717,-0.0351 -0.0716,-0.001 -0.13022,-0.0148 -0.13022,-0.0295 0,-0.0147 -0.0379,-0.0463 -0.0842,-0.0703 -0.0667,-0.0345 -0.0924,-0.0366 -0.12402,-0.0103 -0.0322,0.0267 -0.0479,0.0232 -0.0796,-0.0186 -0.0217,-0.0286 -0.0398,-0.0617 -0.0403,-0.0734 -5.3e-4,-0.0116 -0.0551,-0.0556 -0.12144,-0.0977 -0.0949,-0.0601 -0.11513,-0.0855 -0.0956,-0.1204 0.03,-0.0537 -0.0703,-0.2403 -0.12919,-0.2403 -0.0277,0 -0.0382,-0.0375 -0.0382,-0.13384 0,-0.0735 -0.0178,-0.18341 -0.0393,-0.24443 -0.0339,-0.0961 -0.0339,-0.11308 0,-0.12609 0.0332,-0.0127 0.0393,-0.22708 0.0393,-1.41283 0,-1.25437 -0.005,-1.40057 -0.0444,-1.42266 -0.0403,-0.0225 -0.0397,-0.0317 0.002,-0.11213 0.025,-0.0483 0.0523,-0.14782 0.061,-0.22118 0.0111,-0.094 0.0265,-0.12955 0.0517,-0.11989 0.0474,0.0182 0.1831,-0.18847 0.16123,-0.24546 -0.0121,-0.0317 0.0153,-0.06 0.0992,-0.10284 0.0637,-0.0325 0.1462,-0.0953 0.18345,-0.13952 0.0535,-0.0635 0.0759,-0.0735 0.10594,-0.0486 0.0298,0.0247 0.0377,0.0219 0.0377,-0.0129 0,-0.0363 0.0319,-0.0448 0.17156,-0.045 0.0942,-1.2e-4 0.2511,-0.0131 0.34882,-0.0289 0.12488,-0.0203 0.18078,-0.0204 0.18759,0 0.007,0.0203 1.21548,0.0295 3.99768,0.0295 3.48502,0 3.98985,-0.005 4.00338,-0.0403 z"
       style="font-weight:300;font-size:32px;line-height:17.7608px;font-family:Orbitron;-inkscape-font-specification:'Orbitron, Light';text-align:end;white-space:pre;mix-blend-mode:normal;fill:#e0dcdf;fill-opacity:1;fill-rule:evenodd;stroke:none;stroke-width:0.894199;stroke-linecap:square;stroke-dasharray:0.22355, 0.22355;paint-order:fill markers stroke"
       id="path63-1" />
    <path
       d="m 121.25963,162.01786 -0.75499,2.06499 c -0.41529,1.13554 -1.28073,3.51887 -1.92287,5.29631 -0.64216,1.77745 -1.17986,3.20113 -1.19476,3.16415 -0.0149,-0.037 -0.8849,-2.41129 -1.93374,-5.27668 l -1.90737,-5.21002 -0.28784,-0.0238 c -0.15842,-0.0132 -0.28832,0.004 -0.28836,0.0382 -3e-5,0.0344 0.92543,2.60697 2.05621,5.71645 l 2.05569,5.6534 h 0.32349 0.3235 l 1.83347,-5.07462 c 1.00852,-2.79111 1.86056,-5.12671 1.89342,-5.19039 0.0329,-0.0637 0.13141,-0.1199 0.21859,-0.12454 0.0872,-0.005 0.2165,-0.0305 0.28784,-0.0579 0.0898,-0.0345 0.14253,-0.002 0.17053,0.10491 0.0223,0.0851 0.067,0.15451 0.0997,0.15451 0.0328,0 0.055,0.0436 0.0491,0.0966 -0.006,0.0531 0.80541,2.34619 1.80299,5.09581 l 1.81384,4.99918 0.34262,-0.0212 0.3421,-0.0207 2.06292,-5.67304 2.06292,-5.67304 -0.27388,-0.0243 c -0.15052,-0.0135 -0.3008,0.004 -0.33435,0.0382 -0.0486,0.0503 -1.75572,4.72436 -3.55379,9.73016 -0.14104,0.39266 -0.27567,0.71417 -0.2992,0.71417 -0.0236,0 -0.69811,-1.79727 -1.49914,-3.99407 -0.80102,-2.19681 -1.66468,-4.55896 -1.91874,-5.24878 l -0.46147,-1.25419 h -0.55449 z"
       style="font-weight:300;font-size:32px;line-height:17.7608px;font-family:Orbitron;-inkscape-font-specification:'Orbitron, Light';text-align:end;white-space:pre;mix-blend-mode:normal;fill:#e0dcdf;fill-opacity:1;fill-rule:evenodd;stroke:none;stroke-width:0.894199;stroke-linecap:square;stroke-dasharray:0.22355, 0.22355;paint-order:fill markers stroke"
       id="path62-5" />
    <path
       d="m 107.91523,162.02767 c -0.69562,-0.004 -1.61814,0.001 -2.85615,0.007 -4.35374,0.0211 -4.4855,0.026 -4.78576,0.18139 -0.17827,0.0922 -0.41429,0.31605 -0.55914,0.52968 l -0.25114,0.37001 v 4.61367 4.61315 l 0.25114,0.37104 c 0.15395,0.22766 0.3819,0.44004 0.59066,0.54932 l 0.34004,0.17777 4.48396,-0.001 c 4.17002,-0.002 4.50524,-0.0114 4.79299,-0.14211 0.38911,-0.17677 0.77727,-0.6133 0.88263,-0.99271 0.052,-0.18727 0.0809,-1.82705 0.0811,-4.58473 5.3e-4,-4.73508 0.002,-4.72106 -0.48007,-5.21829 -0.36241,-0.37391 -0.40341,-0.46282 -2.49029,-0.47387 z m 1.42782,0.48938 c 0.0247,-0.0205 0.06,-0.0155 0.12299,0.017 0.0486,0.0251 0.1448,0.0537 0.21394,0.0636 0.0938,0.0134 0.12837,0.0316 0.13591,0.0708 0.0139,0.0721 0.11753,0.15473 0.17674,0.14108 0.0355,-0.008 0.0663,0.0237 0.11368,0.11679 0.0358,0.0703 0.097,0.15751 0.13591,0.19378 0.0504,0.047 0.0658,0.0836 0.0548,0.12764 -0.009,0.034 -0.002,0.0868 0.015,0.11782 0.0463,0.0865 0.0422,8.67514 -0.004,8.74934 -0.0263,0.0421 -0.0263,0.0615 -0.001,0.0868 0.0253,0.0253 0.0109,0.0567 -0.0631,0.13849 -0.0525,0.0581 -0.11487,0.15387 -0.13849,0.21291 -0.0282,0.0705 -0.0557,0.10256 -0.0806,0.093 -0.0528,-0.0203 -0.20412,0.0935 -0.20412,0.15348 0,0.0364 -0.0288,0.0539 -0.10852,0.0667 -0.0596,0.01 -0.15057,0.042 -0.20205,0.0724 -0.083,0.049 -0.0975,0.0509 -0.12816,0.0139 -0.0306,-0.0369 -0.50101,-0.0419 -4.12688,-0.0419 -3.61269,0 -4.09486,0.005 -4.10879,0.0413 -0.0186,0.0485 -0.0286,0.0485 -0.15452,0 -0.0528,-0.0203 -0.15471,-0.0381 -0.22634,-0.0393 -0.0957,-0.002 -0.13022,-0.0126 -0.13022,-0.0424 0,-0.0574 -0.19583,-0.15315 -0.25063,-0.12247 -0.0332,0.0186 -0.0552,0.002 -0.0951,-0.0729 -0.0285,-0.0533 -0.0916,-0.12159 -0.14056,-0.15193 -0.0745,-0.0462 -0.0845,-0.064 -0.061,-0.10801 0.0302,-0.0564 -0.0322,-0.21704 -0.0842,-0.21704 -0.0147,0 -0.0269,-0.0527 -0.0274,-0.11679 -5.3e-4,-0.0641 -0.018,-0.18717 -0.0387,-0.27388 -0.0323,-0.13519 -0.0322,-0.15762 0.001,-0.15762 0.0331,0 0.0388,-0.59014 0.0388,-4.0969 0,-3.07909 -0.008,-4.09929 -0.032,-4.10725 -0.0208,-0.007 -0.007,-0.0528 0.0387,-0.1328 0.0386,-0.0671 0.0787,-0.17352 0.0889,-0.23668 0.0138,-0.086 0.0285,-0.1109 0.0589,-0.0992 0.0558,0.0214 0.19883,-0.12007 0.18293,-0.18087 -0.01,-0.0366 0.0151,-0.056 0.10594,-0.0832 0.0651,-0.0195 0.16312,-0.0706 0.21756,-0.11369 0.0544,-0.0431 0.10505,-0.0722 0.11265,-0.0646 0.0291,0.0291 8.55704,0.0117 8.59224,-0.0176 z"
       style="font-weight:300;font-size:32px;line-height:17.7608px;font-family:Orbitron;-inkscape-font-specification:'Orbitron, Light';text-align:end;white-space:pre;mix-blend-mode:normal;fill:#e0dcdf;fill-opacity:1;fill-rule:evenodd;stroke:none;stroke-width:0.894199;stroke-linecap:square;stroke-dasharray:0.22355, 0.22355;paint-order:fill markers stroke"
       id="path67-5" />
    <path
       d="m 85.26132,162.01786 v 5.71179 5.71128 h 5.09684 c 4.42548,0 5.13385,-0.0156 5.38211,-0.11937 0.36584,-0.15286 0.60794,-0.3804 0.81648,-0.76791 0.16467,-0.30598 0.1664,-0.34915 0.1664,-4.824 0,-4.47485 -0.002,-4.51802 -0.1664,-4.82399 -0.20854,-0.38751 -0.45064,-0.61505 -0.81648,-0.76792 -0.24826,-0.10372 -0.95663,-0.11988 -5.38211,-0.11988 z m 9.94875,0.49506 c 0.0148,-0.024 0.0524,-0.0166 0.14159,0.0279 0.0667,0.0333 0.15262,0.061 0.1912,0.061 0.0954,0 0.15994,0.0272 0.14004,0.0594 -0.0251,0.0407 0.10076,0.15968 0.16899,0.15968 0.0406,0 0.0712,0.0258 0.093,0.0786 0.0179,0.0431 0.0805,0.12533 0.13953,0.18293 0.0813,0.0794 0.10047,0.11353 0.078,0.14056 -0.0212,0.0256 -0.0208,0.0607 0.002,0.12506 0.0438,0.12576 0.0448,8.68761 10e-4,8.76949 -0.0209,0.0391 -0.0217,0.0673 -0.002,0.0909 0.0207,0.0249 2.1e-4,0.068 -0.076,0.16019 -0.0575,0.0696 -0.12021,0.16392 -0.13901,0.20929 -0.0208,0.0501 -0.0485,0.0768 -0.0708,0.0682 -0.0597,-0.0229 -0.20026,0.0973 -0.18449,0.15762 0.0111,0.0425 -10e-4,0.0522 -0.0672,0.0522 -0.0444,0 -0.14182,0.031 -0.216,0.0687 -0.11756,0.0597 -0.13884,0.0632 -0.16537,0.0274 -0.0268,-0.0362 -0.51912,-0.0413 -4.13308,-0.0413 -3.6287,0 -4.10259,0.005 -4.10259,0.0413 0,0.0492 -0.037,0.0492 -0.16485,0 -0.0528,-0.0203 -0.1483,-0.0381 -0.21239,-0.0393 -0.0769,-0.001 -0.11627,-0.0145 -0.11627,-0.0382 0,-0.0454 -0.17783,-0.13215 -0.22996,-0.11214 -0.0237,0.009 -0.0573,-0.0159 -0.0858,-0.0641 -0.0257,-0.0435 -0.0999,-0.11546 -0.16485,-0.15968 -0.085,-0.0579 -0.11059,-0.0894 -0.091,-0.11317 0.0352,-0.0425 -0.0287,-0.22738 -0.0785,-0.22738 -0.0239,0 -0.0357,-0.0401 -0.0357,-0.12196 0,-0.0671 -0.014,-0.18737 -0.031,-0.26665 -0.0229,-0.10694 -0.0229,-0.14635 0,-0.15399 0.0435,-0.0145 0.0447,-8.20415 0.001,-8.20415 -0.0165,0 0.002,-0.0539 0.0403,-0.11989 0.0387,-0.0659 0.0784,-0.17083 0.0884,-0.23306 0.0141,-0.0883 0.03,-0.11317 0.0724,-0.11317 0.0589,0 0.17144,-0.12478 0.17157,-0.19017 4e-5,-0.0224 0.0495,-0.0583 0.11007,-0.0801 0.0603,-0.0217 0.15401,-0.074 0.20877,-0.11627 0.0548,-0.0423 0.1058,-0.0709 0.11317,-0.0636 0.007,0.007 1.942,0.0127 4.29948,0.0119 3.28323,-0.001 4.29127,-0.009 4.30672,-0.0341 z"
       style="font-weight:300;font-size:32px;line-height:17.7608px;font-family:Orbitron;-inkscape-font-specification:'Orbitron, Light';text-align:end;white-space:pre;mix-blend-mode:normal;fill:#e0dcdf;fill-opacity:1;fill-rule:evenodd;stroke:none;stroke-width:0.894199;stroke-linecap:square;stroke-dasharray:0.22355, 0.22355;paint-order:fill markers stroke"
       id="path61-5" />
    <path
       d="m 81.23056,162.01786 -4.44883,0.002 c -4.170615,0.002 -4.467364,0.0108 -4.756813,0.14521 -0.405391,0.18828 -0.641391,0.42193 -0.817521,0.80977 -0.135665,0.29873 -0.14413,0.60719 -0.145728,5.39192 l -0.0015,5.07462 h 0.270268 0.269751 v -2.23811 -2.2381 h 5.171263 5.17126 v 2.2381 2.23811 h 0.27027 0.27026 v -5.08501 -5.08548 l -0.21497,-0.41134 c -0.17397,-0.33302 -0.2933,-0.45235 -0.62632,-0.62632 z m -0.26304,0.49919 c 0.0214,-0.0214 0.055,-0.0168 0.11938,0.0165 0.0493,0.0255 0.14634,0.0542 0.21549,0.0641 0.0938,0.0134 0.12836,0.0316 0.13591,0.0708 0.0135,0.0703 0.11666,0.15501 0.17311,0.14211 0.031,-0.007 0.0669,0.03 0.11421,0.11679 0.0381,0.0701 0.10055,0.15659 0.13849,0.19224 0.0535,0.0503 0.0654,0.0826 0.0532,0.14366 -0.009,0.0433 -0.003,0.0937 0.0129,0.11265 0.0367,0.0443 0.0385,0.18154 0.0357,2.83807 l -0.003,2.22777 h -5.15473 -5.15472 v -0.0822 c 0,-0.0452 -0.0123,-0.0827 -0.02739,-0.0827 -0.01807,0 -0.02739,-0.79144 -0.02739,-2.32027 0,-2.06136 -0.0047,-2.32428 -0.04237,-2.3518 -0.03821,-0.0279 -0.03821,-0.0408 0,-0.13229 0.02331,-0.0558 0.04237,-0.15107 0.04237,-0.21187 0,-0.0897 0.0097,-0.11059 0.05116,-0.11059 0.0621,0 0.201397,-0.20033 0.179317,-0.25786 -0.0105,-0.0274 0.01849,-0.0582 0.0894,-0.0946 0.0578,-0.0296 0.135391,-0.0858 0.172083,-0.12506 0.04345,-0.0465 0.08382,-0.0661 0.116272,-0.0558 0.03368,0.0107 0.05013,0.002 0.05013,-0.0269 0,-0.0348 0.0353,-0.0433 0.185002,-0.0434 0.10179,-9e-5 0.258853,-0.012 0.349332,-0.0269 0.108358,-0.0178 0.167614,-0.0179 0.173633,0 0.01341,0.0398 7.962301,0.0372 8.002091,-0.003 z"
       style="font-weight:300;font-size:32px;line-height:17.7608px;font-family:Orbitron;-inkscape-font-specification:'Orbitron, Light';text-align:end;white-space:pre;mix-blend-mode:normal;fill:#e0dcdf;fill-opacity:1;fill-rule:evenodd;stroke:none;stroke-width:0.894199;stroke-linecap:square;stroke-dasharray:0.22355, 0.22355;paint-order:fill markers stroke"
       id="path60-8" />
    <path
       d="m 56.549893,162.01786 v 5.71179 5.71128 h 0.269751 0.270267 v -2.65462 c 0,-2.34938 0.01389,-2.65966 0.121957,-2.70112 0.06715,-0.0258 2.442594,-0.047 5.278747,-0.047 4.630987,0 5.161743,0.0123 5.203817,0.12195 0.02577,0.0671 0.04651,1.28303 0.04651,2.70165 v 2.57917 h 0.270268 0.270267 v -5.71128 -5.7118 H 68.01121 67.740942 v 2.70165 2.70112 h -5.325257 -5.325774 v -2.70112 -2.70164 h -0.270267 z"
       style="font-weight:300;font-size:32px;line-height:17.7608px;font-family:Orbitron;-inkscape-font-specification:'Orbitron, Light';text-align:end;white-space:pre;mix-blend-mode:normal;fill:#e0dcdf;fill-opacity:1;fill-rule:evenodd;stroke:none;stroke-width:0.894199;stroke-linecap:square;stroke-dasharray:0.22355, 0.22355;paint-order:fill markers stroke"
       id="path59-2" />
    <path
       d="m 45.364529,162.02767 c -2.103792,0.0124 -2.125718,0.11014 -2.504757,0.52969 -0.148449,0.16431 -0.306876,0.43157 -0.351916,0.59376 -0.102868,0.37045 -0.108263,3.36455 -0.0067,3.72949 0.100631,0.36166 0.470154,0.79612 0.828373,0.9741 0.273169,0.13572 0.588808,0.14736 4.86637,0.18345 l 4.573881,0.0388 0.272334,0.29662 0.271818,0.29714 v 1.7787 c 2.65e-4,1.68471 -0.0079,1.78729 -0.157096,1.94614 -0.08665,0.0922 -0.157613,0.20482 -0.157613,0.25011 0,0.21582 -0.752819,0.25528 -4.895308,0.25528 -3.671292,0 -4.248427,-0.0157 -4.516521,-0.12299 -0.169058,-0.0676 -0.328297,-0.18933 -0.353983,-0.27026 -0.02569,-0.0809 -0.07628,-0.14728 -0.112138,-0.14728 -0.03586,0 -0.08862,-0.13871 -0.117306,-0.30851 -0.04894,-0.28967 -0.06813,-0.30902 -0.315226,-0.30902 -0.295367,0 -0.317888,0.0702 -0.181384,0.56172 0.105362,0.37941 0.493002,0.81593 0.882117,0.9927 0.287744,0.13072 0.622964,0.14054 4.792989,0.14211 l 4.483964,10e-4 0.340031,-0.17931 c 0.187089,-0.0988 0.444189,-0.32781 0.571541,-0.5085 l 0.23151,-0.32815 0.02325,-1.88102 c 0.02548,-2.07439 0.01615,-2.12701 -0.473356,-2.64273 -0.451995,-0.47621 -0.545751,-0.48508 -5.22242,-0.47904 -2.313541,0.003 -4.320416,-0.0178 -4.459677,-0.0465 -0.139382,-0.0287 -0.321409,-0.14298 -0.404626,-0.25425 -0.08314,-0.11117 -0.188031,-0.24619 -0.233061,-0.29972 -0.115302,-0.13709 -0.08715,-3.46838 0.03101,-3.67316 0.113625,-0.19692 0.29091,-0.37338 0.494544,-0.49145 0.198781,-0.11525 8.768314,-0.14357 9.059395,-0.03 0.275666,0.10759 0.683679,0.54453 0.683679,0.73226 0,0.24898 0.09845,0.35657 0.326595,0.35657 0.231727,0 0.233124,-0.002 0.19327,-0.35605 -0.05083,-0.45098 -0.381045,-0.9284 -0.790133,-1.14205 -0.301267,-0.15735 -0.416841,-0.16173 -4.785237,-0.18294 -1.254293,-0.006 -2.186932,-0.0114 -2.888196,-0.007 z"
       style="font-weight:300;font-size:32px;line-height:17.7608px;font-family:Orbitron;-inkscape-font-specification:'Orbitron, Light';text-align:end;white-space:pre;mix-blend-mode:normal;fill:#e0dcdf;fill-opacity:1;fill-rule:evenodd;stroke:none;stroke-width:0.894199;stroke-linecap:square;stroke-dasharray:0.22355, 0.22355;paint-order:fill markers stroke"
       id="path66-9" />
  </g>
</svg>
